<?xml version="1.0" standalone="no"?><!DOCTYPE svg PUBLIC "-//W3C//DTD SVG 1.1//EN" "http://www.w3.org/Graphics/SVG/1.1/DTD/svg11.dtd"><svg class="icon" width="128px" height="128.00px" viewBox="0 0 1024 1024" version="1.1" xmlns="http://www.w3.org/2000/svg"><path d="M428.126287 191.711344h-159.033274V32.67807h159.033274z" fill="#ED5D51" /><path d="M269.093013 191.711344h65.35614V32.67807h-65.35614z" fill="#DB5A4F" /><path d="M112.238278 492.436729v479.278359c0 28.320994 23.963918 52.284912 52.284912 52.284912h692.775082c28.320994 0 52.284912-23.963918 52.284912-52.284912v-479.278359H112.238278z" fill="#D84F48" /><path d="M179.772955 971.715088v-479.278359H112.238278v479.278359c0 28.320994 23.963918 52.284912 52.284912 52.284912h67.534677c-28.320994 0-52.284912-23.963918-52.284912-52.284912" fill="#C94D47" /><path d="M458.625819 65.443281c0 8.714152-6.535614 15.249766-15.249766 15.249766h-189.532806c-8.714152 0-15.249766-6.535614-15.249766-15.249766v-50.106374c0-8.714152 6.535614-15.249766 15.249766-15.249765h189.532806c8.714152 0 15.249766 6.535614 15.249766 15.249765v50.106374z" fill="#B84F48" /><path d="M306.128159 65.443281v-50.106374c0-8.714152 6.535614-15.249766 15.249766-15.249765h-67.534678c-8.714152 0-15.249766 6.535614-15.249766 15.249765v50.106374c0 8.714152 6.535614 15.249766 15.249766 15.249766H321.377925c-8.714152 0-15.249766-6.535614-15.249766-15.249766" fill="#AC4D47" /><path d="M608.944941 607.899243h-193.889882c-23.963918 0-43.57076 19.606842-43.57076 43.57076v372.529997h278.852864v-372.529997c0-23.963918-17.428304-43.57076-41.392222-43.57076" fill="#00997C" /><path d="M428.126287 740.79006h163.39035v-74.070291h-163.39035zM428.126287 969.53655h163.39035v-178.640116h-163.39035z" fill="#00B494" /><path d="M299.592545 827.93158c0 8.714152-6.535614 15.249766-15.249766 15.249766H205.915411c-8.714152 0-15.249766-6.535614-15.249766-15.249766v-132.890818c0-8.714152 6.535614-15.249766 15.249766-15.249765h78.427368c8.714152 0 15.249766 6.535614 15.249766 15.249765v132.890818zM835.512893 827.93158c0 8.714152-6.535614 15.249766-15.249766 15.249766h-78.427368c-8.714152 0-15.249766-6.535614-15.249766-15.249766v-132.890818c0-8.714152 6.535614-15.249766 15.249766-15.249765h78.427368c8.714152 0 15.249766 6.535614 15.249766 15.249765v132.890818z" fill="#F0D355" /><path d="M64.310442 549.078717c-17.428304 0-32.67807-8.714152-41.392222-23.963918-8.714152-15.249766-8.714152-32.67807 0-47.927836l174.283039-300.638244c8.714152-15.249766 23.963918-23.963918 41.392222-23.963918h544.6345c17.428304 0 32.67807 8.714152 41.392222 23.963918l174.283039 300.638244c8.714152 15.249766 8.714152 32.67807 0 47.927836-8.714152 15.249766-23.963918 23.963918-41.392222 23.963918h-893.200578z" fill="#00997C" /><path d="M826.798741 176.548719c-8.714152-15.249766-23.963918-23.963918-41.392222-23.963918h-544.6345c-19.606842 0-34.856608 8.714152-43.57076 23.963918L59.953366 414.009361c15.249766 6.535614 34.856608 10.89269 54.46345 10.89269 41.392222 0 76.24883-19.606842 100.212747-47.927836 23.963918 30.499532 58.820526 47.927836 100.212748 47.927836 41.392222 0 76.24883-19.606842 100.212748-47.927836 23.963918 30.499532 58.820526 47.927836 100.212748 47.927836 41.392222 0 76.24883-19.606842 100.212748-47.927836 23.963918 30.499532 58.820526 47.927836 100.212748 47.927836 41.392222 0 76.24883-19.606842 100.212748-47.927836 23.963918 30.499532 58.820526 47.927836 100.212747 47.927836 19.606842 0 37.035146-4.357076 54.46345-10.89269l-143.783507-237.460642z" fill="#F1F2F2" /><path d="M826.798741 176.548719c-8.714152-15.249766-23.963918-23.963918-41.392222-23.963918h-544.6345c-19.606842 0-34.856608 8.714152-43.57076 23.963918L59.953366 414.009361l137.247893-237.460642c8.714152-15.249766 23.963918-23.963918 41.392222-23.963918h89.320058c-17.428304 0-32.67807 8.714152-41.392222 23.963918l-141.604969 243.996256c26.142456-6.535614 50.106374-21.78538 67.534677-43.57076 23.963918 30.499532 58.820526 47.927836 100.212748 47.927836 41.392222 0 76.24883-19.606842 100.212748-47.927836 23.963918 30.499532 58.820526 47.927836 100.212748 47.927836 41.392222 0 76.24883-19.606842 100.212748-47.927836 23.963918 30.499532 58.820526 47.927836 100.212748 47.927836 41.392222 0 76.24883-19.606842 100.212748-47.927836 23.963918 30.499532 58.820526 47.927836 100.212747 47.927836 19.606842 0 37.035146-4.357076 54.46345-10.89269l-141.604969-237.460642z" fill="#F1F2F2" /><path d="M59.953366 414.009361l-37.035146 63.177602c-8.714152 15.249766-8.714152 32.67807 0 47.927836s23.963918 23.963918 41.392222 23.963918h89.320058c-17.428304 0-32.67807-8.714152-41.392222-23.963918-8.714152-15.249766-8.714152-32.67807 0-47.927836l32.67807-56.641988c-10.89269 2.178538-21.78538 4.357076-32.67807 4.357076-17.428304 0-37.035146-4.357076-52.284912-10.89269" fill="#099076" /><path d="M330.092077 152.584801h-89.320058c-19.606842 0-34.856608 8.714152-43.57076 23.963918L59.953366 414.009361c15.249766 6.535614 34.856608 10.89269 54.46345 10.89269 10.89269 0 21.78538-2.178538 32.67807-4.357076l141.604969-246.174794c6.535614-13.071228 23.963918-21.78538 41.392222-21.78538" fill="#DFE0E0" /></svg>