<svg width="240" height="240" xmlns="http://www.w3.org/2000/svg"><g fill="#0A0A0A" fill-rule="nonzero"><path d="M37.725 178.062s0 .598.466.863c1.066 1.527 1.799 1.527 3.065 0a4.633 4.633 0 00.533-5.045 2.533 2.533 0 00-1.2-.73h-.466c-1.532-.73-1.665-1.194-.533-2.323.411-.28.62-.773.533-1.26 0-1.727.866-3.12 1.2-4.714a22.735 22.735 0 013.33-6.637 26.516 26.516 0 012.598-4.978c1.599-1.793 2.531-4.05 4.063-5.908 1.533-1.858 1.666-2.92 2.665-4.248a21.268 21.268 0 014.663-5.11.661.661 0 000-.4 10.119 10.119 0 015.33-4.247 42.89 42.89 0 015.728-1.527c.316-.063.613-.2.866-.398.666-.398 1.2-.73 1.932 0 .733.73 1.665.398 2.398 0 2.44-.419 4.92-.575 7.394-.465a11.357 11.357 0 015.396 1.328h.6c1.132 0 1.532.996.932 1.991-.6.996-.533.531-.866 0a6.68 6.68 0 00-3.33-.93c-1.133 0-2.265-.331-3.398-.53a18.384 18.384 0 00-6.661 0 12.3 12.3 0 01-3.464 0c-2.21.026-4.363.695-6.195 1.925-1.466.796-2.931 1.66-4.397 2.39-.4.141-.763.368-1.066.663a34.068 34.068 0 00-3.597 4.58 21.715 21.715 0 01-4.197 5.376 3.117 3.117 0 00-1.066 1.925s0 .399-.4.598c-.399.199-1.198.796 0 1.46 1.2.664 0 .664 0 .996a13.743 13.743 0 00-3.796 5.11c-1 2.125-1.866 4.315-2.798 6.638l-1.399 3.452a2.252 2.252 0 00.666 2.854 5.562 5.562 0 011.532 6.173 12.203 12.203 0 01-3.597 6.173 3.576 3.576 0 00-.933 3.252 76.49 76.49 0 011.6 7.567 5.76 5.76 0 001.198 4.182 16.288 16.288 0 003.797 3.916c.457.277.772.736.866 1.26 0 1.727.866 3.386 1.266 5.045.4 1.66 0 4.249.4 6.306.4 2.058.799 3.053 1.132 4.58.533 2.522.933 5.045 1.266 7.567v2.721a1.92 1.92 0 00-.6 1.925v.531c0-.066-1.332.465-1.932.797a3.272 3.272 0 01-1.598.53 1.136 1.136 0 00-1 0 7.883 7.883 0 01-7.127 1.395 5.137 5.137 0 01-3.464-1.593h-.467c-1.931.332-2.264-1.328-2.797-2.456a15.093 15.093 0 01-1.133-3.85v-2.589a48.952 48.952 0 00-1.132-8.23 27.188 27.188 0 01-1.066-8.364 8.268 8.268 0 01-.133-1.26 13.248 13.248 0 011.199-2.921 10.854 10.854 0 001.532-7.169c0-.93 0-1.991-.333-2.92a26.461 26.461 0 00-.467-3.186 40.097 40.097 0 01-.999-4.912c0-.73-.999-.863-1.465-1.328a3.713 3.713 0 01-1.266-2.39 1.724 1.724 0 00-.6-1.194 3.045 3.045 0 01-.4-3.916c.734-1.593 1.2-3.319 2.932-4.116l.4-.53c1.265-3.12 3.397-5.775 4.663-8.895a48.779 48.779 0 003.663-7.5c2.065-3.518 2.998-7.5 4.863-11.085a43.269 43.269 0 012.465-5.377c1.399-2.124 2.332-4.513 3.797-6.637a22.366 22.366 0 0110.991-8.894 49.766 49.766 0 005.33-2.656 28.919 28.919 0 0110.658-3.318 24.462 24.462 0 005.795-.863h.6a7.144 7.144 0 013.664-1.261 4.2 4.2 0 003.264-1.859 8.21 8.21 0 001.865-5.907 10.78 10.78 0 010-2.058 1.46 1.46 0 00-.933-1.792c0-.398 0-.531.6-.664s.866 0 .666-.332c-.2-.332 0-1.327-.8-1.46a9.427 9.427 0 00-1.332 0c-.466 0-.666 0-.799.597-.133.598 0 .465.466.598.42.147.692.553.667.995-1.4-.862-1.4-.862-1.866.598a2.983 2.983 0 01-.4.796s0 .863-.799.664a.928.928 0 01-.533-1.195c.667-1.46 0-2.323-1.332-2.987a20.646 20.646 0 01-5.795-4.248 13.293 13.293 0 01-2.265-2.456 2.67 2.67 0 00-2.731-1.062h-1.133c-.333 0 0 0 0 0a1.337 1.337 0 011.133 0c.397.288.935.288 1.332 0v-1.062a5.034 5.034 0 01-.933-2.323 3.318 3.318 0 00-2.065-3.252c-.8-.664-1.665 0-2.465 0-1.412.387-2.865.61-4.33.664 0 0-.932.464-1.132.929-.2.465.466.53.733.796a18.268 18.268 0 004.663 2.722s.6 0 .733.664a5.01 5.01 0 01-2.931-.797 31.048 31.048 0 01-4.197-2.854 1.336 1.336 0 00-1.4-.332 12.963 12.963 0 01-8.193-1.394 7.254 7.254 0 01-3.064-2.589v-.862a8.916 8.916 0 002.798 2.455c.589.29 1.217.491 1.865.598.733 0 .733 0 .4-.73-.333-.73 0-.465 0-.531 1.598 1.925 2.198 1.991 5.13 1.526a30.05 30.05 0 01-3.332-5.376 16.548 16.548 0 01-1.332-4.713 10.318 10.318 0 010-3.783c0-.664-1.199-2.522-1.865-2.589-.666-.066-.666 0-.733-.398-.067-.398 0-.465.533-.531s.4-.398 0-.597c-.4-.2 0-1.195-.8-.996-.987.172-1.965.394-2.93.664.4.663 1.265.398 1.465.995a2.273 2.273 0 01-1.332 0 18.718 18.718 0 00-6.662.332l-4.596.664c-.333.066-.333-.2-.333-.531 0-.332 0-.597.666-.73a9.155 9.155 0 015.995-.996c1.668.368 3.396.368 5.063 0l3.264-.73c.866 0 .733-.796.666-1.328-.2-1.23-.2-2.486 0-3.717 1.666-1.924 0-3.717 0-5.575a11.906 11.906 0 010-4.846 2.05 2.05 0 000-1.26 17.676 17.676 0 01-2.331-7.833 12.11 12.11 0 00-.467-2.124 7.08 7.08 0 01-.532-4.514c0 .73.4 1.46.666 2.19s0 .73.4.73c1.332 0 .732.797.666 1.395a9.664 9.664 0 001.132 4.248c.138.34.294.672.466.996-1.066-.399-1.132 0-.866.73.262.672.485 1.36.666 2.057 0 0 0 .531.4.531s.4 0 .533-.597c.558-1.737.828-3.553.8-5.377a14.092 14.092 0 01.999-6.637 28.67 28.67 0 011.798-5.31c.071-.395.071-.8 0-1.195a7.201 7.201 0 00-3.33 1.859 19.921 19.921 0 00-1.8 2.323c0 .796-.532 1.66-.865 2.522-.333.863 0 .597-.4.465-.4-.133 0-.399 0-.598 0-1.194.8-1.991 1.266-2.854a11.306 11.306 0 015.13-4.978c.468-.244.959-.444 1.465-.597.999 0 1.066-.598.8-1.46a10.188 10.188 0 01-.4-2.855c0-.93 0-1.261-1.2-.664v-.398c1.333-.664 1.133-1.991 1.533-3.053a8.516 8.516 0 016.661-5.908l4.796-1.393a16.646 16.646 0 015.73 0 4.27 4.27 0 004.262-1.66 5.276 5.276 0 016.662-.93c.43.306.775.718 1 1.196.532.995.865 1.062 1.465 0a7.86 7.86 0 013.996-2.855 3.142 3.142 0 011.533 0c2.797.266 5.262-1.327 8.326-1.327 1.8.398 3.531.863 5.263 1.394a5.454 5.454 0 013.464 3.252c.333.863.533.664.933 0a47.507 47.507 0 013.663-3.252c.448-.506.938-.972 1.466-1.394 1.066-.531 1.465 0 1.465.93v.663c0 .863 0 1.195 1.066.93a3.206 3.206 0 012.665.663s.533.465.333.863c-.2.398-.533 0-.8 0a8.948 8.948 0 00-1.731-.598c-.344-.05-.69.07-.929.32a1.06 1.06 0 00-.27.942c0 .73 1.199.597 1.332.464.133-.132 2.198 0 3.197-.398 1-.398 0 0 0 0 .467 1.726 2.465 2.721 2.065 4.78 0 .464.666.928.467.995-.2.066 0 .929 0 1.327 0 .398 0 1.726 1.332 1.129 1.332-.598.666 0 1 .464 1.476.565 2.99 1.03 4.529 1.394.6 0 1.332 0 1.599.996 1.399 0 1.932 1.062 2.93 1.593a11.697 11.697 0 013.931 4.314 16.741 16.741 0 011.599 7.965c0 .93-.467 1.726 0 2.788.466 1.062 0 1.394.932 1.925-1.332 0-1.132.597-1.265 1.327a40.679 40.679 0 00-.467 4.979 12.721 12.721 0 004.397-3.186v-1.195c0-.398-1.266-.531-1.665-1.328a9.876 9.876 0 012.93 1.328c.667.464 0 1.128 0 1.46a9.853 9.853 0 01-2.93 2.323h-.6c-1.532.598-1.998 1.859-2.465 3.32a61.978 61.978 0 01-3.797 10.885 13.73 13.73 0 01-.999 1.66v.796c0 .199.4 0 .6 0a4.611 4.611 0 012.997-.399c.474.19.84.579 1 1.062a2.919 2.919 0 01-1.932 3.651c-1.133 0-.866 1.527-1.2 2.323-.332.797.467.598.8.863.333.266 1.599.664 1.998 1.527a5.43 5.43 0 01-1.265 6.637 10.863 10.863 0 01-5.73 3.585 1.596 1.596 0 00-1.132 1.128 16.661 16.661 0 01-4.73 6.638 25.918 25.918 0 01-9.259 6.239c-.28.09-.532.25-.732.464a4.872 4.872 0 002.264.93c.933 0 1.533-.531 2.132-1.062a7.53 7.53 0 012.731-1.792c.467 0 1.066-.399 1.333 0 .266.398 0 .862-.333 1.26a6.657 6.657 0 01-2.931 2.324 30.387 30.387 0 01-7.195 2.323h-.733c-.932 0-1.265 0-1.265 1.261s-.666 2.124-.533 3.253a7.753 7.753 0 002.531 5.708c.274.2.483.478.6.796.4 2.456 2.531 3.253 4.396 4.182.643.292 1.266.625 1.865.996a20.042 20.042 0 0010.326 2.456l5.062.53a94.72 94.72 0 019.726 1.063c2.19.45 4.433.584 6.662.398 3.397-.398 6.661-.332 10.258-.863 2.199-.398 4.463-.398 6.662-.863a44.828 44.828 0 007.66-1.991 9.748 9.748 0 012.199-.797 11.133 11.133 0 005.329-3.12 14.628 14.628 0 004.263-4.314s.333-.464 0-.73c.666-.465 0-1.128.333-1.66a.398.398 0 000-.597v-.663a4.696 4.696 0 000-1.925v-6.638-.398c.666-1.062 0-2.124.4-3.186.1-.139.1-.326 0-.465a12.767 12.767 0 01.533-4.447c.466-1.261.866-1.726 2.265-1.593 2.093.38 4.145.959 6.128 1.726 3.264 1.062 3.864 3.717 4.73 6.637a5.226 5.226 0 010 3.186 39.321 39.321 0 01-1.2 3.983 15.536 15.536 0 00-2.33 3.12l-1 3.916c1.066 0 .666 1.195.866 1.858.2.664 1.332.73 2.065.996l3.73 1.128a4.847 4.847 0 013.465 4.713 15.415 15.415 0 01-.866 5.775v1.194a11.404 11.404 0 01-3.531 6.638 17.138 17.138 0 01-4.33 2.39c-1.83.799-3.724 1.443-5.662 1.924a3.342 3.342 0 01-1.4 0c-2.197 0-4.329.664-6.66.465a8.272 8.272 0 01-5.996-2.788 12.058 12.058 0 00-5.795-3.982 18.58 18.58 0 00-5.796-.863 7.754 7.754 0 01-2.997-.332 5.348 5.348 0 00-2.265 0 63.04 63.04 0 01-7.062.465c-4.196 0-8.393.53-12.523.663a45.795 45.795 0 01-6.062 0 28.208 28.208 0 00-6.195.73c-.662.1-1.336.1-1.999 0h-5.995a.933.933 0 00-1 .598c-.399.73-1.065.73-1.798.597a4.544 4.544 0 00-3.997.399c-.532.398-1.732 0-2.198.995h-.8c-.132 0-.399-.398 0-.863.667-1.925 1.866-2.257 4.064-2.323.733 0 1.466 0 2.065-.53a1.537 1.537 0 011.266 0c3.202.032 6.404-.1 9.592-.4a64.634 64.634 0 017.195-.995h14.522c2.465 0 3.464-.398 5.196 0 2.992.266 6.001.266 8.993 0 1.219-.1 2.444-.1 3.664 0a12.02 12.02 0 018.326 2.522c1.732 1.726 4.197 2.788 5.862 4.713h.4c2.93.69 5.991.575 8.86-.332 2.132-.863 4.396-1.327 6.661-1.991a4.53 4.53 0 002.465-1.726 19.885 19.885 0 003.864-7.766 8.284 8.284 0 00-3.264-7.633 3.137 3.137 0 00-1-.398 8.95 8.95 0 01-3.73-1.062s-.6-.398-.933 0c-.333.398-1.132 0-1.265-.664a6.616 6.616 0 01.333-4.447 42.972 42.972 0 003.597-10.554 4.37 4.37 0 00-1.132-4.58l-3.331-2.92a3.073 3.073 0 00-3.464-.332 2.455 2.455 0 00-1.4 2.323 35.781 35.781 0 000 5.974c-.009.524.155 1.037.467 1.46.097.257.097.54 0 .797a16.933 16.933 0 00-.333 3.65 2.849 2.849 0 01-.8 1.991 2.45 2.45 0 00-.466 2.788 2.78 2.78 0 01-.666 2.854 11.437 11.437 0 00-1.798 1.793 15.122 15.122 0 01-5.73 3.982 43.388 43.388 0 00-4.063 1.66c-1.677.582-3.424.94-5.196 1.062a33.404 33.404 0 00-4.596 1.194 23.995 23.995 0 01-7.794.996c-3.053.02-6.102.242-9.126.664-3.349.232-6.71.232-10.059 0-2.254.022-4.5-.291-6.661-.93-1.732-.464-3.598-.398-5.33-.73a59.084 59.084 0 01-6.128-.929c-1.2-.332-2.198.332-3.33 0a18.287 18.287 0 01-3.531-1.527 11.577 11.577 0 01-3.398-3.053c-.4-.73-.8-1.527-1.132-2.257a5.705 5.705 0 00-.666-1.062 10.336 10.336 0 01-2.798-6.637 28.18 28.18 0 00.4-3.32c0-.596 0-.796-.667-.73-1.665 0-3.33.532-4.996.665-.798.065-1.6.065-2.398 0h-.866a5.27 5.27 0 01-4.73 2.057 21.99 21.99 0 01-5.861-.863c-1.066 0-1.732.465-1.4 1.66a7.408 7.408 0 010 3.982.728.728 0 000 .863c.4.332.534.598 0 .797-.532.199-1.332 1.792-2.131 2.588a8.382 8.382 0 01-1.599 1.46 6.654 6.654 0 00-2.465 2.191c0 .664-1.065.664-1.465 0a.334.334 0 00-.466 0 9.625 9.625 0 00-3.598.465 21.112 21.112 0 01-6.661 1.659 43.146 43.146 0 00-13.856 4.248c-1.266.664-2.198 1.726-3.464 2.323-1.266.598-.4.996-.932 1.328-.533.332-1.666.929-2.399 1.46a13.296 13.296 0 00-4.996 5.244c-.6 1.194-1.465 2.256-2.065 3.385a33.149 33.149 0 01-1.998 3.717 26.502 26.502 0 00-2.931 6.637c-.666 2.058-1.599 3.983-2.332 5.974a18.74 18.74 0 00-.732 2.058c-.8 2.589-2.532 4.713-3.598 7.235a33.142 33.142 0 01-2.464 4.845.662.662 0 000 .863c.466.398.333.73 0 .93a5.655 5.655 0 00-1.466 1.327c0 .332-.6.531 0 1.062s0 .93-.6 1.128a5.304 5.304 0 00-2.797 6.24c.159.746.649 1.38 1.332 1.725.279.2.654.2.933 0v-.73c-.533-1.394 0-2.19 1.332-2.39.4 0 .6-.331.933-.53a10.092 10.092 0 013.663-.598l.733-.929zm46.63-127.84c.533 0 .733-.663.866-1.128-.466 0-.666.465-.866.863a1.725 1.725 0 00-.732 1.195c.4 0 .532-.465.6-.93h.132zM116.53 68.21c0-.332 0-.663-.6-.597-.599.066 0-.996-.532-.597a1.854 1.854 0 00-.533 1.858c.6 0 0-.863.866-.796.866.066-.733 1.327 0 1.659.733.332.999-.664 1.532-.93.533-.265.4 0 0-.398l-.733-.199zm-8.926-42.347c0-.531 0-.797-.733-.598-.733.2 0 .93 0 1.46 0 .531.4-.929 1-.862.599.066-.6.929-.4 1.593a8.581 8.581 0 001.798-1.66s.466-.464 0-.73c-.466-.265-.733 0-.932 0-.2 0-.267.996-.733.797zM63.372 62.568c0 .93 1.199.797 1.798 1.062.6.266.533.399.8 0 .266-.398 0-.929 0-1.327 0-.398-.467-.332-.666 0a5.748 5.748 0 01-1.932.265zm45.031 19.913v.398s-.8.664 0 .93c.8.265.8 0 1.133-.531.097-.257.097-.54 0-.797 0 0 .333-.597 0-.73s-.533 0-.666 0l-.334.465c-.4 0 0-.664 0-.664a.733.733 0 00-.666.464c0 .399 0 .863-.8.996-.798.133.334-.73 0-.93a.601.601 0 00-.665 0c-.4.333 0 .665 0 .996-.03.176-.03.356 0 .531 0 0 0 .598.533.598s.466-.332.6-.531c.19-.46.487-.87.865-1.195zm-3.464-10.09c.866.4 1.2 0 1.466-.73s-.467-.73-.467-.995-1.398.465-2.398.797c.866 0 1.532 0 1.6.929.066.93 0 0-.534 0-.533 0-.6-.465-.8 0-.2.465 0 .863 0 1.195 0 .332.4 0 .534 0 .133 0 .8-.399.466-.93-.333-.53 0-.199.133-.265zm-7.394.731c1 0 1.799-.465 2.731-.664.933-.199 0-.995 0-1.526s-.466-.598-.999 0a37.76 37.76 0 00-1.865 2.256s.066.399.133-.066zm9.393-33.188c-.6 0-.4 0-.533-.597-.133-.598 0-.598-.533-.531-.533.066 0 .398 0 .664.098.3.121.618.066.929 0 1.593 0 1.593 1.333 1.991h.6c0-.996-.733-1.792-.733-2.788.332.151.577.444.666.797 0 .73.732 1.46 1.132 2.257a5.033 5.033 0 00-1.132-3.186s-.8-.266-.866.331v.133zM69.633 64.825s.733 0 0-.73c-.732-.73-.4-.531-.732 0-.333.531-1.133 0-.866.863a4.455 4.455 0 001.998 1.991h.6a1.658 1.658 0 00-1-2.124zm24.182 20.643c0-.664.466-.863.732-1.261a.992.992 0 000-.93c0-.398-.4 0-.666 0s-.533.332-.533.664c-.215.813-.482 1.61-.8 2.39a7.875 7.875 0 004.997-2.124 2.07 2.07 0 00-2.331.664c-.38.358-.877.57-1.4.597zm27.911-48.985c.4.53.8.863 1.066 0s0-2.523-1.466-3.253a.802.802 0 00-.932 0c-.333 0 0 .531 0 .863 0 .332.932 1.593 1.332 2.456a3.053 3.053 0 01-1.066-1.527 2.524 2.524 0 00-.732-.929v.398a.926.926 0 010 .399 8.025 8.025 0 002.131 3.717h.4c.4 0 0 0 0 0s-.4-1.593-.733-2.124zM94.348 72.326l-1.333 2.256c0 .465 0 .399.4.598.4.199.333 0 0 .398a.468.468 0 01-.4 0h-.666a2.738 2.738 0 003.997-.398.728.728 0 000-.863h-.6c-.2 0-.466.597-.799.863a.6.6 0 01-.866 0c-.333-.332 0-.465 0-.664.37-.398.684-.845.933-1.328.466-.73 0-.796-.4-.796s-.8 0-.6-.531c.2-.531.6 0 .6-.398 0-.399 0 0 0 0s-.133.663-.266.863zm32.374 9.027s0 .464.533.464h.8c.2 0 0-.332 0-.464 0-.133-.467-.531-.8 0-.333.53 0 0-.333 0s.4-1.129 0-1.726-.866-2.589-1.266-3.916c-.4-1.328-.466-.332-.732-.399-.267-.066 0 0 0 0s-.333 1.195 0 1.593c.333.399.666 2.523 1.065 3.718.4 1.194-.066 1.26.733.73zM67.635 60.312v.464a.862.862 0 000 1.394.934.934 0 001.332 0c1.2-.597 1-1.261.666-2.19-.333-.93-.466-1.062-1.265-.332-.8.73 0 .73-.733.398-.733-.332 0-.597.533-.73a1.13 1.13 0 00.533-1.66 16.818 16.818 0 01-1.599-4.779v-.398a15.676 15.676 0 000 7.036.596.596 0 00.533.797zm43.5 15.067c-.334.863-1.133 1.394-1.4 2.323-.266.93-.599 0-.4.398.2.399.4 0 .6 0a21.437 21.437 0 003.664-2.92h-.866c0-.399.666-.664 0-.996-.666-.332-.666 0-.932.531-.267.531 0 0-.4 0s0-.597 0-.664c0-.066-.4 0-.6.399l-1.865 2.19a9.124 9.124 0 01-2.598 1.925c-.6 0-.533.73-.6 1.195-.066.464 0 0 0 .332 0 .331.667 0 .867-.531a29.467 29.467 0 004.53-4.249v.067zm-17.52-49.716c-1.266-.53-2.332-1.393-3.597-1.924a1.404 1.404 0 00-1.866.73c-.333.398.467 1.526 1.2 1.659.732.133.532 0 .599.531.067.531.533.797 1 1.062.465.266.865.332.932.797.066.464.533.464.8.398.478-.233.999-.369 1.531-.398.467 0 .467-.465.6-.797.133-.332 0-.53-.533-.597h-1.665c-.733 0-1.666 0-2.265-.664a11.63 11.63 0 013.397.398c0-.53 0-.597-.4-.863h.6a13.343 13.343 0 003.397 1.66h1.066c.266 0 0-.664-.333-.93l-1.532-1.194c-.467-.465-.733-.399-.8 0-.066.398 0 .464-.4.464-.399 0 0 0 0-.53 0-.532 0-1.328-.865-1.594a7.083 7.083 0 00-3.997-.73c1.066.93 2.465 1.328 3.13 2.522zm26.046 53.101c0-.465-.333 0-.533 0-1.599.465-1.932 2.058-3.13 3.252h3.93c.532 0 1.132 0 1.398-.464a15.964 15.964 0 002.332-5.775l-1.132.863-2.332 2.323s-.2.398-.533-.066v-.133zm-34.573-43.94v-.93a5.274 5.274 0 00-2.198.863.73.73 0 000 1.128c0 .465.533.399 1.066 0 .533-.398.732-1.128 1.465-1.26.733-.134 0 .663 0 .995a22.562 22.562 0 004.597-1.859c.732-.464 1.065-1.593 2.198-1.394 1.132.2 1.465-.53 1.665-1.46.2-.93 0-.73-.6-.73-.93.065-1.866.065-2.797 0-2.043-.354-3.242.575-3.597 2.788a20.787 20.787 0 012.93-.399H89.819c-1.06.195-2.107.461-3.131.797a.468.468 0 00-.733.398c.4 1.129-.466.863-.866 1.062zm3.53-22.237a1.603 1.603 0 01-1.731.399c-.933-.465-1.666.199-2.465.265-.8.067-.4 0-.4 0 0 1.46-.8.93-1.598.863-.8-.066-.866-.531-1.066 0-.2.531-1.133 1.261-1.466 1.991-.333.73 0 .863.6.996.796.025 1.589-.11 2.331-.398-.666.464-.6.796 0 1.062a5.266 5.266 0 011.666.995c.66.6 1.67.6 2.331 0 .666-.53.533-1.46.466-2.256a.464.464 0 00-.6-.399c-.599 0-1.398-.332-1.798.598a.735.735 0 01-.999 0c0-.332 0-.531.333-.664s0-1.925 1.732-1.328a2.269 2.269 0 011.999-.862c1.065 0 2.131.597 1.998-1.129 0 0 .466 0 0-.464-.466-.465-1 0-1.599 0l.267.331zM37.06 196.847a3.516 3.516 0 00-1.532 2.588 14.097 14.097 0 01-.466 1.792c-.533 2.058-1.932 3.717-2.532 5.775a4.63 4.63 0 000 3.12 23.556 23.556 0 011.332 6.637 66.645 66.645 0 003.198 12.545c.125.316.362.576.666.73.68.377 1.393.688 2.132.93h.6c.066 0 1.065.73 1.598.53a28.641 28.641 0 003.33-1.26c.667 0 1.2-.797 1.067-1.594a1.06 1.06 0 01.466-1.062c.422-.299.587-.846.4-1.327.098-3.47-.17-6.94-.8-10.355-.6-3.385-1.199-6.637-1.865-10.222a5.707 5.707 0 00-2.331-3.584 5.44 5.44 0 01-2.798-4.646 8.47 8.47 0 00-.733-3.85c0-.53-.466-.597-.933-.332-.466.266-1.066.797-1.665 1.129-.6.331-.533.929-.533 1.593 0 .663.666.73 1.399.862zm95.525-170.52a9.6 9.6 0 01-1.265-3.982c0-.996-.933-.93-1.533-.996-.599-.066 0 .73-.599 1.062-.6.332 0 0 0 .398v.465s-.333 0-.333-.531c.033-.309.033-.62 0-.93a.731.731 0 00-.666-.73.6.6 0 00-.733.332v.797c0 .265 1.466 1.66 2.132 2.589a25.745 25.745 0 012.93 4.447c.867-.598 0-1.527.534-2.058v1.394c0 .465 0 .796.732.73.484-.001.946.199 1.275.552.329.352.495.826.457 1.307v.73c0-.2.8 0 .866.464a.998.998 0 001.4.465 1.869 1.869 0 012.264.664 16.58 16.58 0 011.932 3.319 8.09 8.09 0 001.332 2.323c.245.292.62.441 1 .398.466 0 0-.597.333-.93a25.728 25.728 0 000-4.513 8.409 8.409 0 00-1.799-5.84c-1-.93-1.399-2.324-2.598-3.12a18.812 18.812 0 00-3.064-1.527 13.354 13.354 0 00-4.597-1.66c-.666 0-.866 0-.666.797a9.33 9.33 0 01.666 3.584zM72.631 18.96c-.533 0-1.132.531-1.266-.331h-.732c.533.73 0 .796-.533 1.062a2.381 2.381 0 010-.73c0-.399 0-.664-.4-.465s-1.332 0-1.865.332a.802.802 0 00.6 0 4.2 4.2 0 011.798-1.062 13.677 13.677 0 007.527-3.518s.667-.332.667-.863a18.315 18.315 0 00-8.46.73c-1.669.285-3.271.87-4.73 1.726a8.354 8.354 0 00-3.464 6.637c0 1.46.666 2.855.466 4.381a.662.662 0 00.8.73 25.732 25.732 0 012.93-.464c.4 0 .8-.598 1.4 0 .6.597 0 0 0-.399a17.373 17.373 0 012.198-3.916l3.064-3.85zM57.843 46.572a2.053 2.053 0 00-.6 2.19c0 1.328 1.2 2.522.8 3.983.356.464.586 1.013.666 1.593.4 1.394.732 1.46 1.932.597 1.199-.863 1.732-1.792 2.997-2.19a2.397 2.397 0 001.332-1.062 4.365 4.365 0 000-1.859c0-.398-.799-.53-.532-1.128h-.334c-.866.664-1.798.332-2.797 0-1-.332-.467 0-.4-.398.067-.399 0 0 .466 0 .832.2 1.7.2 2.532 0 1.065 0 1.332-.863.999-1.925a27.145 27.145 0 01-1.532-4.647s0-.464-.666-.464c-1.932 0-2.931 1.593-4.13 2.787a1.588 1.588 0 000 1.46c-.134 1.527.732 1.527.732 2.191 0 .664.866.332.4.797-.466.464-.666 0-.866 0-.2 0-.6-1.46-1-1.925zm5.262 40.29a13.36 13.36 0 005.196-1.46c.4 0 .333-.399 0-.664A15.212 15.212 0 0162.84 78.1v-.398a20.76 20.76 0 01-4.463-3.916h-.467c.035.597.035 1.195 0 1.792a20.8 20.8 0 003.864 9.558c.133.996.666 1.726 1.332 1.726zm12.59-66.774c.41-.525.967-.917 1.6-1.129 0 0 .532-.331 0-.663a4.544 4.544 0 00-3.332.398 19.066 19.066 0 00-2.997 3.584 21.68 21.68 0 00-2.598 4.846c0 .398-.333.73 0 .995.333.266.533 0 .8 0A54.667 54.667 0 0174.43 25a21.443 21.443 0 018.06-2.19c.866 0 .666-.796 1.133-1.128.466-.332-.067-1.195-.334-1.195a1.469 1.469 0 00-1.199-.398 6.278 6.278 0 01-2.797-.863 1.536 1.536 0 00-2.265.398s-.733.863-1.333.465zm46.098 2.456c0-.863-.533-1.792-1.732-1.062a32.887 32.887 0 01-5.063-.598c-.866 0-1.998-.53-2.531.399-.533.929.533 1.26.732 1.925.733 2.124 2.399 2.19 4.197 1.924a6.684 6.684 0 013.398.399c.666 0 1.199.332 1.598-.531 0 1.194.866 1.659 1.466 2.19.6.531 1.199.398 1.332-.398a7.21 7.21 0 000-2.39c-1.132-2.39-1.665-2.721-3.397-1.858zM69.1 75.644c-.467 0 0 .73-.6.93a3.572 3.572 0 010-1.859c0-.664 0-1.195-1-1.394-.998-.199-1.864 0-2.53-.796a2.338 2.338 0 011.665.464c.374.2.825.2 1.199 0 .4 0 0-.663 0-.995 0-.332-.333-1.46-.533-2.19s-2.332-1.726-2.798-1.461c-.187.13-.327.316-.4.531-.38 1-.605 2.052-.666 3.12 0 1.26-.533 2.522 0 3.783.533 1.261.467 1.593 1.2 1.925a9.745 9.745 0 002.864 1.195c.533 0 1.066.597 1.465.398.4-.2 0-.996 0-1.527v-.53.464c0 .465 0 1.859 1.4 2.19 1.398.332.532 0 .732 0 .2 0 0-.53 0-.73a11.938 11.938 0 01-1.998-3.385v-.133zm-6.662-45.268c-.533.465-1.066.797-1.465 1.195a15.105 15.105 0 00-3.664 8.828 10.78 10.78 0 000 2.92s0 .598.4.664c.4.066.466 0 .599 0a8.993 8.993 0 013.797-2.655 1.257 1.257 0 00.866-1.593c-.584-2-.344-4.15.666-5.974a.728.728 0 000-.73 6.094 6.094 0 01-.999-2.522l-.2-.133zm20.784-6.637a1.668 1.668 0 00-2.198-.664c-1.732.597-3.531.929-5.196 1.526-1.1.511-2.168 1.087-3.198 1.726a10.124 10.124 0 00-2.465 1.792h.8c.841.5 1.89.5 2.731 0a20.514 20.514 0 018.26-1.725 3.666 3.666 0 003.997-2.257c0-.863 0-1.261-.733-1.394-.732-.133-1.199.53-1.798.93l-.2.066zm26.646 70.424a14.975 14.975 0 01-3.864 0h-.8c.002.507-.319.96-.799 1.129a.927.927 0 000 1.128 4.86 4.86 0 003.464 2.655c3.486.236 6.986-.17 10.326-1.195 0 0 .6 0 .466-.332-.133-.332-.866-.73-1.133-1.26-.266-.532-.533 0-.732 0a15.573 15.573 0 01-4.93.73 1.4 1.4 0 00-1.532.862.797.797 0 01-1 .598c.107-.487.363-.927.734-1.262a.929.929 0 000-1.659c-1.266-.465-1-.863-.134-1.46l-.066.066zm-.666 8.629a15.5 15.5 0 006.661-1.593.468.468 0 01.6 0 7.55 7.55 0 005.595-.863c.467 0 0-.53 0-.796a5.546 5.546 0 00-4.663-.598 26.733 26.733 0 01-7.194 1.195 5.54 5.54 0 00-3.997 1.46c-.666.598 0 .664 0 .863a7.553 7.553 0 003.064.266l-.066.066zm27.445-20.31a9.791 9.791 0 006.062-4.315 3.509 3.509 0 00.793-3.27 3.523 3.523 0 00-2.325-2.439h-.866c-.267 0-.333 1.394-.533 2.058a15.903 15.903 0 01-1.932 4.182 9.533 9.533 0 00-1.133 3.717l-.066.066zm-7.86-63.456c.068-.862.068-1.727 0-2.589-.4-1.925-1.133-3.584-3.398-3.783h-.6c-1.132-.465-1.732 0-1.798 1.26-.067 1.262.733 1.992.8 2.988.066.995 1.132 2.19 1.931 3.12.8.929 1.2 0 1.865 0 1.266.464 1.333-.133 1.2-.996zm-6.33 9.292s0 .996.8.73c.8-.265.666 0 .666-.464 0-.465-.4-.73-.799-.93l-1-.53a8.151 8.151 0 00-5.528-1.129c-.6 0-.666 0 0 .863.417.71.795 1.44 1.132 2.19v.598a.468.468 0 01-.533 0 5.503 5.503 0 01-.466-.863 4.976 4.976 0 00-1.199-1.858c-.733-.598-1.2-.399-1.532.398-.195.541-.35 1.096-.466 1.66 0 .928 0 1.46 1.199 1.26.65-.2 1.347-.2 1.998 0 .533 0 .866 0 1.132-.53 0 .597.6 1.327 1.066 1.061.467-.265 2.798-.53 3.53-2.456zm-16.52 53.234v.332l3.997-1.062c1.266-.332 2.199-1.261 3.464-1.726a10.324 10.324 0 004.13-2.987c.8-.996 2.332-1.726 1.999-3.452 0 0 .932-.995 1.266-1.593a.53.53 0 000-.53h-.533a1.13 1.13 0 00-.733.73s0 .53-.533.597c-.533.066-1.865 1.128-2.665 1.925-.799.796-.799.93 0 1.394a.662.662 0 010 .863c-.932-1.129-1.065-1.062-2.198 0a19.961 19.961 0 01-3.064 2.721 7.396 7.396 0 01-1.599 1.062c-1.22.482-2.4 1.06-3.53 1.726zm-47.496-19.05l-1.732-1.527s-.466-.464-.6 0a8.074 8.074 0 00-.998 4.447c0 1.793.466 1.992 2.198 1.46h.733a6.679 6.679 0 002.131-.663c.6-.398 1.066-.797 1.865-.531a.468.468 0 00.6-.531 3.921 3.921 0 00-2.465-2.721l-1.998-.598c-.133.133.4.332.266.664zm43.366-50.114a15.162 15.162 0 018.127 2.323s0 .399.533 0c.533-.398 0-.398 0-.663.02-.342-.1-.678-.333-.93a7.052 7.052 0 00-2.198-1.99 23.91 23.91 0 00-5.596-1.793 3.467 3.467 0 00-3.997 1.991c0 .465 0 .797.4.664s1.999.465 3.064.398zm19.518-1.46c-.333-.398 0-.996-.333-1.527-.333-.53 0-.464-.732 0a30.825 30.825 0 00-3.598 2.855 6.63 6.63 0 00-2.065 3.85c0 .862.467.597.667.862.2.266.532 0 .799 0 .283-.7.858-1.241 1.575-1.483a2.606 2.606 0 012.155.222c.666 0 .933 0 .933-.597a4.566 4.566 0 01.466-3.253s.067-.73.133-.929zM59.308 71.795a8.713 8.713 0 013.464-3.32c.866-.597.466-.928 0-1.327-.466-.398-.8 0-1.199 0a8.574 8.574 0 00-2.864 3.12c-.6.996-1.333 1.991 0 3.186a16.433 16.433 0 003.397 3.053c.533.398 0 0 0-.464a19.18 19.18 0 010-4.78c0-.663.533-1.128.4-1.858-.133-.73-1 .664-1.532.93-.533.265-.6 1.194-1.666 1.46zM34.461 187.288v1.195c0 .398.466.996 1.132.531.667-.464.533-.597.8 0 .266.598 0 .664-.466.863a3.377 3.377 0 00-.8 3.983c.147.07.32.07.466 0a6.666 6.666 0 002.332-1.394c.466-.332 0-.863 0-1.328v-.796a12.106 12.106 0 00-.6-4.647c0-.464-.333-.53-.732-.597-1.732-.133-2.265.398-2.132 2.19zM102.475 8.671c1.74.316 3.454.76 5.129 1.328a7.594 7.594 0 012.93 2.057 4.902 4.902 0 011.333 3.32v.73c.227.13.506.13.733 0a3.046 3.046 0 00.733-3.651 4.985 4.985 0 00-1.6-1.726 14.815 14.815 0 00-5.795-2.522 4.544 4.544 0 00-3.463.464zM74.297 29.712H72.63a.8.8 0 00-.733.531v.73c.516.438.985.927 1.4 1.46.799.93 1.598 1.13 2.33.465.271-.326.56-.636.867-.929.4-.398 0-.597 0-.863 0-.265-1.133 0-.866-1.128a5 5 0 01.999.597h.8c.266 0 1.865-1.394 1.931-2.655.067-1.261-.066-.796-.066-.464a18.038 18.038 0 00-4.597 1.194c-.932.399-.932.664-.4 1.062zm54.157 17.324a55.69 55.69 0 00-1.199 4.78v.398s1 1.128 1.532 1.792c.333-.465.733-.797 1-1.261.999-1.859 1.931-3.717.466-5.775-.6-.863-1.599-1.062-2.265-1.726-.666-.664-.333 0-.4 0a8.535 8.535 0 00-.6 4.116c.867-.73.6-1.859 1.466-2.324zM65.97 58.188a19.445 19.445 0 000-3.917c0-.398 0-1.26-.866-.663a29.566 29.566 0 00-3.664 2.787c-.4.399 0 .664 0 1.062 0 .399 2.664 1.992 3.997 3.12 1.332 1.128.533.2.533-.265-.04-.708-.04-1.417 0-2.124zm69.346 17.722c.16-.7.16-1.425 0-2.124 0-.93-.733-1.062-1.533-.598a15.515 15.515 0 00-2.331 1.793c-.666.663-.533 1.062 0 1.593.518.34.84.908.866 1.526-.03.575-.03 1.151 0 1.726 0 .664 0 .797.733.531a4.508 4.508 0 002.065-4.447h.2zm-13.323-14.603v-.664a5.297 5.297 0 01-1.266-4.181c0-1.726-.6-2.323-2.398-2.39-.533 0-.533 0-.467.598a15.368 15.368 0 002.665 6.637c.333.398.333 1.394 1 1.195.665-.2-.134-.797 0-1.195h.466zm-21.65 43.344a8.685 8.685 0 004.197-.996c.4 0 .866 0 .666-.797-.2-.796-.8-.331-1.133 0a3.61 3.61 0 01-2.331 0 3.46 3.46 0 01-2.731-2.455s0-.598-.4-.598h-.466a4.707 4.707 0 01-1.6 3.053v.73s2.2 1.394 3.332 1.063h.466zM71.832 38.275c.339-1.973.202-3.998-.4-5.908 0 0-.466 0-.666.531a33.76 33.76 0 01-1.998 3.32 1.853 1.853 0 00.799 2.853c.466 0 1 .465 1.465 0 .467-.464 0-.796 0-1.327l.8.53zm45.031-1.66c.8 0 1.266 0 1.666-1.128.4-1.128 0-1.128-.667-1.527a3.542 3.542 0 00-3.064 0c-.6 0-1.132.797-1.732 1.195-.6.398-.999.93-.533 1.46.467.531.866 1.46 1.932.73a3.468 3.468 0 011.932-.995l.466.265zM138.38 47.9c-.533 0-1.066 0-1.333.399-.155.502.002 1.049.4 1.393 0 0 .4 0 0 .598-.4.597 0 .464.4.464s1.266 0 1.199-1.062c-.067-1.062-1-1.659 0-2.655 1-.995 0-.995 0-1.526s-.666-2.124-.466-3.319c.2-1.195-.8-1.128-1.333-1.128-.533 0-.666.796-.466 1.327a8.93 8.93 0 010 3.518c0 .465 0 .797.4.863.4.066.666 0 .732-.73.067-.73 0-.797.4-.996.533.664-1.399 1.593-.4 2.589l.467.265zm.866-5.509v4.315c0 1.327 0 1.327.666 1.593.77.426 1.667.567 2.531.398v-.797c0-.332-.4-1.194-.533-1.792a5.51 5.51 0 00-2.664-3.717zM59.308 58.32c0 .598.8.73 1 1.394A2.654 2.654 0 0061.52 61.7c.69.44 1.544.54 2.317.272a.866.866 0 00.666-.465s0-.398-.4-.53l-3.996-3.054c-.6-.465-3.065.664-3.131 1.46a.53.53 0 000 .531l3.064 1.328c.067-.93-.733-1.859-.733-2.92zm5.996-23.364c-.533 0-1-.996-1.4 0a10.387 10.387 0 00-.666 4.049c0 .664.4 1.195 1.266.93h.8c.866 0 1.265-.598.866-1.395a10.187 10.187 0 010-5.642v-.53c0-.067-.4 0-.6 0a2.25 2.25 0 00-.266 2.588zm32.374 42.879c.4-.332.8 0 1.2 0h.599c.133 0 0-.465-.4-.598a.936.936 0 00-.932 0l-2.132.465a3.127 3.127 0 00-2.132 1.925v.597c.838.555 1.73 1.022 2.665 1.394h.866s.733-.995.8-1.66a3.773 3.773 0 00-.534-2.123zM99.277 9.6a6.074 6.074 0 00-6.195 2.19c-.333 0-.6.665 0 1.063a4.809 4.809 0 004.463-1.062 9.829 9.829 0 011.732-2.19zM85.021 31.438c-.532-.996-1.199-.664-1.798 0a9.476 9.476 0 01-1.2.531c-1.931.664-2.064 1.128-.799 2.722 0-.664.334-1.328.533-1.992.2-.664 0-.332.333-.332v1.793a3.133 3.133 0 011.932-1.129c1.466 0 1.666-1.46 1.999-2.589.333-1.128 0-.53 0-.53s-.866.597-1 1.526zm27.113 39.826a22.72 22.72 0 002.131-5.31c0-.797 0-1.195-.866-1.328s-1.265.531-1.465 1.327c-.326.97-.75 1.904-1.266 2.788-.6 1.328 1.133 1.527 1.332 2.456l.134.067zM70.433 84.207a24.45 24.45 0 00-1.599-3.518c-.4-.664-1.332-.597-1.998-.863l-1.6-.597h-.532c-.533 0 0 .332 0 .464a11.57 11.57 0 004.863 4.912.601.601 0 00.866-.398zm35.505-69.761a4.142 4.142 0 00-2.264-.597 16.645 16.645 0 00-5.13-.465.801.801 0 00-.866.796c0 .664.533.465.8.465 1.47.194 2.906.596 4.263 1.195.933.398 1.665.597 2.265-.465.6-1.062.932-.73.932-.93zM95.28 93.1c.6 1.328-.932 1.328-1.132 2.124 1.664.398 3.398.398 5.062 0 .667 0 .866-.796 1.2-1.26.333-.466 0-.466-.4-.466h-1.732c-.6 0-1.2 0 0-1.194a5.013 5.013 0 01-2.532 0 1.729 1.729 0 00-1.598 1.66l1.132-.864zm23.981-53.963c-.6 0-1.199.332-1.798 0a1.401 1.401 0 00-1.532.597c0 .597 0 1.062.533 1.527a2.999 2.999 0 002.131 1.327c.8 0 .8-.796 1.2-1.128a1.53 1.53 0 00.466-.465c0-.398.799-.597.466-1.195-.333-.597-.666-.796-1.466-.663zm-49.827 9.027c.866 0 1.265 0 1.332-.996.1-.355.257-.691.466-.995.8-.996 0-1.527-.666-2.058-.666-.531-1.599-.465-1.732.93a2.856 2.856 0 01-1.932 2.455c-.466 0-.4.465 0 .797.4.331 0 .398.4 0 .4-.399 1.332.066 2.132-.133zm72.743-7.766c-.533 0-.733-.398-1-.73-.266-.332-.332 0-.466 0-.133 0 0 0 0 .464a12.66 12.66 0 012.465 4.912s0 .598.466.531c.467-.066 0-.398 0-.73 0-.332 0-1.394-.466-2.124a10.26 10.26 0 00-.933-3.252 10.442 10.442 0 00-2.997-2.855c-.533 0-.666 0-.666.465s.866 1.062.533 1.859c1.732-.598 2.997.132 3.064 1.46zM75.562 69.538c-1.332 0-1.332 0-.733 1.46.6 1.46 1.732 1.527 2.332 2.522.6.996 1.932 0 2.132-.796.2-.797-.4-.598-.667-.93-.266-.331-1.199-.73 0-1.526a.662.662 0 000-.863H77.028c-.267 0-1 .2-1.333.332l-.133-.2zm64.283-15.864a6.654 6.654 0 002.465-2.19c.933-1.46.8-1.793-.8-2.456l-1.198-.399c-.4 0-1.066-.464-.8.598.267 1.062.733 1.327 0 1.925-.733.597 0 0 0 0a2.25 2.25 0 010 1.46s-.266 1.062.333 1.062zm-84.334-1.195a7.674 7.674 0 000 5.045c.533 1.128.8 1.327 1.799.597.999-.73 1.332-1.792.8-2.257-.534-.464-1.533-2.19-2.599-3.385zm79.138 10.554a1.604 1.604 0 011.532 0c.667 0 .933-.332 1.333-.597.4-.266 0-.664 0-.996 0-.332-1.066-1.062-1.599-1.593-.533-.531-.866 0-1 0a20.51 20.51 0 00-.865 4.912c0 .464 0 .597.533.398.533-.2 1.199-1.261.066-2.124zM103.074 16.57a14.627 14.627 0 00-4.863-1.46h-.4a.794.794 0 000 .53c.26.304.577.552.933.73.866.598 1 1.793 1.999 1.992.811.176 1.635.287 2.464.332.666 0 .8 0 .8-.797 0-.796-.333-.663-.866-.663-.834.084-1.658.24-2.465.464h-.533c-.067 0 0-.332.4-.398l2.531-.73zm37.837 51.972c0-.863-.733-1.062-1.066-1.66-.333-.597-.6-.398-1.265.067-.667.465-1.066 1.925-1.799 2.655-.733.73 0 .664.333.664.935.015 1.86.195 2.731.53a.467.467 0 00.666 0l.4-2.256zm-68.68-13.607c0-.996 1.2-1.858 0-2.92a10.126 10.126 0 00-1.132 4.58 8.27 8.27 0 00.466 3.12s.4.597 1.066.597v-.797L71.5 57.922a.802.802 0 01.999 0s0 .465.6 0c.599-.465 0-.465 0-.73a6.614 6.614 0 010-1.925c.311-.388.311-.94 0-1.328-.467-.265-.467.863-.867.996zm70.345-1.261c-.949 1.494-2.169 2.8-3.597 3.85a4.117 4.117 0 00-1.532 1.991c-.6 1.195.933.597 1 1.261.066.664.4 0 .599 0a15.656 15.656 0 003.064-4.912c.2-.995.8-1.46.466-2.19zm-5.862 17.59c-1.065 0-1.132 0-.866 1.128.534 1.13.872 2.342 1 3.584v.332h.4l2.064-3.451c.333-.598 0-.73-.466-.863l-2.132-.73zm-6.661 19.912c.28.005.539-.15.666-.398a29.86 29.86 0 004.13-6.24s.467-.53 0-.73a.668.668 0 00-.866 0 27.165 27.165 0 01-2.997 3.718c-.533.464-1.133.929-1 1.725a4.63 4.63 0 01.134 1.925h-.067zm-36.105-56.42c0 .466-.8.466-1.266.532a1.534 1.534 0 00-1.266.597v.73a5.68 5.68 0 004.264-.597.596.596 0 000-.664c0-.398-.466 0-.733 0h-1.199l1.998-.464a2.935 2.935 0 00-2.331-1.129c-.62-.083-1.2.321-1.332.93 0 .862.732 0 1.132.464.4.465.666-.53.733-.398zM65.97 44.98a2.183 2.183 0 000 1.66c0 .397.732.397.999 0l1.399-3.187v-.664a8.555 8.555 0 01-1.4-2.39h-.465c-.467 0 0 0 0 0-.533 1.793-.533 3.187-.533 4.58zm1.465-8.63c.373-1.27.934-2.478 1.666-3.583 0 0 .4-.399.4-.598 0-.199.599-.796 0-1.195-.6-.398-1.133-.995-1.933-.597-.55.19-.867.763-.732 1.328.132.857.132 1.73 0 2.588-.24.69-.142 1.452.266 2.058h.333zm58.488 58.212c-.866-.796-1.466 0-2.132 0-1.752.15-3.477.53-5.13 1.129 0 0-.465 0 0 .53.63.604 1.46.958 2.332.996a27.944 27.944 0 004.93-2.655zM61.44 66.351l-4.263.996c-1.732.465-1.866.664-1 2.39 0 .664 1.6.996 1.866.465a11.097 11.097 0 013.397-3.85zm47.962 18.719c0-.797-.466-.863-1.065-.531l-1.333.53s-.666 0 0 .465 0 .664.467.598a23.455 23.455 0 004.396-.93c1.266-.398 1.865-1.725 3.198-2.588-1.666 0-2.865.995-4.264.863-1.399-.133-.6 0-.666.663-.066.664-.266.664-.733.93zm11.525 9.027h.932a8.49 8.49 0 014.264 0c.999 0 1.332 0 1.798-.73.467-.73.4-.531 0-.531a2.536 2.536 0 01-1.665-.73 1.002 1.002 0 00-1.066 0 9.34 9.34 0 00-4.263 1.99zM93.148 14.91h-.532s-.8 0-.933.398 0 .464.533.664c.633.443 1.195.98 1.665 1.593.467.796 1.266.53 1.932.398.666-.133 0-.73 0-1.195a1.852 1.852 0 010-.597c0-.73 0-.996-.8-1.195a9.694 9.694 0 00-1.865-.066zm40.569 25.488a1.787 1.787 0 00-.333-1.261c-.4-.531-2.132-1.062-2.199-.73-.066.331-.866 1.593 0 2.522.866.93.866 1.261 1.333 1.925.466.663.466 0 .666 0s.266-1.992.533-2.456zm-41.101 4.713a11.03 11.03 0 00-2.132 0c-.6 0-.933 0-.666.929.16.297.295.608.4.929 0 .863.666.73 1.265.398.6-.332.333-.464.6 0 .266.465 1.132 0 1.732.598a1.403 1.403 0 001.532 0c.333 0 0-.73 0-1.195a1.129 1.129 0 00-.866-1.195c-.533 0-.866.465-.933.996-.066.53-.533 0-.8.398-.266.398-.466 0-.599 0-.133 0 0-.465.4-.664l.067-1.194zm36.238 17.058h.4c.932-.53 1.732-1.527 2.997-.73h.4c.36-.592.36-1.333 0-1.925a2.137 2.137 0 00-2.531-.531 1.46 1.46 0 00-1 1.46c.067.332 0 .996 0 1.726h-.266zm0 3.983v.863c.315.154.684.154 1 0 .732-.399.998-1.195 1.531-1.793a1.523 1.523 0 000-2.057c0-.332-.4-.73-.932-.531-.533.199-1.666.663-1.732 1.725-.067 1.062.533 1.062.466 1.793h-.333zm-5.796 19.381v-.332a3.007 3.007 0 00-2.797 0c-.8.664-.733 1.859-1.6 2.456-.865.598-.465.465 0 .73.467.266.6 0 .867 0a8.729 8.729 0 003.73-2.455l-.2-.399zM80.625 96.486a20.52 20.52 0 005.33 3.651h.465c-.533-.996-1.132-1.925-1.732-2.854a.802.802 0 00-.666 0 25.991 25.991 0 01-3.397-.797zM79.293 33.23a6.26 6.26 0 00-2.265 1.726c-.6.797-.4 1.195 0 1.726.4.53 1.066 0 1.532 0l1.332-.93c.333 0 .733-.398.4-.862-.333-.465-.2-1.129-1-1.66zm31.175 23.497l-.4.531a21.315 21.315 0 01-1.332 4.58s0 .531.333.531a7.082 7.082 0 002.398-.597s.467-.332 0-.465c-.466-.133 0-.53 0-.796a2.647 2.647 0 00-.333-1.992 2.716 2.716 0 01-.732-1.792h.066zM72.631 83.81c-1 .464-.666 1.062 0 1.46.666.398 1.066 0 1.466 0 .4 0 0-.73 0-1.195 0-.465 0-.332-.533-.465-.533-.132-.467-.73 0-.862.466-.133 0-.73 0-.863l-2.132-.664h-.4c.265.802.599 1.58 1 2.323-.733.465-.2-.066.6.266zm59.953-17.988c-1.132.863-1.932 1.925-3.264 2.19v.332c0 .332 0 1.792-.533 2.655-.533.863 0 .664 0 .797.264.169.603.169.866 0 0-.399 1.066-.531.8-.93-.267-.398 0-1.858.799-2.124.8-.265.8-1.792.933-2.92h.4zM102.608 19.69c-.733 0-1 0-.6.862.316.439.543.935.666 1.46-.011.39.179.758.504.974.325.216.74.25 1.095.089.866 0 1.266-.73.866-1.66v-.929c0-.53 0-.73-.733-.73-.731.1-1.474.077-2.198-.066h.4zm31.775 50.246c.2-.319.379-.652.533-.996a6.245 6.245 0 012.465-2.92c.532 0 1.132-.598.732-1.261a1.067 1.067 0 00-1.732 0c-1.132 1.062-2.664 1.991-2.065 4.049-.07.387-.181.765-.333 1.128h.4zm-32.175-46.463a12.13 12.13 0 00-1.532-2.987 1.666 1.666 0 00-1.865-1.062c-.4 0-.733 0-.933.398a.794.794 0 000 .996c1.399.73 2.132 2.19 3.93 2.522l.4.133zm34.506 29.47c.4.4 0 .93.467 1.461.466.531.533.863 1.265.664a.598.598 0 00.533-.598c.4-.995 0-2.057.333-3.12.333-1.061 0 0 0 0a2.072 2.072 0 00-1.87-.028 2.059 2.059 0 00-1.127 1.49l.4.132zm-33.307 43.742a1.394 1.394 0 000 2.59c.895.42 1.743.93 2.531 1.526.6.53 1.133 0 1.4-.531.266-.531 0-.531-.6-.598a4.79 4.79 0 01-2.598-2.39 1.066 1.066 0 00-1.133-.73l.4.133zm-24.114-8.097c0 .53-.533 1.46 0 1.46a3.54 3.54 0 011.732.465c1.132.398 2.331 0 3.464.398 1.132.398 1.132 0 1.598-.996a3.074 3.074 0 01-2.664 0 12.55 12.55 0 00-1.999-.796c-.6 0-1.399-.399-1.732.53-.333.93 0 0-.4 0s0 0 0-.398.667-.398 0-.663zm17.72 9.757a18.904 18.904 0 00-4.198-1.195c-.799 0-1.065.531-1.199 1.195-.133.664.4 1.062 1.066 1.062a15.902 15.902 0 004.597-1.062h-.267zm-1.067 1.726a6.682 6.682 0 01-2.798.597c-.932 0-.932 0-.732.93.2.929 0 .663.732.597.733-.067.866 0 .866.53 0 .532.6.465.733 0a5.178 5.178 0 001.732-2.389c.4-.199.267-.199-.266-.199l-.267-.066zm8.793-15.134v-1.261c0-.398-.4-.797-.866 0-.4.593-1.025 1-1.732 1.128a3.67 3.67 0 00-2.131.93s-.4.398 0 .663a.601.601 0 00.733 0 28.394 28.394 0 013.93-.995c.2-.067.4 0 .333-.465h-.267zm1.866-66.774h-.6c-.133 0-.466-.398-.666 0s0 .597 0 .863c0 .265 1.932.93 2.198.53.28-.409.776-.616 1.266-.53a1.329 1.329 0 001.066-1.328c0-.73-.666 0-1.066-.332a4.345 4.345 0 00-.933 0c-.932-.265-1.932-.398-1.265.797zm16.587 26.55a1.128 1.128 0 00-.333 1.593.794.794 0 010 .598 4.768 4.768 0 001.398 4.779h.334c.333 0 0 0 0-.531a49.96 49.96 0 00-1.4-6.24v-.199zm5.729 30.334c.865 0 2.53-1.593 2.331-2.257a1.862 1.862 0 00-1.266-1.26c-.466 0-1.998.995-1.865 1.327.133.331-.133 1.99.8 2.39v-.2zm-19.985-45.932c-.6 0-.866.597-1.199 1.128-.333.531 0 .863.4 1.129.309.253.52.604.6.995v.465s.399 0 .532-.332a8.355 8.355 0 011.2-2.124v-.863a6.283 6.283 0 00-1.266-.199l-.267-.2zm5.33 29.272a22.365 22.365 0 00-1-4.713h-.666s-.533 0-.333.664a15.62 15.62 0 011.132 4.181c0 .465 0 1.062.533 1.062s.467-.597.6-.995l-.267-.2zm-34.973-11.35c0-.863 0-.797-.866-.664-.866.132-1.466.995-2.399 1.062-.932.066-.4 0 0 .597s.866.797 1.333 1.128c.335.32.864.32 1.199 0 .5-.592.761-1.35.733-2.124zm21.183-22.701h1.2a6.255 6.255 0 01-4.397-3.85c0-.398-.4-.597-.733-.398-.333.199 0 .464 0 .664.706 1 1.351 2.042 1.932 3.12.2.398.799.929 1.665.663l.333-.2zM72.964 42.39a2.655 2.655 0 00-1.399-1.991c-.932-.398-.4.464-.6.73-.799 0-.532.73-.799 1.062a.597.597 0 000 .93c.467 0 .933 1.061 1.533.73.6-.333.932-.864 1.265-1.46zm12.39 4.646c0-.464.933 0 1.266-.53.482-.722 1.04-1.39 1.666-1.992 0 0 .4 0 0-.597-.4-.598-.4 0-.667 0-1.465 0-2.131 1.26-3.197 1.792-1.066.53-.466.53 0 .863.466.332.466.464.933.464zM74.83 88.72a22.095 22.095 0 002.332 3.585 1.07 1.07 0 001 0v-.531c0-.531 0-2.257-1.733-2.589-.545-.11-1.08-.266-1.599-.465zm55.823-8.496a3.912 3.912 0 00-.799-1.46s-.333-.996-.866-.597c-.533.398-1.199.863-1.066 1.659a4.58 4.58 0 001.4 1.991h.532c.133 0 .533-1.26.8-1.593zM83.29 28.518l-1.398.862c-.933.73-2.332.531-2.931 1.793-.6 1.26-.533.53-.4.862.133.332.666 0 1 0 .969-.367 1.887-.858 2.73-1.46a2.121 2.121 0 001-2.057zM107.271 70.4a2.122 2.122 0 000-3.585h-.333a3.05 3.05 0 00-1.333 2.722c.125.363.426.638.8.73.4 0 .4 0 .4-.531s0-.863.466-.73 0 .53 0 .863c.009.177.009.354 0 .53zm11.99 7.567a10.59 10.59 0 003.598-2.656s.466-.73 0-.995c-.467-.266-.933-.664-1.266 0a9.62 9.62 0 00-2.332 3.65zm14.19 5.907c-.733-.332-1.067 0-1.333.531a4.662 4.662 0 01-2.864 2.124c-1.266 0-.933.664-.733 1.327.2.664 0 .465 0 .73 0 .266.4 0 .4 0s0-1.061.932-.929c.933.133.333 0 .4 0a14.01 14.01 0 002.864-3.783h.333zM86.82 69.87a8.8 8.8 0 01-2.2-1.328c-.466-.398-1.065-.597-1.465 0-.4.598.866 2.323 1.4 2.522.532.2 1.398-.597 2.197-1.194h.067zm13.322-12.678c0-.597-.333-1.195-.866-1.261-.533-.067 0 .597 0 .929 0 .332 0 0-.333.398l-1.599 2.589c0 .332-.533.73 0 .996.533.265.8 0 1.066-.465.212-.844.502-1.666.866-2.456a.995.995 0 00.466-.73h.4zm9.46 10.686c0-.398.399-.663.599-.995.2-.332.333-.598.466-.93.666-1.393.6-1.393-.866-1.46-1.465-.066-1.532.465-1.399 1.394.004.74.29 1.453.8 1.991h.4zm-2.932-3.053c-1.066.797-1.665 1.925-2.798 2.456-1.132.531-.932.465-.6.93a1.4 1.4 0 002.266 0c.451-.725.852-1.479 1.199-2.258a.928.928 0 00-.466-1.128h.4zm13.323-.664c.333 0 .866 0 .466-.663l-2.464-3.186h-.4c-.4 0 0 0 0 .464a5.027 5.027 0 000 1.991c.245.742.89 1.282 1.665 1.394h.733zm13.99 18.917h.399a6.636 6.636 0 002.398-3.65.4.4 0 00-.466 0c-.6 1.195-1.732 1.792-2.665 2.655-.932.863-.666 0-.6.664.067.663-.133.199.334.331h.6zm-4.997-45.135c0-.73 0-1.527-1.266-1.46-1.265.066-1.798.73-1.798 1.26 0 .532 0 1.926 1.199 1.926s1-.996 1.266-1.726h.6zm-3.997 3.186c.533 1.925 1.599 3.65 1.999 5.642 1.066-1.195 1.132-1.925 0-2.92a10.171 10.171 0 00-2.598-2.722h.6zm3.864-10.554s.533-1.062 0-1.26c-.514-.2-1.085-.2-1.599 0-.4 0 0 .73 0 1.127.033.509.033 1.019 0 1.527 0 .597.333.664.8.597.466-.066.4-.862.2-1.99h.599zM112.6 96.42h.466c.533 0 1.333 0 1.466-.465.133-.464-.733-.464-.933-.929-.2-.465 0 0-.333 0a1.534 1.534 0 00-2.331 0 .53.53 0 000 .863l1.665.531zm-8.727-69.827c0-.399.733-.531.533-.996-.2-.465-.932 0-.932.531s-.733 1.46-.733 2.39h2.065c1.266 0 1.332 0 1-1.394a4.299 4.299 0 000-.863 3.408 3.408 0 01-1.933.332zM72.098 74.184s-.466 0 0 .398a.663.663 0 010 1.062v.531c0 .067.866 1.195 1.266 1.793.4.597.466.796 1 .331.532-.464 1.065-.331.465-1.062-.6-.73-1.398-1.858-2.065-2.787l-.666-.266zm48.762-56.552c0-1.394-1.465-1.328-2.331-1.66-.866-.331-1.133.399-1.466.797-.333.398 0 .465.333.531.915.197 1.808.486 2.665.863.733.332.8.066.8-.531zm-36.904-5.576a35.031 35.031 0 014.463 0h.733c.066 0-.333-.995-.6-1.062a4.007 4.007 0 00-4.596 1.062zm5.795 24.759a5.279 5.279 0 00-4.596.53s-.6 0-.467.598c.134.597.467 0 .733 0 .267 0 1.799-.597 2.798 0 1 .597 1.332-.2 1.532-1.128zm45.831 5.243a5.82 5.82 0 000-1.526s0-.93-.466-.93a.8.8 0 00-.8.863 32.474 32.474 0 000 3.65s0 .465.4.4c.4-.067 0 0 .333-.466.297-.626.478-1.3.533-1.99zM94.414 68.144c.492.542 1.248.76 1.954.563a1.928 1.928 0 001.377-1.492v-.266a2.403 2.403 0 00-1.666-.664c-.466 0-1.065 0-.999.863.067.863-.4.73-.666.996zM114.4 87.127c.4 0 .932 0 .866.664a.861.861 0 01-.272.708.868.868 0 01-.728.221h-.866-.866c-.133 0 0 .465.4.863.4.399.4 0 .666 0a2.27 2.27 0 001.642-.566c.45-.398.722-.959.756-1.558 0-.332.666-.73.4-1.062-.267-.332-.8 0-1.2 0a1.2 1.2 0 00-.998.465l.2.265zm-.8-67.172c.866 0 2.198 0 2.332-.664.133-.663-1.266-.929-2.132-1.062-.866-.132-1.532.863-1.399 1.394.133.531.8.133 1.2.332zM75.695 36.682v-.664c0-.133-.4 0-.532 0l-1.2 1.062c-.4.398-1.199.73-.999 1.394.2.664 1.066.398 1.599.664.272-.863.653-1.688 1.132-2.456zm11.791-8.496c0-.399 0-.863-.333-.797a3.205 3.205 0 00-2.198.664.993.993 0 000 1.327c0 .664.8 0 1.199 0h.6c.599 0 .666-.663.732-1.194zm3.264-8.563a2.463 2.463 0 00-2.131 1.66.464.464 0 000 .663c.666.399 1.132 0 1.598 0 .467 0 1-.53.933-1.327-.067-.797.133-1.062-.4-.996zm0 50.18h.733c.666 0 .866-.597 1.066-1.062.2-.464-.333-.53-.6-.73-.266-.199-1.598 0-2.131.664-.533.664-.733 0-.6.664.133.663.6 0 .933 0l.6.464zm-.666-22.767c0-.53 0-1.062-.533-1.526-.533-.465 0 0-.6 0-.599 0-1.265 1.46-1.665 2.39-.4.929 0 .597 0 .53 0-.066 1.932-1.394 2.798-1.394zM64.438 32.633l1.532-2.124v-.598a1.804 1.804 0 00-1.532 0s-1.2 0-1.066.664c.133.664.2 1.527 1.066 2.058zm65.482 9.292c.333 1.262 0 2.722 1.265 3.784 1.266 1.062.4.398.533 0 .134-.398.666-1.062.333-1.66a6.65 6.65 0 00-2.131-2.124zM109.402 93.5c-1.199-1.99-2.93-1.128-4.463-.995h-.466c1.568.631 3.239.969 4.93.995zm-36.77-13.275a12.65 12.65 0 01-1.866-4.845c0-.398-.733-.465-1.2-.465-.465 0 0 .332 0 .531a21.629 21.629 0 003.065 4.78zm-4.53-26.55c0-.465-.334-.863 0-1.128.332-.266.532.331.799.663.266.332 0 .465.533 0a4.5 4.5 0 00.4-2.655.535.535 0 00-.467 0 1.798 1.798 0 00-1.532 1.129c0 .796-.466 1.46.266 1.991zm52.358 29.338a4.473 4.473 0 00-5.262 1.46h1.932c1.265-.066 2.131-1.593 3.33-1.327v-.133zM71.365 72.99L69.9 70.401a6.024 6.024 0 00-.8 2.92c0 .598.933.398 1.333.797.4.398 0 .332.533 0s0-.399 0-.598c0-.199-.733-.398-.8-.929-.066-.53.6.398 1.2.398zm14.59 23.83l1.265 3.185s0 .797.533.664a.733.733 0 00.666-.93 3.907 3.907 0 00-.466-1.327c-.267-.664-.467-1.792-1.999-1.593zM71.831 32.234l.666 4.115c.466 0 .533-.531.666-.797.133-.265 1.266-.73.933-1.393a4.858 4.858 0 00-1.466-1.262l-.8-.663zm37.57-8.496c0 .597 0 1.194.6.929.6-.266 1.532 0 1.865-.797.333-.796-1-1.925-1.199-1.925-.2 0-1.266 1.195-1.266 1.793zm14.722 54.295h-.333c0 1.062-.932 1.858-1.132 2.854-.2.996 0 .797.6.73h.932c.4 0 .6 0 .533-.464l-.6-3.12zM75.23 64.228c.333.332-.666.995 0 1.128.666.133 1.266.863 1.732.398.466-.464 0-.995-.533-1.526.022-.154.022-.31 0-.465 0 0-.466-.996-.866-.73-.4.265-1.465.597-1.132 1.593.333.996.4 0 .533 0s0-.465.266-.398zm25.713 35.909c-.999 0-1.199.398-.799 1.195a2.599 2.599 0 002.065 1.327.534.534 0 00.6-.464c.133-.797-1.4-2.058-1.866-2.058zm6.329-38.564c.19-.437.413-.858.666-1.261a6.62 6.62 0 001.199-3.983s0-.597-.333-.597-.4 0-.4.53a7.149 7.149 0 01-.733 2.656c-.333.53-1.065 1.394-.4 2.323v.332zm-7.061-14.537v-.464s-.866-.73-1.333-1.129c-.466-.398-.8 0-.999 0-.2 0 .533 1.062.733 1.66.2.597 0 .995.932.863.933-.133.467-.465.667-.93zm-12.058-8.363a8.42 8.42 0 00-3.464.531s-.866 0-.533.531c.334.531.667 1.394 1.133 1.128a18.179 18.179 0 002.864-2.19zm38.77-10.288c.4 0 1.266.398 1.332-.598.067-.995-1.532-1.99-1.665-1.858a3.18 3.18 0 00-.866 2.124c.2.73.8.2 1.2.332zM92.216 83.742c0-.597 0-.73-.666-.73s-1.932 1.261-1.799 1.726c.133.464 1.332.995 1.466.93.133-.067.799-1.262.999-1.926zm-12.39-69.03a10.269 10.269 0 00-3.331 1.858v.53c0 .2 2.265 0 2.398-.53a5.435 5.435 0 01.933-1.859zm-3.464 39.825a5.828 5.828 0 00-.8 2.19c-.149.44.05.921.466 1.129h.866c.267 0 .933-1.062 0-1.792l-.532-1.527zm1.465 0c.1-.233.1-.497 0-.73a1.525 1.525 0 01.666-1.46c.4 0 .533-.598 0-.996a.6.6 0 00-1.066 0c-.394.55-.75 1.127-1.065 1.726 0 0 1.199 1.128 1.465 1.128v.332zm-19.984 0a34.935 34.935 0 01-1.066-5.377c-1.665 1.593-.733 3.186.8 4.514l.266.863zm37.77-21.174c0 .398.733.465 1.066.664.333.199 1.2 0 1.599-.797.4-.796-.666-.464-.8-.863-.133-.398 1 0 .533-.663-.466-.664-.932 0-1.399 0-.466 0 .6 0 .533.53-.066.532 0 0-.466 0s-1.066.067-1.332.532l.266.597zm5.063 41.883c0-1.261 0-1.394-.666-1.394s-1.666 1.328-1.599 1.792c.067.465.866.598 1.466.664.6.066.732-1.062.532-1.66l.267.598zm-11.924 1.527c0 .663-1.266 1.062-.466 1.726a24.806 24.806 0 003.197 1.792c-1-1.925-2.198-2.788-2.998-4.116l.267.598zm-23.715-32.59s.4 0 0 0a6.62 6.62 0 01.933-2.921c0-.465 0-.797-.8-.531-.8.265-1.399.597-1.132 1.128.223.796.56 1.556 1 2.257v.066zm62.085-2.457a.926.926 0 00.666 1.328c.933 0 .466-.664.733-.996.026-.154.026-.31 0-.464 0-.598.333-1.328-.333-1.793-.666-.464-1.2.863-1.266 1.593l.2.332zm-41.634 31.86c-.8 1.063 0 1.66.466 2.39.466.73 0 .73.6.598.6-.133.732-.73.932-1.195.2-.465 0-.598-.4-.797l-1.598-.995zm38.636-31.395a5.892 5.892 0 00-.533-1.792s-.533-.73 0-1.062c.533-.332 0-.73 0-1.195-.4 0-.333.597-.466.863-.133.265 0 1.527 0 2.323 0 .797.333.93 1 1.128v-.265zm-14.122 31.927a5.065 5.065 0 00-3.597 2.256.596.596 0 000 .797h.733a15.495 15.495 0 002.864-2.788v-.265zm-6.062-31.263c-.8 0-1.066 0-1.132.863a1.192 1.192 0 001.132 1.26 1.127 1.127 0 001.266-1.062c0-.862-.4-1.194-1.266-1.061zm16.52 49.848l-3.197.398s-.666 0-.466.531.466 1.261.799 1.062a5.796 5.796 0 002.864-1.991zm-31.042-53.1c1.062.132 2.136.132 3.198 0 0 0 .866 0 .799-.465a.794.794 0 00-.8-.93c-1.132.332-2.264.2-3.197 1.262v.132zm39.969 16.859c.733 0 1.732-1.593 1.465-2.257a.733.733 0 00-1.265 0 9.209 9.209 0 00-.8 1.859c-.066.265.4.265.733.265l-.133.133zm3.664-3.518a4.444 4.444 0 00-1.6 2.655c0 .53 0 .796.734.863.732.066.866 0 .866-.465v-3.053zm-28.378 1.726c0 .464 0 .597.4.464a2.189 2.189 0 001.332-2.456c0-.597-.533-.796-1.066 0-.533.797-.333.996-.533 1.859l-.133.133zm29.577 1.46v-.598c.466-1.26 0-2.655.333-3.916 0 0 .333-.597 0-.73s0 .398-.4.531 0 1.859-.466 2.722a1.59 1.59 0 00.666 1.858l-.133.133zm7.26 2.058c-.799 0-.732.73-.999 1.062-.587.697-1.1 1.454-1.532 2.256 0 .332-.333.797 0 1.062.333.266.6 0 .8-.464a18.752 18.752 0 001.865-4.05l-.133.134zm.4 6.969c-.4 0-1.065 0-1.332.664-.266.663 1.266 1.327 1.665 1.327.4 0 .933-.398 1-.929.066-.531-.467-1.128-1.2-1.195l-.133.133zm-38.503-35.378l-.866.398s-.466 0 0 .531.533.796.733.465c.2-.332.8 0 1.199 0h.8c.266 0 .332-.73 0-.996a2.74 2.74 0 00-1.866-.398zm-21.516 32.59v-2.655-.664a2.139 2.139 0 00-1.266 0s-.466.465 0 .797a4.905 4.905 0 001.266 2.522zm37.97-29.935c1.066 0 1.399-1.129 2.331-1.527.933-.398 0 0 0 0a.535.535 0 00-.6 0l-1.998.597s-.732 0-.6.598c.134.597.267.464.867.332zm-38.503 4.248c0-1.328-.6-1.062-1-.863-.38.28-.737.59-1.065.93 0 .397-1.133.73-.866 1.194.266.465.799 0 1.265 0h.4c.2-.863 1.132-.797 1.266-1.261zM70.566 53.674a10.8 10.8 0 011.133-2.522.86.86 0 00-.467-1.129c-.466 0-.8 0-.733.73.067.73-.999 1.726 0 2.722 1 .995-.066.199.067.199zm54.757 20.776c.333-.465 0-.863 0-1.195 0-.332 0-.73.533-.398.533.331.6 0 .733 0a2.382 2.382 0 000-2.124c-.933 0-1.132.796-1.399 1.593-.266.796-.266 1.26.133 2.323v-.2zm-13.989-2.456L110.07 70.6a12.879 12.879 0 00-1.4 1.925s.667.464 1.066.464a2.068 2.068 0 001.6-.796v-.2zM92.95 92.437a2.203 2.203 0 00-1.799.664s-.4.531 0 .93c.4.398 1.399 0 1.932-.664.533-.664.733 0 .6-.664-.134-.664-.467.066-.733-.066v-.2zm26.645-39.493l-1.199-1.46s-.466-.73-.932-.598c-.467.133-.4.664-.467.996-.066.332 0 .995.667.93a2.8 2.8 0 011.598.862s.533 0 .6-.531l-.267-.2zm-46.963-5.908c1.532-.663 1.599-1.924 1.865-3.12a.463.463 0 000-.597c-.4 0-.466 0-.533.332-.066.332-.866.93-.333 1.66.533.73 0 0 0 0s-.999.796-.999 1.725zm46.63 44.273a10.07 10.07 0 004.397-2.39c-1.7.003-3.31.757-4.397 2.058v.332zm-12.656-71.221c-.533 0-1.266-.332-1.2.664.067.995 0 1.128.467 1.46.466.332 1.732-1.527 1.665-1.859-.066-.332-.6.133-.932-.265zm22.449 69.827a6.67 6.67 0 00-1.865.93.73.73 0 00-.4.597c0 .332 0 .398.6.464.599.067 1.931-.331 1.665-1.99zM92.949 87.99c.466.332 1.265 0 1.265.398 0 .399.8.863 1.333.996.232.108.5.108.732 0v-.796c0-.266-1.665-1.328-3.33-.598zm24.114-22.966c-.333 0-.533 0-.666.664s0 .863.533 1.195a.534.534 0 00.866 0c.333-.531 1.332-.73 1.066-1.328-.267-.597-1.066-.265-1.799-.53zM94.148 20.486a18.7 18.7 0 011.798 3.186s.333 0 .533.465a.4.4 0 00.533 0v-.465c-.466-1.261-1.599-1.991-2.198-3.186h-.666zm37.237 33.188l1.865-3.385v-.531c0-.133-.466 0-.666 0a4.57 4.57 0 00-1.199 3.916zm-3.863-20.776a7.47 7.47 0 00-1.6.863s-.399.93.4 1.129a1.797 1.797 0 001.866-1.527c.066-.398-.2-.332-.666-.332v-.133zM85.954 54.537c0-.863 0-.863-1-.863-.998 0 0 .93-.399 1.394-.4.464 0 .796.666.796s.267-1.128.733-1.327zm54.557-18.718c0-.996-1.265-1.991-2.065-1.726a.599.599 0 00-.466.398v.465l1.799 1.062s.666.2.666-.2h.066zm-38.17 26.55l.467-3.186c-.933 0-.733.996-1.133 1.46-.4.465-.866 1.394.6 1.793l.066-.067zm0-36.772s0-.465-.466-.398c-.466.066-1.532 0-2.065.53-.03.532.296 1.02.8 1.196a3.793 3.793 0 001.465-1.262l.266-.066zm28.511 8.164c0-.398 0-.398-.466-.398s-.866 0-1.066.398c-.2.399 0 .863 0 1.261 0 .399 0 .465.4.73.4.266 0 0 .333 0s.2-1.99.8-1.99zM108.936 40.4l.666 2.323c0 .597.666.465 1.066 0s.4-.597 0-.93a3.994 3.994 0 00-1.732-1.393zm4.463 41.75a4.266 4.266 0 003.198-1.925v-.464a.4.4 0 00-.6 0 8.663 8.663 0 01-2.93 1.925l.332.464zM90.151 71.927c.4 0 .866 0 .999-.332.133-.331 0-.53 0-.53s-1.066-.664-1.599 0c-.533.663 0 .862 0 1.26v.73h.333c.8-.597.333-.73.267-1.128zm36.638 4.381v1.66c0 .597.333.663.6.464.435-.41.736-.943.865-1.527 0-.331-.666-.597-1.132-.597h-.333zm-56.756-35.91c0-1.194-1.332 0-1.399-1.128 0 0-.6.598-.6.863 0 .266.4 1.46 1 1.527.6.066.666-.597 1-1.261zm49.695-21.306a11.213 11.213 0 00-3.198-1.327.535.535 0 00-.533 0v.464a5.944 5.944 0 003.73 1.129v-.266zm7.127 68.102c-.284.535-.529 1.09-.732 1.66a.597.597 0 00.333.663c.4 0 .6 0 .932-.398.34-.27.494-.707.4-1.129a1.6 1.6 0 00-.933-.53v-.266zM111.734 31.77c-1.066 0-1.399 1.195-1.799 1.925-.4.73 0 .796.533.93.533.132.4 0 .467-.532.066-.53.466-1.46.799-2.323zm-30.11 6.107h-.466c-.825.51-1.724.89-2.665 1.128v.465c0 .464 0 .464.4.398a9.137 9.137 0 002.864-1.527l-.133-.464zM70.233 49.16v-.331c-.643.033-1.288.033-1.932 0-.466 0-.533.331-.666.597a.993.993 0 000 .996h.8l1.798-1.262zm40.435 14.802c.666 0 .8-.332.866-.863.067-.53 0-.398-.333-.332l-2.465.399a.466.466 0 00-.4.332h.4c.665.049 1.318.206 1.932.464zm-7.46 2.987a19.94 19.94 0 001.598-1.726s.533-.53 0-.796a.6.6 0 00-.933 0 6.106 6.106 0 01-1.265 1.858s.266.266.6.664zm17.053-29.072a5.235 5.235 0 00-1-2.124h-.333c0 .331-.732.663-.4.995.334.332.933 1.195 1.8 1.195.865 0-.067-.133-.067-.266v.2zM89.95 82.348c-.6 0-1.665 0-1.332-1.327-.335.309-.527.74-.533 1.195 0 0 0 .796.6.796.457-.145.886-.37 1.265-.664zm47.563-3.982l1.265-2.523c0-.398.733-.929.334-1.128-.4-.199-.467.465-.733.73-.289.36-.556.737-.8 1.129-.4.464-.466.929-.066 1.792zM81.558 41.793h.466c.333 0 .466 0 .466-.465v-1.062c0-.265-.6 0-.733 0-.37.48-.85.867-1.399 1.128 0 0-.333.332 0 .531.334.2.334 0 .533 0a.869.869 0 01.667-.132zM112.6 51.35a2.652 2.652 0 00-.733-1.328.467.467 0 00-.666 0c-.333.465 0 .863 0 1.328 0 0 0 .664.466.597.399-.01.759-.24.933-.597zM83.69 62.9c.203.57.448 1.124.732 1.659 0 0 .333.663.733.464.4-.199.6-.53 0-.995-.6-.465-.4-1.46-1.466-1.129zm31.375-6.638a3.176 3.176 0 000-2.722.735.735 0 00-.533 0c-.1.14-.1.326 0 .465.2.73.066 1.66.533 2.39v-.133zm9.526-26.55l-1.133 1.393c-.333.465 0 .797 0 1.129a.4.4 0 00.533 0c.533 0 .333-.598.333-.93l.267-1.593zm-38.637-9.227c0 .465.333.398.4.664.066.265.733.464.999 0v-.465s.333-.597 0-.73-.733 0-.866 0 0 .531-.533.531zM79.293 95.69a4.365 4.365 0 010-1.261c0-.93 0-.93-.667-.93a.601.601 0 00-.799 0v.664l1.466 1.527zm-4.53-37.967a5.556 5.556 0 000-.664s0-.597-.4-.53c-.4.066 0 .331 0 .597v1.924c0 .067.4 0 .6 0 .2 0-.2-.796-.2-1.327zm6.262 14.669h1.199s-.666-.465-1.066-.73a5.535 5.535 0 00-1.066-.598h-.6c-.066 0 1.066 1.328 1.533 1.328zm25.513-13.275c.406-.773.698-1.6.866-2.456v-.465c0-.066-.4 0-.533 0a2.122 2.122 0 00-.333 3.12v-.2zm-12.057 18.32v-.399h-.467s-.4.531-.866 0a.334.334 0 00-.466 0 .926.926 0 000 .93s0 .331.4 0a7.817 7.817 0 001.399-.332v-.2zm-25.913-23.1a8.01 8.01 0 001.132 3.651 4.04 4.04 0 00-1.132-3.65zm47.762 15.997l-2.198 1.66c-.333 0-.666.464-.333.863.333.398.6 0 .8 0 .2 0 1.132-1.793 1.731-2.523zm-13.656 1.726c.02.86.178 1.712.467 2.522h.4a3.904 3.904 0 00-.4-2.588l-.467.066zm13.99 5.376l-3.465 2.456a4.596 4.596 0 003.464-2.456zM103.34 32.102c-.532 0-.532 0-.666.53-.133.532 0 .4.4.4s0 0 .4.397c.4.399.4.598.732 0 .334-.597.4-1.26-.932-1.327h.066zM83.956 95.424c-1.333-.663-2.532 0-3.73-.663.665 1.062 1.931 1.327 3.73.663zm41.434-11.748c0-1.66-1.133-1.261-1.932-1.46-.8-.2-.533 0-.6 0a.465.465 0 00.4.464c.738.271 1.451.604 2.132.996zm-38.77 8.43a2.605 2.605 0 00-2.664.464c1.598.93 1.998.93 2.664-.464zm45.098-60.602c0-.464 0-1.062-.732-.995-.733.066-.533.93-.733 1.394-.2.464 0 .464.533.53.533.067.732-.464.932-.929zm-2.93 30.334c.332-.597-.4-.73-.667-.863-.266-.132-.8.399-.733.73.067.332.467 1.195.933 1.262.466.066.4-.598.466-1.129zm-4.93-9.16l.466 1.992s0 .53.466.53c.467 0 0 0 .333-.464.334-.465-.333-1.527-1.265-2.058zm-54.89 17.855v-.597c0-.066-.8 0-1 0-.2 0 0 .597 0 .73s.4 0 0 .465c-.4.464-.466.73 0 .863.466.132.466-.465.466-.863.22-.158.401-.362.533-.598zm44.964-32.524a1.4 1.4 0 001.4.664.933.933 0 00.798-1.062c0-.398-.532 0-.865 0a3.54 3.54 0 00-1.333.398zm11.125 32.325c.318-.802.477-1.659.466-2.522 0-.398 0 0-.533-.332s-.466 0-.4 0c.067 0-.466 2.058.467 2.854zm-58.488-2.19c-.066-.531-.133-1.195-.6-1.195-.466 0-.999.465-.932.797.067.332.866.597 1.332.796.467.2.134-.199.2-.398zm61.02-43.41h-.334c.067 0 .333 1.394 1 1.726a.4.4 0 00.468-.016.397.397 0 00.13-.449 2.128 2.128 0 00-1.265-1.26zM95.812 96.42l2.065.398c.933 0 1 0 1.332-.929-.999.465-2.065 0-3.397.531zm-2.398-15.797c0 .53 0 1.26.4 1.393.722.221 1.508.044 2.065-.464-1-.067-1.532-.73-2.465-.93zm41.634-43.875a.596.596 0 00-.533-.664c-.666 0-.8.664-.8 1.129 0 .464 0 .863.667.796.666-.066.466-.863.666-1.26zm-69.08 12.545a4.432 4.432 0 000 1.859c.334 0 .733-.531.6-.93-.133-.398-.066-.663-.6-.929zm32.375 20.311l-2.331 1.593v.531c.733-.664 2.065-.664 2.331-2.124zm2.465-17.921c0 .398 0 .796.533.73.533-.067 1 0 1-.73s-.6-.73-1-.797c-.4-.066-.533.465-.533.797zm31.775 17.457a2.976 2.976 0 000-.531v-.73c0-.067-.4 0-.533.597s0 .929 0 1.394c0 .464 0 .332.333.332a.332.332 0 00.2-.332 2.447 2.447 0 000-.73zm-6.661.929c.333-.531.6-1.129.866-1.66.266-.53 0-.597 0-.73 0-.132-.6 0-.6.598l-.266 1.792zM112.6 47.036c-.333 0 0-1.062-.666-1.062s-.8 0-.6.598c.2.597 0 1.128.8 1.062.799-.067.466-.266.466-.598zM98.544 40.4h2.332c.733 0 0 0 0 0v-.332a1.603 1.603 0 00-2.332.332zm37.57 16.461a1.197 1.197 0 00-1.132 1.195s0 .53.4.398c.4-.133 1.2 0 1.2-.796 0-.797 0-.93-.467-.996v.199zm-17.386 12.147a11.496 11.496 0 00-2.53 2.854 8.639 8.639 0 002.53-2.854zm-28.044-4.182a2.273 2.273 0 00-1.599 0h-.466v.465c0 .066 1.532.132 2.065-.465zm17.586-17.789a2.514 2.514 0 000-2.522c0 .465-.733.73 0 1.129.733.398 0 .796 0 1.393zM92.616 66.95h-.933s.6.797 1.132.863c.533.066.467-.531.6-.863.133-.332-.267 0-.8 0zm-1.2 6.24l1.466-.797a.53.53 0 000-.73s-.533-.465-.733 0c-.2.464-.866.398-.666 1.327l-.067.2zM122.86 44.38a5.23 5.23 0 00-.667-2.256h-.4a4.904 4.904 0 001.067 2.256zm.333 29.206c0-.863 0-1.726-.733-1.925-.733-.2-.333.53-.4.93-.066.397.666.995 1.133.995zM72.632 40s-.667-.399-.734 0c-.066.398.733.398.733.398.446.196.954.196 1.4 0a1.536 1.536 0 00-1.4-.398zM95.08 91.906c.97.173 1.962.173 2.931 0-1.066-.398-2.065-1.327-2.997 0h.066zm16.387-26.218a5.965 5.965 0 00-1.465 3.053 6.23 6.23 0 001.399-3.053h.066zm10.326-48.189c-.4 1.062 0 1.593.8 1.792.798.2 0 0 .465 0 .467 0 0-.398 0-.464-.404-.48-.85-.925-1.332-1.328h.067zm-17.187 42.813c-.6.53-.533 1.128-.733 1.659-.2.531-.4.398 0 .531s.467 0 .667 0 .333-1.195.066-2.19zM89.218 79.693c.45.57.99 1.064 1.599 1.46h.8a.53.53 0 00-.4-.929c-.733 0-1.266-.464-1.999-.53zm1.999-26.019s0 .664.333.597c.333-.066 1.066-.597 1.066-1.128 0-.531 0-.398-.533-.465-.533-.066-.866.399-.866.996zm-1.4 29.736h-.799c-.266 0-.799 0-.866.465-.066.465 0 .863.4.996.4.132.533-.332.733-.531.2-.2.533-.73.533-1.062v.132zm12.924-47.591a9.153 9.153 0 01-1.932-.465h-.733s.4.465.8 0a5.747 5.747 0 011.865.332v.133zm-5.862 47.724h1.399c.466 0 .533 0 .733-.597.2-.598 0-.399 0-.531 0-.133-.533 0-.8 0-.266 0-1 .464-1.332.995v.133zm31.642-.332c-.8-.398-1.466-.796-2.065 0-.6.797 0 .73.333.73s1.266-.265 1.732-.863v.133zm-29.244-22.9a8.462 8.462 0 001.399-.929c.4 0 0-.663 0-.995 0-.332 0 0-.4 0s-.999.796-.999 1.925zm0-22.833a4.01 4.01 0 00-2.531 0v.399a.468.468 0 00.466 0 4.408 4.408 0 002.065-.598v.2zm7.194-1.66v.466a.535.535 0 00.533 0c.178-.206.334-.428.467-.664v-.73a.468.468 0 00-.533 0c-.4 0 0 .398 0 .597a2.74 2.74 0 00-.6.133l.133.199zm-4.53-1.327c0-.929-.332-1.394-.932-1.593-.6-.199-.333 0 0 .465s0 1.195.866 1.328c.866.132-.067-.465-.067-.399l.134.2zm14.256 60.668v-.996a.6.6 0 00-.733-.398.665.665 0 00-.6.53c0 .4 0 .466.467.598.466.133.2.266.733.067l.133.199zm-35.639-38.63a1.327 1.327 0 00-.666.995s0 .73.533.664c.533-.067.8 0 .666-.598-.133-.597.067-.863-.533-1.062zM112.6 81.02c-1 .398-1.932 0-2.332.995-.4.996 0 .664 0 .465a4.132 4.132 0 002.332-1.46zM127.72 66.02v-.797a1.064 1.064 0 00-.932.996c0 .531.533.73.932.73.4 0-.2-.664 0-.93zm-30.31-49.981a2.58 2.58 0 000 1.66c0 .53.534.398.867 0 .333-.399 0-.465 0-.73l-.866-.93zM75.497 41.793s-.866 0-.8.53c.067.532.6.93.933.93.333 0 .666-.664.733-.996.066-.332-.6-.199-.866-.464zm57.888 5.31c-.8-.067-.8-.598-1.2-.067-.4.531 0 .93 0 1.062 0 .133.534-.464.8-.73.266-.265.266-.332.4-.332v.067zM107.87 16.039a1.534 1.534 0 00-2.331 0c.77.136 1.56.136 2.331 0zm-38.57 53.1a5.861 5.861 0 00-1.931-1.393c-.067 1.327.666 1.593 1.931 1.46v-.066zm25.714-38.033c0-.398 1.132 0 1.132-.597 0-.598-.666 0-1.066-.465-.4-.464-.533 0-.533.398 0 .399-.066.598.467.664zm37.037 2.655c-.932.465-.866 1.593-1.598 2.19 1.065-.198 1.265-1.194 1.598-2.19zm-26.645-.664c-.667.664-.6 1.394-.8 1.992h.333c.333 0 1-.93 1-1.859l-.533-.133zM79.959 80.224c0 .664 1.066.73 1.465 1.261.4.531 0 0 .467 0 .466 0 0-.398 0-.53-.5-.522-1.21-.79-1.932-.73zm-.666-4.779a.801.801 0 00.866-.73s0-.398-.467-.332c-.466.067-1.066 0-1.132.73-.067.73.733.332.733.332zM97.212 13.85c0-.399-.466-.399-.8-.399-.333 0-.732 0-.732.465s.4.53.8.465a.666.666 0 00.732-.531zm42.034 41.617l-1.799.664c-.4 0-.4 0 0 .597.4.598 0 .465.333 0 .333-.464 1.466-.398 1.466-1.26zM83.289 40.4v1.195a.331.331 0 00.4.398h.6c.133 0 0 0 0-.465-.358-.353-.692-.73-1-1.128zM62.44 63.365l.933 1.195h.666c.266 0 0-.531 0-.73 0-.2-.866-.598-1.599-.465zm37.504 1.526s0-.597-.6-.597c-.44 0-.799.357-.799.797 0 0 0 .796.6.73.417-.14.724-.497.8-.93zM86.62 67.68c0-.53 0-1.128-.466-1.726-.466-.597 0-.597-.6-.331-.6.265-.533.398 0 .796l1.066 1.261zm19.318 5.908c-.333.73-1.199.929-1.532 1.725 1.532-.132 1.532-.597 1.532-1.725zm15.388-26.55c-.391.821-.232 1.799.4 2.455a4.698 4.698 0 00-.466-2.854l.066.398zm-12.99 25.156l1.066-2.124v-.465a.468.468 0 00-.466 0c-.2.93-.932 1.527-.6 2.589zm9.193-33.188s.933 0 .866-.597c-.066-.598-.6-.598-.999-.664-.4-.067-.4.53-.466.796-.067.266.266.332.6.332v.133zm-33.307 47.79a1.864 1.864 0 00-1.199-.929.535.535 0 00-.733.332s.333 0 .533.398c.2.399 1.2.266 1.732.266l-.333-.067zm16.254-8.695l1.133-.929s.466-.465 0-.73a.6.6 0 00-.866 0c.4.597.266 1.062.066 1.527l-.333.132zM81.224 48.63c.6-.797 1.333-1.195 1.533-2.191-.866.597-1.666.597-1.533 2.19zm40.369-34.051c-.666.863-.533 1.394.533 1.725a3.708 3.708 0 00-.533-1.725zm-47.43 53.1v1.261c.034.23.233.401.467.399h.466c.067 0 0-.399 0-.531 0-.133-.4-.996-.933-1.195v.066zm15.988 29.14c-.4 0-.533 0-.6.663a.53.53 0 00.467.664.798.798 0 00.799-.73c.067-.465-.2-.664-.666-.664v.066zm6.661-10.024h1.333s.866 0 .866-.464c0-.465-.533 0-.866 0a1.268 1.268 0 00-1.533.53l.2-.066zm4.397 5.775a2.07 2.07 0 00-2.532 0 4.88 4.88 0 002.332-.066l.2.066zm30.776-55.755s1.399-.996 1.332-1.328a3.318 3.318 0 01-.866 1.261s-.933-.066-.666 0l.2.067zM78.693 83.278c-.866 0-1.532-.531-2.065 0-.533.53 0 .331 0 .464.333-.199 1.066 0 1.665-.464h.4zm66.615-40.954c.242-.4.358-.862.333-1.328a.667.667 0 00-.3-.896.671.671 0 00-.9.299c-.399 0 0 .464 0 .664.102.43.236.85.4 1.26h.467zM86.887 70.932c-.333.597-.8.995-.666 1.394.133.398.799.398 1.265 0l-.6-1.394zm4.33-8.098h.6s-.467-.531-.8-.531-.866-.398-.866 0 .666.53 1.066.53zm28.51-11.218a2.982 2.982 0 00-1.065-2.456c.07.915.446 1.779 1.066 2.456zm-17.12-12.28c-.16-.254-.338-.498-.532-.73a.668.668 0 00-.866 0c0 .399.4.399.666.465.266.067.2.399.733.266zm24.182 23.232a2.845 2.845 0 000 1.992c.6-.664.6-.664 0-1.992zM85.02 20.088v.332c0 .332 0 .995.667 1.062.666.066.266-.2.266-.465s-.533-.53-.933-.93zm50.628 33.586v2.058c0 .066.466 0 .532-.399a3.178 3.178 0 00-.532-1.659zm-31.975 1.327c0-.73 0-1.393.333-2.124-.221 0-.4.179-.4.399 0 .398.067 1.194.067 1.858v-.133zM77.76 81.551s.334 0 0 0a1.063 1.063 0 00-.732-.862s-.4 0-.467.465c-.066.464.533.398 1.2.53v-.132zm24.182 6.638h.999c.533 0 .666 0 .866-.464.2-.465 0-.399 0-.465a.735.735 0 00-.866 0l-1 .93zM73.297 73.587l1.2 1.46h.4c.399 0-1.333-1.128-1.6-1.062v-.398zm26.646-40.689c-.198.477-.55.874-1 1.129.534 0 1.067.53 1.4 0 .333-.531-.2-.266-.466-.73l.066-.399zm-9.46 57.216a.597.597 0 00-.399.598c0 .332 0 .796.466.796.467 0 .667 0 .667-.796 0-.797-.333-.399-.733-.598zm11.992-8.562c1.532 0 1.598 0 1.065-1.46l-1.065 1.46zm-.533 5.84c.533-.597 1.732 0 2.264-1.26-.866.73-1.931.265-2.264 1.26zm23.181-47.79v-1.725s0-.465-.4-.399c-.399.067 0 .332 0 .465.173.543.306 1.098.4 1.66zM65.17 65.356a.466.466 0 00-.466-.398s-.866 0-.933.53c-.066.532 0 .465.6.465a.735.735 0 001.066-.597h-.267zm14.722 27.745c.533.863.933 1.062 2.132.93-.6-.532-.933-1.195-1.865-.93h-.267zm1.332-13.275a4.836 4.836 0 00-.466-1.128.534.534 0 00-.666 0s-.4.332-.4.464c0 .133 0 0 .467.332l1.065.332zm16.388-24.957s-.467 0-.467-.664 0-.398-.6 0a.33.33 0 000 .398s0 .465.467 0c.466-.464.533.067.866-.066l-.266.332zm36.305-10.488v-.929c0-.066-.4.465-.4.797 0 .331 0 .73.466.73.467 0 .133-.73.2-.93l-.266.332zm-24.515-7.5c0-.465 0-1.128-.999-.996a.467.467 0 00-.4.531c.267.598.933.266 1.4.465zM73.031 67.347c0-.53.466-.995 0-1.46a.533.533 0 00-.4-.265s0 1.327.4 1.725zm32.907-20.31c0-.598 0-1.195-.532-1.527-.533-.332-.467 0-.533 0-.067 0 .133.863 1.065 1.526zM60.907 30.574v-.53c0-.532.466 0 0 0h-.666c-.2 0 .4.331.666.53zm72.743 15.4s-.333-.93-.866-.73c-.533.198-.4.53 0 .73.4.199.466 0 .866 0zm5.596-5.576c.4.464 0 1.526 1.265 1.394-.466-.93-.666-1.394-1.265-1.394zM80.825 53.674c.4-.465.866-.797.466-1.394a.4.4 0 00-.533 0c-.8-.265-.066.266-.133.797l.2.597zm31.242-25.09s0-.531-.333-.465a.466.466 0 00-.333.598s0 .73.4.73.133-1.062.066-1.46l.2.597zm15.988 26.55v-.464c0 .066-.467.53-.533.862-.067.332 0 .532.333.465.333-.066 0-.796 0-1.195l.2.332zm-27.446-5.708s-.666 0-.666.465c0 .464.533.331.8.398.266.066.466 0 .466 0a.662.662 0 00-.6-.863zm12.657 13.673v-.663s-.6 0-.466.398c.133.398 0 1.062.4 1.128.4.067.066-.464.066-.863zM88.352 93.5h-.533s0 .598.467.531c.466-.066.666 0 .732 0 .067 0-.266-.53-.666-.53zm36.305-59.074c0-.398 0-.531-.466-.531s-.6 0-.533.465c.067.464 0 .663.533.663s.466-.265.466-.597zM83.623 48.231v.398a.995.995 0 00.532-.929v-.464c0 .066-.2.796-.532.995zm4.063 22.236a2.45 2.45 0 00.733 2.058 3.709 3.709 0 00-.733-2.058zM78.76 85.468s.6 0 .6-.465c0-.464-.4-.663-.8-.73a.467.467 0 00-.466.531c0 .332.333.531.666.664zm4.13-11.881s0-.531-.533-.531a.599.599 0 00-.6.53c0 .294.239.532.533.532a.599.599 0 00.6-.531zm-6.062-35.91s0-.597-.466-.53c-.467.066-.4.53-.467.862-.066.332 0 .465 0 .399 0-.067.8-.465.933-.73zm9.859 21.838v-1.858c-.733.73-.733 1.393 0 1.858zm-2.332 29.338a2.47 2.47 0 002.199.598c-.6-.664-1.4-.531-2.199-.598zm15.588-8.629v-.398c0 .066-1 0-1.132.73-.134.73 0 .398 0 .332s.999.066 1.132-.664zm-2.331-32.457a.862.862 0 00-1.066-.73.935.935 0 001.066.93v-.2zm-9.526-20.245v.93s0 .464.466.464h.4c.066 0 0-.398 0-.598a4.058 4.058 0 00-.866-.796zM73.43 51.218a2.514 2.514 0 000-1.527c-.467.531-.467.598 0 1.527zm26.645-21.97s-.466-.399-.666 0c-.2.398-.932 0-.866.597.067.597.333 0 .533 0s.2-.133.666-.597h.333zm20.251 37.701c.333-.465.866.332 1.066-.398.2-.73 0-.664-.4-.598-.4.067-.666.531-.666.996zM90.151 34.691c1.265 0 1.265 0 1.599-.797a6.004 6.004 0 00-1.6.797zm26.646 52.503l1.865-1.394c-.333.332-1.332.133-1.599 1.394h-.266zM75.163 51.749v1.925c.532-.531.732-1.062 0-1.925zm6.661-6.04c-.6 0-.933 0-1.066.398s0 .398 0 .398.4-.464.733-.796h.333zm15.121-1.195s-.599 0-.599.398c0 .399 0 .399.466.399.467 0 .666 0 .666-.531s-.666-.2-.866-.266h.333zm15.122-18.253c0-.332 0-.465-.4-.465s-.666 0-.732.598c-.067.597 0 .53 0 .464.34-.074.632-.292.799-.597h.333zm-19.984-4.58c0 .398.333.398.6.464.266.067.465 0 .465 0s-.532-.464-1.199-.464h.134zM80.025 85.8s0 .863.6.93c.6.065 0 0 0-.598a.933.933 0 00-.6-.332zm7.328-66.376c.6 0 1.066 0 1.399-.398.333-.398 0-.332 0 0a1.136 1.136 0 00-1.399.066v.332zm16.254 40.755c.4 0 .666-.531.666-.93v-.663c0-.067-.333 0-.333.53l-.333 1.063zm-10.592-2.456c.363-.112.657-.38.8-.73a.997.997 0 00-.733.73s-.466-.332-.067-.332v.332zm23.782-6.24c.533-.73.466-1.393-.333-2.19l.333 2.19zm-12.058-28.01h-.4a.733.733 0 00-.799.531h.533c.3-.048.553-.25.666-.531zM77.294 87.658c0 .399 0 .996.8.996.799 0 0 0 0-.597 0-.598-.4-.266-.8-.399zm25.98-17.191s.666 0 .533-.597a1.731 1.731 0 00-.866-.664v.332c0 .332-.067.796.333.929zm-10.325-.796c.466 0 .932 0 1.065-.399.134-.398 0-.53-.333-.464s-.6.332-.732.863zm23.581-24.493a.798.798 0 00-.666-.598h-.4s0 .532.533.664a.4.4 0 00.533-.066zm-18.186 7.5c.034.23.233.401.467.399a.666.666 0 00.666-.399s0-.464-.533-.53c-.533-.067-.466.198-.6.53zm2.199 11.682s.466 0 .4-.53c-.067-.532 0 0-.467 0h-.466s.266.464.533.53zM73.897 36.217a2.062 2.062 0 001.266-1.195c-1.066.067-1.2.531-1.533 1.195h.267zm26.646 9.226s0 .73.6.73c-.134-.663-.933-.464-.933-.73h.333zM80.558 91.906c-.4 0-.533-.73-.999-.663-.466.066 0 0 0 .332 0 .331.133.929.733.597l.266-.266zM95.68 70.334a1.8 1.8 0 001.199-.73s-.8.332-1.133.664l-.066.066zm5.196-4.513a.798.798 0 00-.666.663s0 .332.4 0c.399-.331-.067-.066 0-.398l.266-.265zM98.61 49.824h-1a.465.465 0 00.4.465c.134.332.2 0 .333-.2l.267-.265zm6.195 1.062s.8-.53.6-1.128c-1 .464-.933.93-.866 1.394l.266-.266zm3.064-3.518a.93.93 0 00-.666-.663.93.93 0 00.6.796s-.267.465-.2.133l.266-.266zM56.998 27a13.38 13.38 0 00-3.84 6c-.84-1.32 1.92-5.16 3.72-6h.12zM58.4 23.496c0-.54.36-1.14 1.2-.96a1.38 1.38 0 01-1.2.96z"/><path d="M35.987 205c1.14 0 1.08.8.72 1.667-.36.866 0 .466 0 .466 1.02.467 0 1.134 0 1.667 0 .533-.42.8 0 1.133.42.334.72 0 1.02 0a4.269 4.269 0 00-.54 2.2 2.294 2.294 0 01-.48 1.734c0 .4-.48.866 0 1.133s.48-.333.72-.533c.133-.17.296-.306.48-.4.3.533 0 1 0 1.466 0 .467-.48.867-.42 1.467-.178.003-.33-.139-.36-.333.075-.422-.164-.834-.54-.934.54-1.066-.36-1.066-.84-1.4-.48-.333 0-.533 0-.8 0-.266.54 0 .36-.8a.646.646 0 00-.315-.382.545.545 0 00-.465-.018h-.72a.731.731 0 01.059-.557.6.6 0 01.42-.31c.3 0 .72 0 .72-.533s-.48 0-.72 0-.48-.733 0-1.2c.48-.466 1.08-.6.66-1-.42-.4-.66.4-.84.8a.516.516 0 01-.39.185.516.516 0 01-.39-.185.634.634 0 01-.166-.433c0-.164.06-.32.167-.433l1.98-2.4c.167-.416.122-.9-.12-1.267zM39.71 217.842a9.06 9.06 0 00-2.82 2.34.42.42 0 01-.6 0c.78-.48 1.2-1.38 1.92-1.92a1.08 1.08 0 011.5-.42zM39.59 220.638a10.02 10.02 0 01-2.64 2.64.48.48 0 01-.54 0s1.62-1.98 3.18-2.64zM38.51 224.723c0 .48-.48.6-1.02.54a1.2 1.2 0 011.02-.54zM61.284 53.688c-.36-.54-.78-.54-.78-1.14 0-.6 1.2 0 .96 1.14h-.18zM84.61 13.815c.36-.3.78-.3.78.3 0 0-.72.18-.78-.3zM88.76 12.18h.48s-.36 0 0-.36l-.48.36zM119.763 78.01c.48 0 0 .72 0 .9a4.38 4.38 0 01-1.74 1.14c.6-.66 1.14-1.38 1.74-2.1v.06zM71.36 37.17a2.58 2.58 0 01-.66-2.34l.66 2.34zM95.833 78.625c.9-.36 1.38.48 2.04.54.66.06 0 0 0 .3-.72-.48-1.44-.3-2.04-.84zM111.697 74.1s0-.48.42-.36 0 .42 0 .54l-.42-.18zM114.947 68.213v-.42c0-.06.24.36 0 .42z"/></g></svg>