<?xml version="1.0" standalone="no"?><!DOCTYPE svg PUBLIC "-//W3C//DTD SVG 1.1//EN" "http://www.w3.org/Graphics/SVG/1.1/DTD/svg11.dtd"><svg class="icon" width="128px" height="111.08px" viewBox="0 0 1180 1024" version="1.1" xmlns="http://www.w3.org/2000/svg"><path d="M175.044414 183.905103h4.775724v27.067587h-4.775724z" fill="#47E6B1" opacity=".5" /><path d="M190.967172 195.049931v4.775724H163.897379v-4.775724z" fill="#47E6B1" opacity=".5" /><path d="M341.093517 759.443862h4.775724v27.067586h-4.775724z" fill="#47E6B1" opacity=".5" /><path d="M357.000828 770.590897v4.777931h-27.067587v-4.777931z" fill="#47E6B1" opacity=".5" /><path d="M108.058483 452.413793h4.641103v26.301793h-4.641103z" fill="#47E6B1" opacity=".5" /><path d="M123.531034 463.243034v4.643311H97.229241v-4.643311z" fill="#47E6B1" opacity=".5" /><path d="M929.024 0h4.641103v26.301793h-4.641103z" fill="#47E6B1" opacity=".5" /><path d="M944.496552 10.829241v4.643311h-26.301793V10.829241z" fill="#47E6B1" opacity=".5" /><path d="M137.227034 65.335172h4.775725V92.402759h-4.775725z" fill="#47E6B1" opacity=".5" /><path d="M153.134345 76.48v4.775724H126.066759v-4.775724z" fill="#47E6B1" opacity=".5" /><path d="M229.969655 665.551448a5.371586 5.371586 0 0 1-2.990345-6.492689c0.064-0.192 0.103724-0.390621 0.119173-0.591449a2.632828 2.632828 0 0 0-4.833104-1.789793c-0.119172 0.16331-0.22069 0.339862-0.300138 0.525242a5.371586 5.371586 0 0 1-6.492689 2.990344 2.632828 2.632828 0 0 0-0.591449-0.119172 2.632828 2.632828 0 0 0-1.789793 4.833103c0.16331 0.119172 0.339862 0.22069 0.525242 0.300138a5.371586 5.371586 0 0 1 2.990345 6.49269 2.632828 2.632828 0 0 0-0.119173 0.591448 2.632828 2.632828 0 0 0 4.833104 1.789793c0.119172-0.16331 0.22069-0.339862 0.300138-0.525241a5.371586 5.371586 0 0 1 6.492689-2.990345c0.192 0.064 0.390621 0.103724 0.591448 0.119173a2.632828 2.632828 0 0 0 1.789794-4.833104 2.632828 2.632828 0 0 0-0.525242-0.300138zM207.887448 917.131034a5.367172 5.367172 0 0 1-2.988138-6.488275c0.061793-0.192 0.101517-0.390621 0.116966-0.591449a2.630621 2.630621 0 0 0-4.833104-1.787586c-0.119172 0.161103-0.22069 0.337655-0.300138 0.525242a5.371586 5.371586 0 0 1-6.479448 3.001379 2.635034 2.635034 0 0 0-0.591448-0.121379 2.632828 2.632828 0 0 0-1.789793 4.828689c0.16331 0.121379 0.339862 0.222897 0.525241 0.302345a5.367172 5.367172 0 0 1 2.990345 6.488276 2.630621 2.630621 0 0 0-0.119172 0.591448 2.630621 2.630621 0 0 0 4.833103 1.787586c0.119172-0.161103 0.22069-0.337655 0.300138-0.525241a5.371586 5.371586 0 0 1 6.49269-2.985931c0.192 0.061793 0.390621 0.101517 0.591448 0.119172a2.632828 2.632828 0 0 0 1.789793-4.828689 2.632828 2.632828 0 0 0-0.538483-0.315587zM1061.956414 358.786207a5.367172 5.367172 0 0 1-2.988138-6.488276c0.061793-0.192 0.101517-0.390621 0.116965-0.591448a2.630621 2.630621 0 0 0-4.833103-1.787586c-0.119172 0.161103-0.22069 0.337655-0.300138 0.525241a5.371586 5.371586 0 0 1-6.479448 3.001379 2.635034 2.635034 0 0 0-0.591449-0.121379 2.632828 2.632828 0 0 0-1.789793 4.82869c0.16331 0.121379 0.339862 0.222897 0.525242 0.302344a5.367172 5.367172 0 0 1 2.990345 6.488276 2.630621 2.630621 0 0 0-0.119173 0.591449 2.630621 2.630621 0 0 0 4.833104 1.787586c0.119172-0.161103 0.22069-0.337655 0.300138-0.525242a5.371586 5.371586 0 0 1 6.492689-2.985931c0.192 0.061793 0.390621 0.101517 0.591448 0.119173a2.632828 2.632828 0 0 0 1.789794-4.82869 2.632828 2.632828 0 0 0-0.538483-0.315586zM1024.452414 625.82731a5.371586 5.371586 0 0 1-2.990345-6.492689c0.064-0.192 0.103724-0.390621 0.119172-0.591449a2.632828 2.632828 0 0 0-4.833103-1.789793c-0.119172 0.16331-0.22069 0.339862-0.300138 0.525242a5.371586 5.371586 0 0 1-6.49269 2.990345 2.632828 2.632828 0 0 0-0.591448-0.119173 2.632828 2.632828 0 0 0-1.789793 4.833104c0.16331 0.119172 0.339862 0.22069 0.525241 0.300137a5.371586 5.371586 0 0 1 2.990345 6.49269 2.632828 2.632828 0 0 0-0.119172 0.591448 2.632828 2.632828 0 0 0 4.833103 1.789794c0.119172-0.16331 0.22069-0.339862 0.300138-0.525242a5.371586 5.371586 0 0 1 6.49269-2.990345c0.192 0.064 0.390621 0.103724 0.591448 0.119173a2.632828 2.632828 0 0 0 1.789793-4.833104 2.632828 2.632828 0 0 0-0.525241-0.300138zM1053.142069 93.965241a5.371586 5.371586 0 0 1-2.990345-6.492689c0.064-0.192 0.103724-0.390621 0.119173-0.591449a2.632828 2.632828 0 0 0-4.833104-1.789793c-0.119172 0.16331-0.22069 0.339862-0.300138 0.525242a5.371586 5.371586 0 0 1-6.492689 2.990345 2.632828 2.632828 0 0 0-0.591449-0.119173 2.632828 2.632828 0 0 0-1.789793 4.833104c0.16331 0.119172 0.339862 0.22069 0.525242 0.300138a5.371586 5.371586 0 0 1 2.990344 6.492689 2.632828 2.632828 0 0 0-0.119172 0.591448 2.632828 2.632828 0 0 0 4.833103 1.789794c0.119172-0.16331 0.22069-0.339862 0.300138-0.525242a5.371586 5.371586 0 0 1 6.49269-2.990345c0.192 0.064 0.390621 0.103724 0.591448 0.119173a2.632828 2.632828 0 0 0 1.789793-4.833104 2.632828 2.632828 0 0 0-0.525241-0.300138zM1143.624828 786.930759a5.371586 5.371586 0 0 1-2.990345-6.49269c0.064-0.192 0.103724-0.390621 0.119172-0.591448a2.632828 2.632828 0 0 0-4.833103-1.789793c-0.119172 0.16331-0.22069 0.339862-0.300138 0.525241a5.371586 5.371586 0 0 1-6.49269 2.990345 2.632828 2.632828 0 0 0-0.591448-0.119173 2.632828 2.632828 0 0 0-1.789793 4.833104c0.16331 0.119172 0.339862 0.22069 0.525241 0.300138a5.371586 5.371586 0 0 1 2.990345 6.492689 2.632828 2.632828 0 0 0-0.119172 0.591449 2.632828 2.632828 0 0 0 4.833103 1.789793c0.119172-0.16331 0.22069-0.339862 0.300138-0.525242a5.371586 5.371586 0 0 1 6.49269-2.990344c0.192 0.064 0.390621 0.103724 0.591448 0.119172a2.632828 2.632828 0 0 0 1.789793-4.833103 2.632828 2.632828 0 0 0-0.525241-0.300138z" fill="#4D8AF0" opacity=".5" /><path d="M8.827586 364.137931m-8.827586 0a8.827586 8.827586 0 1 0 17.655172 0 8.827586 8.827586 0 1 0-17.655172 0Z" fill="#F55F44" opacity=".5" /><path d="M1054.896552 205.241379m-8.827586 0a8.827586 8.827586 0 1 0 17.655172 0 8.827586 8.827586 0 1 0-17.655172 0Z" fill="#F55F44" opacity=".5" /><path d="M630.068966 557.241379m-9.931035 0a9.931034 9.931034 0 1 0 19.862069 0 9.931034 9.931034 0 1 0-19.862069 0Z" fill="#F55F44" opacity=".5" /><path d="M630.068966 557.241379m-9.931035 0a9.931034 9.931034 0 1 0 19.862069 0 9.931034 9.931034 0 1 0-19.862069 0Z" fill="#F55F44" opacity=".5" /><path d="M1171.862069 487.724138m-8.827586 0a8.827586 8.827586 0 1 0 17.655172 0 8.827586 8.827586 0 1 0-17.655172 0Z" fill="#F55F44" opacity=".5" /><path d="M416 65.103448m-9.931034 0a9.931034 9.931034 0 1 0 19.862068 0 9.931034 9.931034 0 1 0-19.862068 0Z" fill="#47E6B1" opacity=".5" /><path d="M1017.37931 873.931034m-8.827586 0a8.827586 8.827586 0 1 0 17.655173 0 8.827586 8.827586 0 1 0-17.655173 0Z" fill="#F55F44" opacity=".5" /><path d="M429.952 535.624828c-5.861517 19.014621 2.91531 41.432276 20.113655 51.46262 2.703448 1.573517 5.007448 2.632828 9.981793 4.722759l0.15669 0.066207c5.768828 2.427586 8.269241 3.610483 11.10069 5.457655 11.471448 7.470345 17.167448 19.030069 23.836689 42.58869 7.805793 27.603862 9.805241 41.544828 5.821793 57.015172-1.405793 5.459862-3.222069 9.840552-7.525517 18.939586l-0.198621 0.421517c-3.539862 7.481379-5.047172 10.917517-6.554482 15.348966a74.919724 74.919724 0 0 0-3.566345 32.002207c0.768 7.194483 2.606345 12.621241 6.362483 16.706207 4.144552 4.460138 9.361655 6.424276 18.443034 8.037517 0.765793 0.136828 1.026207 0.180966 2.842483 0.487724 1.024 0.176552 1.650759 0.282483 2.301793 0.397242a106.251034 106.251034 0 0 1 76.382896 59.109517l3.994483-1.880276a110.675862 110.675862 0 0 0-79.578483-61.568c-0.688552-0.123586-1.326345-0.233931-2.361379-0.408276a303.293793 303.293793 0 0 1-2.809379-0.485517c-8.198621-1.454345-12.680828-3.142621-15.973517-6.686897-2.981517-3.244138-4.539586-7.83669-5.214897-14.174896-1.076966-10.162759 0.066207-20.435862 3.354483-30.115311 1.43669-4.219586 2.899862-7.552 6.366896-14.881103l0.198621-0.423724c4.422621-9.348414 6.311724-13.910069 7.810207-19.725242 4.243862-16.485517 2.164966-30.973793-5.848276-59.316965-6.953931-24.560552-12.998621-36.833103-25.672827-45.086897-3.129379-2.036966-5.78869-3.29931-11.802483-5.826207l-0.154483-0.066206c-4.804414-2.01931-6.989241-3.023448-9.472-4.468966-15.426207-8.997517-23.375448-29.296552-18.118621-46.347034l-4.215172-1.302069z" fill="#808080" fill-opacity=".1" /><path d="M432.158897 535.624828c-5.861517 19.014621 2.91531 41.432276 20.113655 51.46262 2.703448 1.573517 5.007448 2.632828 9.981793 4.722759l0.156689 0.066207c5.768828 2.427586 8.269241 3.610483 11.10069 5.457655 11.471448 7.470345 17.167448 19.030069 23.83669 42.58869 7.805793 27.603862 9.805241 41.544828 5.821793 57.015172-1.405793 5.459862-3.222069 9.840552-7.525517 18.939586l-0.198621 0.421517c-3.539862 7.481379-5.047172 10.917517-6.554483 15.348966a74.919724 74.919724 0 0 0-3.566345 32.002207c0.768 7.194483 2.606345 12.621241 6.362483 16.706207 4.144552 4.460138 9.361655 6.424276 18.443035 8.037517 0.765793 0.136828 1.026207 0.180966 2.842482 0.487724 1.024 0.176552 1.650759 0.282483 2.301793 0.397242a106.251034 106.251034 0 0 1 76.382897 59.109517l3.994483-1.880276a110.675862 110.675862 0 0 0-79.578483-61.568c-0.688552-0.123586-1.326345-0.233931-2.361379-0.408276a303.293793 303.293793 0 0 1-2.80938-0.485517c-8.198621-1.454345-12.680828-3.142621-15.973517-6.686897-2.981517-3.244138-4.539586-7.83669-5.214896-14.174896-1.076966-10.162759 0.066207-20.435862 3.354482-30.115311 1.43669-4.219586 2.899862-7.552 6.366897-14.881103l0.198621-0.423724c4.422621-9.348414 6.311724-13.910069 7.810207-19.725242 4.243862-16.485517 2.164966-30.973793-5.848276-59.316965-6.953931-24.560552-12.998621-36.833103-25.672828-45.086897-3.129379-2.036966-5.78869-3.29931-11.802483-5.826207l-0.154482-0.066206c-4.804414-2.01931-6.989241-3.023448-9.472-4.468966-15.426207-8.997517-23.375448-29.296552-18.118621-46.347034l-4.215173-1.302069z" fill="#535461" /><path d="M642.33931 400.390621c-19.866483 28.385103-27.762759 44.012138-28.74262 64.187586-0.92469 19.10731 4.839724 34.707862 19.972413 61.989517l2.670345 4.793379c8.957793 16.057379 12.868414 23.752828 16.417104 33.27338 10.785103 29.431172 9.419034 62.10869-3.793655 90.493793-0.308966 0.655448-0.64 1.341793-0.993104 2.063448-0.80331 1.633103-1.332966 2.676966-3.04331 6.011586-8.013241 15.629241-10.681379 23.232-9.895724 33.271173 0.463448 6.283034 2.109793 11.045517 6.567724 21.020689 0.564966 1.260138 0.710621 1.588966 0.971034 2.176 0.381793 0.86069 0.706207 1.604414 1.008552 2.315035 16.889379 40.346483 13.991724 86.550069-7.805793 124.358621l3.822345 2.206896c22.486069-39.00469 25.474207-86.653793 8.048551-128.286896a197.585655 197.585655 0 0 0-1.037241-2.379035c-0.264828-0.595862-0.410483-0.926897-0.977655-2.191448-4.250483-9.511724-5.782069-13.943172-6.196966-19.553104-0.701793-8.951172 1.780966-16.017655 9.423449-30.923034 1.721379-3.358897 2.259862-4.416 3.076413-6.08 0.364138-0.741517 0.706207-1.449931 1.028414-2.136276 13.711448-29.459862 15.130483-63.353379 3.937104-93.896828-3.654621-9.811862-7.635862-17.644138-16.701793-33.893517-1.725793-3.096276-1.95531-3.506759-2.663725-4.784552-14.75531-26.599724-20.299034-41.6-19.425103-59.634758 0.926897-19.063172 8.551724-34.153931 27.950345-61.872552l-3.614897-2.529103z" fill="#808080" fill-opacity=".1" /><path d="M642.350345 400.392828c-19.979034 28.683034-27.749517 44.049655-28.753655 64.183172-0.92469 19.109517 4.839724 34.710069 19.972413 61.991724l2.670345 4.793379c8.957793 16.057379 12.868414 23.752828 16.417104 33.27338 10.785103 29.431172 9.419034 62.10869-3.793655 90.493793-0.308966 0.655448-0.64 1.341793-0.993104 2.063448-0.80331 1.633103-1.332966 2.676966-3.04331 6.011586-8.013241 15.629241-10.681379 23.232-9.895724 33.271173 0.463448 6.283034 2.109793 11.045517 6.567724 21.020689 0.564966 1.260138 0.710621 1.588966 0.971034 2.176 0.381793 0.86069 0.706207 1.604414 1.008552 2.315035 16.889379 40.346483 13.991724 86.550069-7.805793 124.358621l3.822345 2.206896c22.486069-39.00469 25.474207-86.653793 8.048551-128.286896a197.585655 197.585655 0 0 0-1.037241-2.379035c-0.264828-0.595862-0.410483-0.926897-0.977655-2.191448-4.250483-9.511724-5.782069-13.943172-6.196966-19.553104-0.701793-8.951172 1.780966-16.017655 9.423449-30.923034 1.721379-3.358897 2.259862-4.416 3.076413-6.08 0.364138-0.741517 0.706207-1.449931 1.028414-2.136276 13.711448-29.459862 15.130483-63.353379 3.937104-93.896828-3.654621-9.811862-7.635862-17.644138-16.701793-33.893517-1.725793-3.096276-1.95531-3.506759-2.663725-4.784552-14.75531-26.599724-20.299034-41.6-19.425103-59.634758 0.948966-19.023448 8.452414-33.862621 27.968-61.874759l-3.623724-2.524689z" fill="#535461" /><path d="M833.423448 574.066759l6.708966 53.839448c1.233655 9.961931 0.966621 15.073103-1.928828 19.623724-1.818483 2.84469-4.054069 4.634483-9.604414 8.180966l-0.211862 0.136827c-2.835862 1.809655-4.186483 2.72331-5.722482 3.93931-16.372966 12.987586-18.626207 37.000828-10.747587 64.801104 0.662069 2.330483 0.838621 2.930759 2.568828 8.792276 2.387862 8.090483 3.603862 12.486621 4.724965 17.388138 3.515586 15.364414 3.566345 27.175724-0.801103 37.846069-1.739034 4.237241-3.672276 7.45931-8.379586 14.472827l-0.050759 0.072828c-2.957241 4.407172-4.248276 6.413241-5.722483 9.006345a74.145103 74.145103 0 0 0-9.118896 46.609655l4.374069-0.587035a69.733517 69.733517 0 0 1 8.580414-43.837793c1.403586-2.471724 2.657103-4.413793 5.552551-8.730482l0.048552-0.072828c4.872828-7.26069 6.909793-10.654897 8.798897-15.26069 4.775724-11.661241 4.720552-24.331034 1.021793-40.503172-1.147586-5.016276-2.383448-9.478621-4.795586-17.655173-1.725793-5.839448-1.897931-6.43531-2.55338-8.743724-7.446069-26.270897-5.356138-48.560552 9.240276-60.137931 1.37931-1.092414 2.643862-1.94869 5.356138-3.681103l0.211862-0.134621c6.091034-3.890759 8.664276-5.954207 10.950621-9.527172 3.639172-5.720276 3.943724-11.586207 2.588689-22.541242l-6.708965-53.843862-4.38069 0.547311z" fill="#808080" fill-opacity=".1" /><path d="M835.630345 574.066759l6.708965 53.839448c1.233655 9.961931 0.966621 15.073103-1.928827 19.623724-1.818483 2.84469-4.054069 4.634483-9.604414 8.180966l-0.211862 0.136827c-2.835862 1.809655-4.186483 2.72331-5.722483 3.93931-16.372966 12.987586-18.626207 37.000828-10.747586 64.801104 0.662069 2.330483 0.838621 2.930759 2.568828 8.792276 2.387862 8.090483 3.603862 12.486621 4.724965 17.388138 3.515586 15.364414 3.566345 27.175724-0.801103 37.846069-1.739034 4.237241-3.672276 7.45931-8.379587 14.472827l-0.050758 0.072828c-2.957241 4.407172-4.248276 6.413241-5.722483 9.006345a74.145103 74.145103 0 0 0-9.118897 46.609655l4.374069-0.587035a69.733517 69.733517 0 0 1 8.580414-43.837793c1.403586-2.471724 2.657103-4.413793 5.552552-8.730482l0.048552-0.072828c4.872828-7.26069 6.909793-10.654897 8.798896-15.26069 4.775724-11.661241 4.720552-24.331034 1.021793-40.503172-1.147586-5.016276-2.383448-9.478621-4.795586-17.655173-1.725793-5.839448-1.897931-6.43531-2.553379-8.743724-7.446069-26.270897-5.356138-48.560552 9.240276-60.137931 1.37931-1.092414 2.643862-1.94869 5.356138-3.681103l0.211862-0.134621c6.091034-3.890759 8.664276-5.954207 10.95062-9.527172 3.639172-5.720276 3.943724-11.586207 2.58869-22.541242l-6.708966-53.843862-4.380689 0.547311z" fill="#535461" /><path d="M1005.360552 353.370483c-0.022069-51.230897-24.518621-99.354483-65.897931-129.458759a159.563034 159.563034 0 0 0-143.276138-22.722207c1.319724-8.993103 2.001655-18.067862 2.039172-27.155862 0.132414-86.221241-67.961379-157.038345-153.972965-160.130207-86.009379-3.091862-158.995862 62.651586-165.036138 148.658759a159.563034 159.563034 0 0 0-143.340138 22.680276c-41.401379 30.110897-65.906759 78.263172-65.917793 129.516138 0 80.326621 59.080828 194.471724 135.955862 214.695724l11.972414 6.848-6.499311 22.30731h38.488276L441.516138 536.275862l11.915034-6.821517c59.444966-15.629241 108.18869-87.371034 127.276138-156.184276a116.656552 116.656552 0 0 0 34.070069 15.501241l11.970207 6.848-6.4 22.252138h38.488276l-8.357517-22.336 11.917241-6.81931a111.309241 111.309241 0 0 0 25.317517-10.301793c10.284138 77.197241 64.990897 171.444966 134.212414 189.638621l11.972414 6.848-6.49931 22.30731h38.488276l-8.386207-22.333793 11.915034-6.821517c76.932414-20.221793 135.942621-134.413241 135.942621-214.682483z" fill="#808080" fill-opacity=".1" opacity=".7" /><path d="M456.827586 549.517241h-37.517241l6.574345-22.068965h22.49931zM593.641931 313.101241c0 85.168552-69.168552 209.933241-154.476138 209.933242C353.853793 523.034483 284.689655 398.256552 284.689655 313.101241 284.689655 227.937103 353.853793 158.896552 439.172414 158.896552s154.482759 69.040552 154.482758 154.204689h-0.013241z" fill="#F55F44" /><path d="M450.372414 527.448276h-22.4L414.896552 520.827586h48.551724z" fill="#535461" /><path d="M381.793103 194.206897s-65.655172 35.310345-75.034482 105.931034" fill="#FFFFFF" opacity=".1" /><path d="M659.862069 412.689655h-37.517241l6.574344-22.068965h22.499311z" fill="#4D8AF0" /><path d="M794.469517 176.273655c0 85.168552-69.168552 209.933241-154.476138 209.933242C554.681379 386.206897 485.517241 261.428966 485.517241 176.273655 485.517241 91.109517 554.681379 22.068966 640 22.068966s154.482759 69.040552 154.482759 154.204689h-0.013242z" fill="#FFA233" /><path d="M651.2 390.62069h-22.4L615.724138 384h48.551724z" fill="#535461" /><path d="M584.827586 57.37931s-65.655172 35.310345-75.034483 105.931035" fill="#FFFFFF" opacity=".1" /><path d="M860.689655 587.034483h-37.517241l6.574345-22.068966h22.49931zM995.310345 350.618483C995.310345 435.787034 926.144 560.551724 840.834207 560.551724 755.526621 560.551724 686.344828 435.787034 686.344828 350.618483 686.344828 265.454345 755.508966 196.413793 840.827586 196.413793s154.482759 69.040552 154.482759 154.20469z" fill="#3AD29F" /><path d="M852.027586 562.758621h-22.4L816.551724 556.137931h48.551724z" fill="#535461" /><path d="M785.655172 231.724138s-65.655172 35.310345-75.034482 105.931034" fill="#FFFFFF" opacity=".1" /><path d="M727.183448 613.594483c-8.993103-9.026207-22.10869-12.612414-36.932414-10.112-13.863724 2.343724-27.74069 9.886897-39.062068 21.186207a45.676138 45.676138 0 0 0-8.174345 11.213241 45.777655 45.777655 0 0 0-8.103724-11.623724c-11.124966-11.511172-24.876138-19.266207-38.753104-21.806345-14.766345-2.824828-27.93931 0.606897-37.102345 9.476414-9.160828 8.871724-12.916966 21.936552-10.63062 36.793379 2.14731 13.899034 9.458759 27.895172 20.599172 39.377655 23.406345 24.165517 70.121931 14.731034 72.09931 14.307311l0.578207-0.125793 1.792 0.408275c1.977379 0.452414 48.523034 10.692414 72.339862-13.064827 11.29269-11.29931 18.875586-25.154207 21.274483-39.024552 2.612966-14.843586-0.93131-27.965793-9.924414-37.005241z m-93.910069 74.857931c-11.294897 1.524966-39.430621 3.588414-53.393655-10.833655-8.979862-9.277793-14.852414-20.352-16.529655-31.214345-1.527172-9.886897 0.67531-18.361379 6.238897-23.699862a20.864 20.864 0 0 1 7.609379-4.660966 31.382069 31.382069 0 0 1 16.262621-0.818758c10.785103 2.01931 21.684966 8.233931 30.66262 17.513931 13.963034 14.322759 11.027862 42.456276 9.149793 53.700413v0.013242z m89.096828-40.408276c-1.864828 10.818207-7.922759 21.806345-17.070345 30.918621-14.214621 14.124138-42.350345 11.623724-53.574621 9.886896-1.681655-11.29931-4.137931-39.393103 10.078897-53.574621 9.147586-9.110069 20.146759-15.13931 30.960552-16.948965a31.382069 31.382069 0 0 1 16.249379 1.103448 20.864 20.864 0 0 1 7.538759 4.8c5.451034 5.466483 7.510069 13.912276 5.817379 23.799173v0.015448z" fill="#808080" fill-opacity=".1" opacity=".5" /><path d="M645.036138 698.778483l-4.422621 0.937931c-1.882483 0.397241-46.329379 9.487448-68.608-13.793104-10.586483-11.067586-17.549241-24.549517-19.65462-37.947586-2.189241-14.322759 1.403586-26.90869 10.107586-35.456 8.704-8.54731 21.241379-11.791448 35.294896-9.132138 13.153103 2.489379 26.237793 9.957517 36.824276 21.036138 22.265379 23.282759 11.904 68.012138 11.453793 69.903448l-0.99531 4.451311z m-65.324138-80.342069a19.809103 19.809103 0 0 0-7.243034 4.493241c-5.278897 5.192828-7.384276 13.298759-5.938759 22.841379 1.6 10.454069 7.187862 21.135448 15.737379 30.08 13.294345 13.896828 40.066207 11.906207 50.807173 10.438621 1.783172-10.822621 4.590345-37.872552-8.704-51.767172-8.549517-8.933517-18.910897-14.934069-29.188414-16.869517a29.506207 29.506207 0 0 0-15.470345 0.783448z" fill="#FFA233" /><path d="M638.929655 698.432l-0.977655-4.393931c-0.41931-1.875862-9.977379-46.046897 12.577103-68.559448 10.732138-10.703448 23.867586-17.825103 37.003035-20.049655 13.974069-2.379034 26.454069 1.021793 34.935172 9.584551 8.48331 8.562759 11.879724 20.987586 9.460966 34.979311-2.262069 13.137655-9.419034 26.27531-20.148966 36.978758-22.554483 22.512552-66.643862 12.802207-68.475586 12.382897l-4.374069-0.922483z m66.379035-77.976276a29.702621 29.702621 0 0 0-15.373242-1.048276c-10.255448 1.734621-20.667586 7.457103-29.345103 16.088276-13.470897 13.446621-11.180138 40.088276-9.544828 50.776276 10.661517 1.624276 37.28331 4.043034 50.740966-9.388138 8.664276-8.646621 14.393379-19.056552 16.167724-29.382621 1.606621-9.359448-0.34869-17.377103-5.519448-22.567724a19.756138 19.756138 0 0 0-7.128276-4.477793z" fill="#FFA233" /><path d="M855.474759 685.351724h-431.16138v86.629517h22.4v250.721104h386.36138V771.981241h22.4z" fill="#808080" fill-opacity=".1" opacity=".5" /><path d="M450.206897 712.827586h377.37931v304.551724H450.206897z" fill="#3F3D56" /><path d="M604.689655 768h70.62069v251.586207h-70.62069z" fill="#FFA233" /><path d="M450.206897 695.172414h377.37931v77.241379H450.206897z" fill="#000000" opacity=".1" /><path d="M428.137931 690.758621h421.517241v77.241379H428.137931z" fill="#3F3D56" /><path d="M604.689655 690.758621h70.62069v77.241379h-70.62069z" fill="#FFA233" /></svg>