<?xml version="1.0" standalone="no"?><!DOCTYPE svg PUBLIC "-//W3C//DTD SVG 1.1//EN" "http://www.w3.org/Graphics/SVG/1.1/DTD/svg11.dtd"><svg class="icon" width="128px" height="128.00px" viewBox="0 0 1024 1024" version="1.1" xmlns="http://www.w3.org/2000/svg"><path d="M450.17327 680.757053h145.363021v226.492222H450.17327z" fill="#FBC08F" /><path d="M213.533359 472.310978a82.803046 57.119978 90 1 0 114.239957 0 82.803046 57.119978 90 1 0-114.239957 0Z" fill="#FBC08F" /><path d="M716.994707 472.310978a82.803046 57.119978 90 1 0 114.239957 0 82.803046 57.119978 90 1 0-114.239957 0Z" fill="#FBC08F" /><path d="M522.357858 178.708012c-268.390668 0-255.052211 140.864562-255.052211 302.599886s125.538414 270.273744 255.052211 270.273744c111.258419 0 255.052211-108.486113 255.052211-270.273744s13.338456-302.599885-255.052211-302.599886z" fill="#FFD8AA" /><path d="M596.47783 422.357151c-3.81846 5.544613 3.81846 17.104609 9.519996 19.039993s19.039993-13.338456 34.261525-10.461535 14.279995 9.519996 20.923069 10.461535 20.033839-8.578458 20.033839-15.273841-51.313827-52.307673-84.738429-3.766152z" fill="#331B0F" /><path d="M659.247037 490.618663c0 14.855379-9.363073 26.886144-20.923069 26.886144s-20.923069-12.030765-20.923069-26.886144 9.363073-26.886144 20.923069-26.886143 20.923069 12.030765 20.923069 26.886143z" fill="#482E2E" /><path d="M639.16089 479.895591a7.375382 7.375382 0 1 1-7.375381-7.375382 7.375382 7.375382 0 0 1 7.375381 7.375382z" fill="#FFFFFF" /><path d="M443.320964 422.357151c3.766152 5.544613-3.81846 17.104609-9.519996 19.039993s-19.039993-13.338456-34.261525-10.461535-14.279995 9.519996-20.923069 10.461535-19.981531-8.578458-19.981531-15.273841 51.366134-52.307673 84.686121-3.766152z" fill="#331B0F" /><path d="M422.450203 490.618663c0 14.855379-9.415381 26.886144-20.923069 26.886144s-20.923069-12.030765-20.923069-26.886144 9.363073-26.886144 20.923069-26.886143 20.923069 12.030765 20.923069 26.886143z" fill="#482E2E" /><path d="M402.207134 479.895591a7.375382 7.375382 0 1 1-7.375382-7.375382 7.375382 7.375382 0 0 1 7.375382 7.375382z" fill="#FFFFFF" /><path d="M522.828627 613.17554h-49.483058c0 12.344611 8.578458 44.72306 49.483058 44.72306s49.483058-32.378449 49.483058-44.72306z" fill="#F58C73" /><path d="M549.400924 515.098654c-4.707691-25.264606-11.350765-34.941525-26.676913-35.150756h-0.470769c-15.326148 0-21.916915 9.88615-26.624605 35.150756s-19.876916 59.264593 26.624605 59.473824h0.470769c46.606136-0.209231 31.489219-34.052295 26.676913-59.473824z" fill="#F9AE7E" /><path d="M681.320874 569.394018c0 11.821534-14.698456 21.393838-32.849218 21.393838s-32.849218-9.572304-32.849218-21.393838 14.698456-21.446146 32.849218-21.446145 32.849218 9.624612 32.849218 21.446145zM430.034816 569.394018c0 11.821534-14.698456 21.393838-32.849219 21.393838s-32.796911-9.572304-32.79691-21.393838 14.698456-21.446146 32.79691-21.446145 32.849218 9.624612 32.849219 21.446145z" fill="#F9B48F" /><path d="M497.093252 822.196999l6.015382 196.101465L178.01645 1010.452313s29.65845-222.307608 273.516819-216.501457a63.135361 63.135361 0 0 0 45.559983 28.246143zM522.880934 819.686231l-9.101535 196.467618 332.153721 7.846151s-32.692295-207.922998-243.544523-230.153759c0 0.156923-15.326148 25.83999-79.507663 25.83999z" fill="#0F0F0F" /><path d="M522.828627 859.335447v160.323016h-39.126139l10.723073-169.372243 28.403066 9.049227z" fill="#06376D" /><path d="M522.880934 819.686231v63.919976a108.32919 108.32919 0 0 1-60.363054-27.461528s8.735381-36.458448 60.363054-36.458448z" fill="#1679D3" /><path d="M522.880934 859.335447v160.323016h39.126139l-10.723072-169.372243-28.403067 9.049227z" fill="#06376D" /><path d="M522.828627 819.686231v63.919976a108.32919 108.32919 0 0 0 60.363054-27.461528s-8.683074-36.458448-60.363054-36.458448z" fill="#1679D3" /><path d="M522.880934 819.686231L444.785579 892.027742s-33.319987-73.230742-37.138447-86.621505 26.676913-39.021524 37.138447-37.138448 78.095355 51.418442 78.095355 51.418442zM522.880934 819.686231l78.043048 72.341511s33.319987-73.230742 37.138447-86.621505-26.676913-39.021524-37.138447-37.138448-78.043047 51.418442-78.043048 51.418442z" fill="#353535" /><path d="M698.477791 441.554067H585.23168a32.378449 32.378449 0 0 0-29.867681 19.981531H490.39787A32.378449 32.378449 0 0 0 460.477881 441.554067H347.284078a32.483065 32.483065 0 0 0-32.37845 32.326141v48.54152a32.483065 32.483065 0 0 0 32.37845 32.37845H460.477881a32.483065 32.483065 0 0 0 32.378449-32.37845v-47.547674h59.996901v47.547674a32.430757 32.430757 0 0 0 32.378449 32.37845H698.477791a32.430757 32.430757 0 0 0 32.326142-32.37845v-48.54152a32.430757 32.430757 0 0 0-32.326142-32.326141z m-219.692225 75.584586a26.153836 26.153836 0 0 1-27.147682 25.264606H356.385613a26.153836 26.153836 0 0 1-27.19999-25.264606V479.215591a26.153836 26.153836 0 0 1 27.19999-25.316914h95.095348a26.153836 26.153836 0 0 1 27.147682 25.316914z m237.947603 0a26.153836 26.153836 0 0 1-27.19999 25.264606H594.280907a26.153836 26.153836 0 0 1-27.147682-25.264606V479.215591a26.153836 26.153836 0 0 1 27.147682-25.316914h95.095349A26.153836 26.153836 0 0 1 716.785476 479.215591z"  /><path d="M284.462563 430.935609S318.724089 309.529501 343.622541 281.492589c0 0 87.144582 40.486139 90.230735 74.747664 0 0 12.449226-68.523051 0-90.283043 0 0 140.079947 90.283043 146.461483 121.406108 0 0-24.898452-99.646116-40.486139-121.406108 0 0 211.636843 87.144582 211.636843 133.855334v31.384604h21.8123s29.344604-161.473785 56.701517-187.88916a4.550768 4.550768 0 0 0 0.941538-5.230767c-10.043073-21.498453-69.359974-143.846099-126.113799-152.37225h-49.953827S623.730127-1.70115 518.016321 1.385003 178.644142 82.304972 209.767207 287.76951l47.076905 142.799945z" fill="#926635" /><path d="M329.237931 303.775657s104.615345 49.953827 104.615345 51.209212-13.652303-68.679974-13.652303-68.679974L329.237931 216.107998zM433.853276 286.304895L580.157836 386.107934 475.176337 244.981833l-78.670739-12.449226 37.347678 53.772288zM537.631698 286.304895l213.676842 112.252265-12.606149-70.56305-172.196858-95.461503-46.919982 12.449226 18.046147 41.323062z" fill="#898989" opacity=".29" /><path d="M284.462563 429.680225s34.261525-121.406108 59.159978-149.390713c0 0 87.144582 40.433831 90.230735 74.695357 0 0 12.449226-68.470743 0-90.283043 0 0 140.079947 90.283043 146.461483 121.406108 0 0-24.898452-99.384578-40.486139-121.406108 0 0 211.636843 87.144582 211.636843 133.855334v31.123065h21.8123s29.292297-161.212247 56.649209-187.836852a4.707691 4.707691 0 0 0 0.993846-5.230767c-10.147688-21.655376-69.412281-143.793792-126.113799-152.319943h-49.953827S623.730127-2.956534 518.016321 0.077311 178.644142 81.101895 209.767207 286.514125l47.076905 143.636869z"  /><path d="M796.816215 183.154165a462.870594 462.870594 0 0 0-28.664604-43.101523l-20.923069 62.769207H674.311646l38.184601 47.599982L636.963968 287.76951l11.350765 27.984604a679.424358 679.424358 0 0 1 63.710745 36.615371l56.126133-34.470756-20.923069-69.203051h42.369214z" fill="#282828" /></svg>