<?xml version="1.0" encoding="UTF-8"?>
<svg width="128px" height="128px" viewBox="0 0 128 128" version="1.1" xmlns="http://www.w3.org/2000/svg" xmlns:xlink="http://www.w3.org/1999/xlink">
    <title>微博备份 2xxhdpi/</title>
    <g id="页面-1" stroke="none" stroke-width="1" fill="none" fill-rule="evenodd">
        <g id="QQ备份" transform="translate(13.000000, 7.000000)" fill-rule="nonzero">
            <path d="M48.1041528,105.506223 L54.6571244,105.506223 C55.7370149,105.506223 55.970173,105.972859 55.970173,105.972859 C57.4795653,107.385046 62.0200138,110.651497 71.3586119,110.651497 C78.8810305,110.651497 89.9989935,107.876242 89.9989935,101.920496 C89.9989935,95.8665105 85.8266895,94.1227663 85.2990158,93.594731 C84.771342,93.0666958 83.8141664,92.5141008 84.464555,91.2124326 C85.127215,89.9107644 86.5384355,87.2091889 87.0292948,86.4846754 C87.5201541,85.760162 89.0663609,85.5514039 89.679935,86.091719 C90.2935091,86.6320341 92.2692178,88.0196615 94.0117682,88.0196615 C97.4845977,88.0196615 98,81.3025624 98,77.3115985 C98,65.2527477 93.4595515,59.6408385 90.7352825,56.2884289 C89.2872475,54.4955651 88.1337282,53.0833779 88.5018727,51.3764734 C89.7903783,45.3961676 85.6671603,41.6630814 85.6303458,41.6262417 L85.0290432,38.0159544 C85.0290432,30.660301 76.7335211,4.67605634 50.3743771,4.67605634 C23.9047897,4.67605634 17.3886326,33.0794391 17.3886326,37.2300415 L16.7873299,39.5386606 C15.6828965,41.6016819 13.3881293,47.0785123 14.3330335,50.7379192 C14.9343361,53.0465383 13.2408715,54.7166031 11.4492351,56.4849071 C8.18502082,59.702238 3.23961344,64.5773538 4.0986172,77.2010795 C4.54039057,83.6480211 6.01296845,87.3565475 8.13593489,87.3565475 C9.81712797,87.3565475 11.5964929,85.5882435 12.4800396,84.9005698 C13.3635864,84.212896 14.1857757,83.9795781 15.0815939,84.654972 C15.7319825,85.1461676 18.5298804,90.4756393 18.7016812,91.7650276 C18.8612104,92.9193372 18.2230934,93.5578914 17.1063885,93.9140081 C14.4434768,94.3560841 12.2959674,97.904972 12.2959674,101.183702 C12.2959674,104.278234 16.5296288,110.676056 29.5987575,110.676056 C42.6556147,110.676056 46.7052039,106.193897 46.7420183,106.157057 C46.7542898,106.144777 47.0365339,105.506223 48.1041528,105.506223 Z" id="路径" fill="#4FA8B4"></path>
            <path d="M88.4668066,51.3598031 C89.7617423,45.3753376 85.617948,41.6396548 85.5809499,41.6027895 L84.9766465,37.989991 C84.9766465,30.7152402 76.7877198,5.24132413 51,4.67605634 L51,105.527204 L54.4408292,105.527204 C55.5261086,105.527204 55.7604303,105.994164 55.7604303,105.994164 C57.277355,107.407334 61.8404618,110.676056 71.2256626,110.676056 C78.7856206,110.676056 89.9590659,107.898871 89.9590659,101.938982 C89.9590659,95.8807862 85.7659407,94.1358291 85.2356337,93.6074266 C84.7053267,93.0790241 83.7433744,92.5260447 84.3970087,91.2234711 C85.0629756,89.9208975 86.4812385,87.2174428 86.9745474,86.4924255 C87.4678562,85.7674081 89.0217791,85.5585047 89.6384151,86.0991957 C90.2550512,86.6398866 92.2406193,88.0284792 93.9918657,88.0284792 C97.4820257,88.0284792 98,81.3067079 98,77.312968 C98,65.2457294 93.4368932,59.6299168 90.6990291,56.2751753 C89.2561008,54.4810645 88.1091577,53.0556065 88.4668066,51.3598031 Z" id="路径" fill="#FFFFFF" opacity="0.2"></path>
            <path d="M49.8908379,4.60392946 C55.5709968,4.60392946 60.8217701,5.86821363 65.4714034,8.37223274 C69.4830923,10.532563 73.0531274,13.5889392 76.0833634,17.4554393 C78.6474092,20.7450331 80.7820693,24.5747094 82.2419806,28.5516809 C83.4442604,31.8412747 84.1435457,35.1185938 84.1435457,37.5366907 L84.1435457,40.6298908 L85.1740713,41.7591543 C86.2291332,42.912967 88.5968884,46.104364 87.6399718,50.7196149 L87.4068767,51.8120546 L87.7871897,52.8553959 C88.1306983,53.812815 88.8177153,54.6843118 89.9095817,56.0222436 L89.934118,56.0467928 C92.6208455,59.3609358 97.0987245,64.896782 97.0987245,76.8031474 C97.0987245,82.6704078 95.99459,85.1376032 95.3321092,86.0950222 C94.7432375,86.9419699 94.178902,87.1138143 93.5164213,87.1138143 C92.7067226,87.1138143 91.676197,86.7578508 90.6211351,86.1195714 L87.1124408,83.996065 L85.1495349,87.5925239 C84.9041717,88.0344096 84.6465403,88.5253937 84.3766407,89.0409271 L82.806316,92.0236557 L85.5175798,94.0244161 C87.1492453,95.2273272 89.099883,97.4981289 89.099883,101.413727 C89.099883,102.542991 88.7073019,103.512685 87.8485305,104.470104 C86.9161502,105.50117 85.4439708,106.483139 83.5914784,107.293263 C79.4448397,109.097629 74.3044799,109.748183 70.8693946,109.748183 C67.0908008,109.748183 63.7170563,109.195826 60.8217701,108.115661 C58.4908193,107.244164 56.9941036,106.213097 56.1353323,105.50117 L55.0434659,104.59285 L46.8483338,104.59285 L45.731931,105.574818 C44.6155283,106.556786 40.1376493,109.748183 29.1208399,109.748183 C21.7599429,109.748183 17.6255723,107.698324 15.4541077,105.97988 C13.0618161,104.089591 12.215313,101.929261 12.215313,100.664977 C12.215313,98.0995845 13.6997605,95.3868971 15.7485436,94.2085352 L18.8769248,92.4041684 L17.3434046,89.1391239 L16.2515382,86.7946746 L14.2272915,82.4862888 L10.3750887,85.297173 C9.35683127,86.0336492 8.37537832,86.4632603 7.65155678,86.4632603 C7.24670744,86.4632603 6.63329935,86.4632603 5.86040515,85.0885047 C5.19792441,83.8978682 4.32688492,81.4797713 4.00791272,76.6926759 C3.6275997,71.1322805 4.32688492,66.6152264 6.14257287,62.9082962 C7.62702045,59.8641945 9.62673083,57.8879833 11.23386,56.3045595 C13.1108888,54.4510944 14.8897722,52.7081007 14.2272915,50.1795323 C13.50347,47.3931973 15.024722,42.4956305 16.84041,38.8868971 L17.220723,38.1258717 L17.2575275,37.278924 C17.3924773,33.7683874 19.5762101,25.4462062 24.8392515,18.0446203 C27.7100013,14.0185504 31.0837458,10.8394281 34.8623397,8.60545021 C39.3156824,5.92958664 44.3701651,4.60392946 49.8908379,4.60392946 M49.8908379,0.676056338 C22.9744909,0.676056338 13.6752242,28.6867016 13.356252,37.0825304 C12.4729444,38.8377987 9.12373619,46.0061671 10.4486977,51.1246768 C10.5345748,51.4560911 9.25868597,52.7203753 8.49805994,53.4691261 C5.00163382,56.9182897 -0.862547521,62.6873533 0.106637262,76.9258934 C0.70777719,85.8372556 3.24728669,90.3665843 7.66382494,90.3665843 C9.6021945,90.3665843 11.4056143,89.384616 12.6937713,88.4517461 L13.7856377,90.7961954 C10.5836474,92.6373859 8.28950119,96.5898082 8.28950119,100.664977 C8.28950119,105.697564 13.9451238,113.676056 29.1085718,113.676056 C41.1927112,113.676056 46.5784342,110.042774 48.308245,108.520723 L53.5958228,108.520723 C55.81636,110.374188 61.1407423,113.676056 70.8448583,113.676056 C79.4080352,113.676056 93.0011585,110.349639 93.0011585,101.426002 C93.0011585,95.6201146 89.8114364,92.35507 87.8239942,90.8821176 C88.1061619,90.3543097 88.3515252,89.8878747 88.5600839,89.4950874 C89.7991683,90.2438382 91.5903199,91.0539621 93.491885,91.0539621 C96.9147021,91.0539621 101,88.5867667 101,76.815422 C101,63.5097518 95.7614949,57.0533103 92.9520859,53.5795975 C92.3386778,52.8308467 91.5903199,51.9102514 91.4553701,51.5174641 C92.7925997,45.0978465 89.4556597,40.6421654 88.032553,39.0955654 L88.032553,37.5366907 C88.0693575,26.6859412 77.0893526,0.676056338 49.8908379,0.676056338 L49.8908379,0.676056338 Z" id="形状" fill="#3D3D63"></path>
            <path d="M14.1129283,50.4980127 C17.0086868,51.9695117 29.6391228,57.6760563 51.080058,57.6760563 C72.6811842,57.6760563 85.8907718,51.7541703 88.872787,50.2587446 C89.4889058,46.8970275 87.7268059,43.9540296 86.5931473,42.4825307 C82.9457238,44.4206024 72.0773877,49.0384772 51.080058,49.0384772 C30.7851038,49.0384772 20.0646362,43.4037129 16.0721862,40.6760563 C13.7309346,45.6528333 13.9034479,49.1581112 14.1129283,50.4980127 L14.1129283,50.4980127 Z" id="路径" fill="#EF845D"></path>
            <path d="M49.6750038,47.5967549 C49.6750038,47.5967549 46.0579916,53.1283079 49.4543048,58.6723756 C49.4543048,58.6723756 77.470823,59.1354242 88.9962178,49.674216 C88.9962178,49.674216 89.2169169,43.2165659 86.286524,40.6760563 C86.2742629,40.6760563 63.2234733,49.674216 49.6750038,47.5967549 L49.6750038,47.5967549 Z" id="路径" fill="#FFFFFF" opacity="0.2"></path>
            <path d="M15.7926523,40.9615067 C20.1379232,43.9046938 30.9580171,49.4792896 50.5794388,49.4792896 C61.3010563,49.4792896 70.6686234,48.2446476 78.4482585,45.8127769 C81.9934088,44.7028462 84.4430091,43.5679732 85.9324646,42.7698208 C86.2648224,43.2561949 86.6464184,43.8672804 86.9910858,44.5656637 C87.914302,46.4612757 88.2466598,48.3194744 87.9758498,50.090375 C86.6217993,50.7887584 83.5813406,52.2354097 78.8790928,53.6945321 C75.1369898,54.8543473 71.1240767,55.7772111 66.9388299,56.438181 C61.719581,57.2612757 56.2049029,57.6852942 50.5794388,57.6852942 C44.9416652,57.6852942 39.4762253,57.2737469 34.3185241,56.4755944 C30.1948251,55.8270956 26.2803884,54.9416453 22.6490713,53.8067723 C18.1807049,52.4224767 15.3125799,51.038181 14.0077677,50.3522688 C13.9339104,49.7910679 13.8846722,48.9305598 13.970839,47.808158 C14.1062441,46.2367954 14.5247687,43.8797515 15.7926523,40.9615067 M14.5616974,34.6760563 L13.4538379,36.7462642 C8.4561609,46.0372573 10.3272124,52.0857561 10.4133792,52.3476499 L10.6226416,52.9712065 L11.1765713,53.3203981 C11.730501,53.6571187 25.0371239,61.6760563 50.5794388,61.6760563 C76.1094442,61.6760563 90.1915686,53.4451095 90.782427,53.0959178 L91.3979045,52.7217838 L91.5825477,52.0234004 C93.5520756,44.7153173 87.9266116,38.90377 87.6804206,38.6543473 L86.6217993,37.58183 L85.4031539,38.4672804 C85.3046775,38.5421071 75.4447285,45.5009986 50.5794388,45.5009986 C26.0341974,45.5009986 16.3219629,36.4095436 16.2357961,36.3222457 L14.5616974,34.6760563 Z" id="形状" fill="#3D3D63"></path>
            <path d="M28,58.6760563 L28.0125561,76.402923 C28.0125561,77.6760563 28.1632287,77.6760563 28.9668161,77.6760563 L41.6484305,77.6760563 C41.7991031,77.6760563 41.8995516,77.6639313 41.9748879,77.6518062 C42,77.46993 42,77.1789281 42,77.009177 L42,60.3371923 C35.5587444,59.8643142 30.8627803,59.391436 28,58.6760563 L28,58.6760563 Z" id="路径" fill="#EF845D"></path>
            <path d="M42,76.7736173 L42,60.2492271 C39.7598499,60.0663002 37.7673546,59.8833734 36,59.6760563 L36,77.6760563 L41.684803,77.6760563 C41.8198874,77.6760563 41.9099437,77.6638612 41.9774859,77.6516661 C42,77.4687393 42,77.1760563 42,77.0053246 L42,76.7736173 Z" id="路径" fill="#FFFFFF" opacity="0.2"></path>
            <path d="M28.9781747,60.5789825 C30.0721727,60.8084298 31.5639882,61.0620294 33.6400981,61.3277052 C36.1388891,61.6537619 39.1100883,61.9556662 42.0066967,62.1851135 L42.0066967,77.811681 L29.5127419,77.811681 C29.3014014,77.811681 29.1522198,77.7875287 29.0651972,77.7633764 C29.0279019,77.6426146 28.9657429,77.389015 28.9657429,76.9301204 L28.9657429,60.5789825 M25,55.6760563 L25,76.9421966 C25,81.0601715 27.8344495,81.6760563 29.5251737,81.6760563 L42.0812875,81.6760563 C43.3120353,81.6760563 44.2817153,81.3258473 44.9778959,80.6495817 C46.0221668,79.623107 46.009735,78.2343471 45.9973032,77.4977006 L45.9973032,58.5984902 L44.3314425,58.4898046 C37.543682,58.03091 29.4630147,57.05274 28.0333582,56.2677888 L25,55.6760563 L25,55.6760563 Z" id="形状" fill="#3D3D63"></path>
            <path d="M43.9880596,13.1531491 C43.9880596,13.1531491 45.435152,12.6162394 44.8683741,10.8431886 C44.2895371,9.07013787 42.63744,9.84428679 42.63744,9.84428679 C42.1671349,10.0440672 33.5086987,12.7535884 28.3956389,21.7312185 C28.2026932,22.2181831 28.1303386,23.2545438 29.3965445,23.8663712 C30.747164,24.5156573 31.446592,23.4418379 31.8324834,22.8424968 C36.463179,15.3881919 43.8554094,13.2155804 43.9880596,13.1531491 L43.9880596,13.1531491 Z M24.0061253,32.9438915 C24.0061253,32.9438915 23.8372978,34.2424639 25.2723311,34.5920795 C27.0932557,35.0290991 27.4067924,33.6181502 27.4067924,33.6181502 C27.7565064,31.7452093 28.3112252,30.0221037 28.9985941,28.436347 C29.227717,27.7870608 29.227717,26.9379943 27.7565064,26.3885983 C26.6711871,25.9890375 26.0923501,26.513461 25.6220451,27.4249589 C24.9346762,29.123092 24.3678984,30.9585741 24.0061253,32.9438915 Z" id="形状" fill="#C7E8EF"></path>
        </g>
    </g>
</svg>