<?xml version="1.0" encoding="UTF-8"?>
<svg width="128px" height="128px" viewBox="0 0 128 128" version="1.1" xmlns="http://www.w3.org/2000/svg" xmlns:xlink="http://www.w3.org/1999/xlink">
    <title>微博备份xxhdpi/</title>
    <g id="页面-1" stroke="none" stroke-width="1" fill="none" fill-rule="evenodd">
        <g id="微信" transform="translate(0.000000, 12.000000)" fill-rule="nonzero">
            <path d="M14.499115,41.359292 C14.499115,57.9219696 30.0431546,71.3486726 49.2176991,71.3486726 C68.3922436,71.3486726 83.9362832,57.9219696 83.9362832,41.359292 C83.9362832,24.7966145 68.3922436,11.3699115 49.2176991,11.3699115 C30.0431546,11.3699115 14.499115,24.7966145 14.499115,41.359292 Z" id="路径" fill="#41B035"></path>
            <path d="M59.3415929,64.2973451 C59.3415929,72.9223057 64.3639586,80.892098 72.516814,85.2045783 C80.6696694,89.5170586 90.7144014,89.5170586 98.8672568,85.2045783 C107.020112,80.892098 112.042478,72.9223057 112.042478,64.2973451 C112.042478,50.9643115 100.244983,40.1557522 85.6920354,40.1557522 C71.1390879,40.1557522 59.3415929,50.9643115 59.3415929,64.2973451 Z" id="路径" fill="#41B035"></path>
            <path d="M61.9044248,31.4619469 C65.1610619,31.4619469 67.3415929,29.2814159 67.3415929,26.0247788 C67.3415929,22.739823 65.1610619,20.6017699 61.9044248,20.6017699 C58.6336283,20.6017699 55.3628319,22.7256637 55.3628319,26.0247788 C55.3628319,29.2814159 58.6477876,31.4619469 61.9044248,31.4619469 L61.9044248,31.4619469 Z M31.4619469,20.6017699 C28.2053097,20.6017699 24.9061947,22.7256637 24.9061947,26.0247788 C24.9061947,29.2814159 28.2053097,31.4619469 31.4619469,31.4619469 C34.7185841,31.4619469 36.8849558,29.2814159 36.8849558,26.0247788 C36.8849558,22.739823 34.7185841,20.6017699 31.4619469,20.6017699 Z M126.980531,66.279646 C126.980531,49.0761062 111.023009,34.4070796 91.4265487,32.8920354 C91.4548673,32.679646 91.4690265,32.4530973 91.4123894,32.240708 C87.4902655,13.9185841 67.780531,0.113274336 45.5929204,0.113274336 C20.5168142,0.113274336 0.113274336,17.6 0.113274336,39.0938053 C0.113274336,50.6336283 6.00353982,61.0123894 17.1610619,69.2106195 L13.2672566,80.9061947 C13.0123894,81.6707965 13.2389381,82.5061947 13.8477876,83.0300885 C14.2159292,83.3415929 14.6831858,83.5115044 15.1504425,83.5115044 C15.4477876,83.5115044 15.759292,83.440708 16.0424779,83.299115 L30.640708,75.9929204 L32.4389381,76.3610619 C36.9415929,77.2814159 40.8212389,78.0884956 45.5929204,78.0884956 C46.9946903,78.0884956 50.8743363,77.5787611 51.2,77.1539823 C56.4672566,90.3221239 70.980531,99.8371681 88.0566372,99.8371681 C92.4318584,99.8371681 96.8637168,98.7893805 100.828319,97.7840708 L112.084956,103.943363 C112.382301,104.099115 112.707965,104.184071 113.033628,104.184071 C113.472566,104.184071 113.925664,104.028319 114.279646,103.745133 C114.902655,103.235398 115.157522,102.4 114.930973,101.635398 L112.056637,92.0778761 C121.684956,84.4743363 126.980531,75.3557522 126.980531,66.279646 L126.980531,66.279646 Z M49.359292,72.7787611 C48.1132743,72.8920354 46.8530973,72.9345133 45.6070796,72.9345133 C41.3876106,72.9345133 37.819469,72.1982301 33.6849558,71.3486726 L31.2778761,70.8672566 C30.8672566,70.7823009 30.4283186,70.8389381 30.0460177,71.0371681 L19.4973451,76.3185841 L22.2442478,68.0778761 C22.5132743,67.2707965 22.2159292,66.3929204 21.5221239,65.9115044 C10.9168142,58.520354 5.55044248,49.5150442 5.55044248,39.1646018 C5.55044248,20.5451327 23.5185841,5.38053097 45.6070796,5.38053097 C65.1327434,5.38053097 82.4212389,17.260177 85.9893805,33.0619469 C65.5150442,33.3309735 48.9486726,47.7168142 48.9486726,65.4017699 C48.9486726,67.9646018 49.3451327,70.4566372 49.9964602,72.8637168 C49.7840708,72.7929204 49.5858407,72.7646018 49.359292,72.7787611 L49.359292,72.7787611 Z M107.568142,88.6654867 C106.945133,89.1469027 106.676106,89.9539823 106.902655,90.7185841 L108.686726,96.6513274 L101.366372,92.6442478 C101.083186,92.4884956 100.771681,92.4176991 100.460177,92.4176991 C100.304425,92.4176991 100.148673,92.4318584 99.9929204,92.4743363 C96.0707965,93.4654867 92.0070796,94.4849558 88.0566372,94.4849558 C69.6920354,94.4849558 54.7539823,81.8548673 54.7539823,66.3504425 C54.7539823,50.8460177 69.6920354,38.2159292 88.0566372,38.2159292 C106.067257,38.2159292 121.302655,51.100885 121.302655,66.3504425 C121.288496,74.0672566 116.417699,81.9964602 107.568142,88.6654867 Z M76.0495575,52.1486726 C73.8690265,52.1486726 71.7026549,54.3433628 71.7026549,56.5097345 C71.7026549,58.7044248 73.8831858,60.8566372 76.0495575,60.8566372 C79.320354,60.8566372 81.4867257,58.6902655 81.4867257,56.5097345 C81.4867257,54.3292035 79.320354,52.1486726 76.0495575,52.1486726 Z M99.9646018,52.1486726 C97.8123894,52.1486726 95.6460177,54.3433628 95.6460177,56.5097345 C95.6460177,58.7044248 97.8265487,60.8566372 99.9646018,60.8566372 C103.221239,60.8566372 105.430088,58.6902655 105.430088,56.5097345 C105.430088,54.3292035 103.235398,52.1486726 99.9646018,52.1486726 Z" id="形状" fill="#4D4D4D"></path>
        </g>
    </g>
</svg>