<?xml version="1.0" encoding="UTF-8"?>
<svg width="128px" height="128px" viewBox="0 0 128 128" version="1.1" xmlns="http://www.w3.org/2000/svg" xmlns:xlink="http://www.w3.org/1999/xlink">
    <title>微博xxhdpi/</title>
    <g id="页面-1" stroke="none" stroke-width="1" fill="none" fill-rule="evenodd">
        <g id="微博" transform="translate(4.000000, 15.000000)" fill-rule="nonzero">
            <path d="M11,66.8578866 C11,80.108531 28.2362415,90.8571429 49.5008781,90.8571429 C70.7636236,90.8571429 88,80.1086662 88,66.8578866 C88,53.6030502 70.7636235,42.8571429 49.5008781,42.8571429 C28.2362415,42.8571429 11,53.6030502 11,66.8578866" id="路径" fill="#FFFFFF"></path>
            <path d="M49.0006815,93.8571429 C26.392936,93.8571429 8,81.969518 8,67.3574857 C8,52.7454534 26.392936,40.8571429 49.0006815,40.8571429 C71.607064,40.8571429 90,52.7454534 90,67.3574857 C90,81.969518 71.607064,93.8571429 49.0006815,93.8571429 Z M49.0006815,45.1844654 C28.7650442,45.1844654 12.3017715,55.1310409 12.3017715,67.3574857 C12.3017715,79.5832448 28.7650442,89.5298204 49.0006815,89.5298204 C69.2363189,89.5298204 85.6982283,79.5832448 85.6982283,67.3574857 C85.6982283,55.1310409 69.2363189,45.1844654 49.0006815,45.1844654 L49.0006815,45.1844654 Z" id="形状" fill="#885F44"></path>
            <path d="M88.1061171,47.5560457 C86.4918607,47.0699224 85.3849536,46.7401017 86.2314441,44.6123898 C88.0615793,39.9935348 88.2515801,36.0080883 86.2659029,33.1656739 C82.5448865,27.831843 72.3637117,28.1208119 60.6939941,33.0218044 C60.6939941,33.0153829 57.0296374,34.6301924 57.9657482,31.7141352 C59.7615608,25.9256055 59.4910653,21.0758486 56.6971704,18.277292 C50.3651773,11.9214818 33.5285315,18.5170746 19.0909334,32.9959816 C8.27832991,43.8448122 2,55.3405778 2,65.2815136 C2,84.2963423 26.3076894,95.8571429 50.088144,95.8571429 C81.2628248,95.8571429 102,77.6877699 102,63.2624211 C102,54.5469042 94.6815017,49.6008244 88.1061171,47.5560457 L88.1061171,47.5560457 Z M50.1518862,89.0418519 C31.1762008,90.9202173 14.7959652,82.3157791 13.5632083,69.817572 C12.3307237,57.3225073 26.7194256,45.6683897 45.6930679,43.7863353 C64.6707963,41.9041444 81.0518491,50.5087192 82.281882,63.0013245 C83.5125959,75.5033571 69.1301593,87.1585679 50.1518862,89.0418519 Z" id="形状" fill="#FF713C"></path>
            <path d="M50.0942294,97.8571429 C25.4698949,97.8571429 0,85.6593374 0,65.246536 C0,54.9470956 6.27569931,42.9842375 17.6705299,31.5619223 C28.4039599,20.8066075 41.0587109,13.8571429 49.9127857,13.8571429 C53.3505744,13.8571429 56.2164621,14.9088257 58.1990339,16.8973039 C61.2489457,19.948627 62.0135628,24.7606952 60.4397827,30.8773619 C66.3276053,28.4734378 71.8639485,27.2057284 76.4862823,27.2057284 C81.7713749,27.2057284 85.7255177,28.8698266 87.924301,32.0183412 C90.2542777,35.3529353 90.3310111,39.8502882 88.1502907,45.3851671 C88.3051155,45.4348518 88.4683605,45.4837198 88.6120488,45.527143 C98.2572237,48.524017 104,55.1406619 104,63.2346448 C104,79.5783348 80.947001,97.8571429 50.0942294,97.8571429 Z M49.9129215,18.1531706 C42.1373233,18.1531706 30.6713277,24.6090547 20.7010209,34.5993608 C10.1154892,45.2106579 4.28620124,56.0946086 4.28620124,65.246536 C4.28620124,82.9702364 27.5767341,93.5611153 50.0943653,93.5611153 C80.8368582,93.5611153 99.7142062,75.8982617 99.7142062,63.234917 C99.7142062,54.1780032 90.2643277,50.5379501 87.3678824,49.6380439 C86.1986839,49.2863033 84.7308366,48.8437688 84.0333103,47.3935192 C83.3231536,45.9189037 83.9412302,44.3673788 84.143589,43.8575999 C85.2695996,41.0180835 86.2322293,37.0842779 84.4129026,34.4825677 C82.6925822,32.0184773 79.1529352,31.5018922 76.486554,31.5018922 C72.2701598,31.5018922 67.0869257,32.7415603 61.496258,35.0881769 L61.0972448,35.2560159 L61.0596251,35.2553354 C60.4289179,35.480482 59.6266811,35.6931055 58.8411492,35.6931055 C57.3412504,35.6931055 56.5572125,34.9233325 56.2236602,34.4645995 C55.5888787,33.5905566 55.4828102,32.4739433 55.9098005,31.1447066 C57.5059894,26.001316 57.2450962,22.0137422 55.1703086,19.9363759 C53.9897019,18.752382 52.2206254,18.1531706 49.9129215,18.1531706 L49.9129215,18.1531706 Z M44.996149,91.3236689 C26.8316738,91.3236689 12.7621777,82.3457062 11.5400127,69.9766585 C10.8730439,63.2124567 14.1575017,56.5307453 20.7903846,51.1622081 C27.1637321,46.0041163 35.9397156,42.6409365 45.5012308,41.6935236 C47.2895758,41.5161045 49.0855296,41.426746 50.8826135,41.4257705 C69.0442366,41.4257705 83.1095225,50.3995135 84.3289713,62.7636607 C85.6683413,76.3745545 70.4338567,89.066621 50.3677532,91.0565965 C48.5826412,91.2334469 46.7899597,91.3225778 44.996149,91.3236689 Z M50.8826135,45.7217982 C49.2459528,45.7217982 47.5758826,45.8049691 45.9225171,45.9685884 C37.1827954,46.8348724 29.2132588,49.8660492 23.4831131,54.5045612 C18.0110086,58.9333083 15.2847347,64.2781602 15.8065214,69.5537258 C16.7887079,79.5154461 29.3388843,87.0277775 44.9960132,87.0277775 C46.63118,87.0277775 48.2956818,86.9446066 49.9463311,86.7816678 C67.6601847,85.0252786 81.1714969,74.4398447 80.0623269,63.186049 C79.0814985,53.2299096 66.5370262,45.7217982 50.8826135,45.7217982 L50.8826135,45.7217982 Z" id="形状" fill="#885F44"></path>
            <path d="M109.217472,12.9325927 C101.722282,4.53587929 90.6669623,1.33487368 80.4629277,3.52715563 L80.4587242,3.52715563 C78.0974174,4.03782026 76.592142,6.38520607 77.0977875,8.76657226 C77.601128,11.1501307 79.9232469,12.6732185 82.2845537,12.164472 C89.5439382,10.6068558 97.4000901,12.8851848 102.728014,18.8499725 C108.051192,24.8142123 109.497211,32.9494962 107.217263,40.080989 L107.218483,40.0823592 C106.475541,42.4054929 107.733214,44.8905813 110.034858,45.6414379 C112.327416,46.3916093 114.792049,45.1225521 115.53594,42.8050363 C115.53594,42.8007888 115.53594,42.7918827 115.537161,42.7880461 C118.735786,32.7564384 116.714967,21.3209483 109.217472,12.9325927" id="路径" fill="#F7D11E"></path>
            <path d="M111.299944,47.8571429 L111.298596,47.8571429 C110.623,47.8571429 109.952794,47.7495061 109.306307,47.5384508 C107.661452,47.0016276 106.32131,45.8510976 105.533451,44.2987326 C104.747074,42.7463676 104.605836,40.9765517 105.1375,39.3150532 C107.241917,32.733423 105.702316,25.4571203 101.119634,20.3259334 C97.4824899,16.2572349 92.2781182,13.9232443 86.8411352,13.9232443 C85.4908189,13.9234313 84.1442181,14.0660888 82.8232691,14.3488928 C82.3790672,14.4445615 81.9261356,14.4928164 81.471941,14.4928622 C78.4412573,14.4928622 75.78011,12.3183537 75.1460222,9.32248528 C74.7832243,7.61839452 75.1016832,5.87239225 76.0431789,4.40725239 C76.983327,2.94292914 78.4314191,1.93568818 80.1206129,1.57004958 L80.350394,1.52255873 C82.4875829,1.08033353 84.6635739,0.857142857 86.8451783,0.857142857 C95.9400596,0.857142857 104.644515,4.76309345 110.729467,11.5725164 C118.316688,20.055957 120.918133,32.0686874 117.555109,42.9978377 L117.555109,43.0181131 L117.451337,43.3410236 C116.583156,46.0418773 114.111898,47.8571429 111.299944,47.8571429 L111.299944,47.8571429 Z M86.8410004,9.62865826 C93.4797178,9.62865826 99.8347468,12.4790606 104.277674,17.4495405 C109.875302,23.7152002 111.755463,32.5984347 109.185824,40.6332298 C108.809279,41.8082536 109.45024,43.0726799 110.614644,43.4521983 C111.683496,43.8016437 112.84507,43.2641401 113.301936,42.2807125 L113.301936,42.2688738 L113.452878,41.8711211 C116.455934,32.4426266 114.22133,21.8845579 107.571427,14.4502701 C102.292258,8.54045145 94.7369772,5.15172907 86.8451783,5.15172907 C84.8848226,5.15172907 82.9298723,5.35932511 81.0122442,5.77033455 L80.9541587,5.7828536 C80.4010978,5.91650031 79.9204812,6.2605599 79.6125341,6.74328416 C79.2898973,7.24445532 79.1805997,7.84074409 79.3051262,8.42356142 C79.5543139,9.60620551 80.7436497,10.3974926 81.9385111,10.148608 C83.5502216,9.80299464 85.1933432,9.62872795 86.8410004,9.62865826 L86.8410004,9.62865826 Z" id="形状" fill="#885F44"></path>
            <path d="M97.1706412,23.7411906 C93.4825224,19.6663213 88.0361,18.1188075 83.0089284,19.1831584 C80.9543524,19.6190836 79.6447762,21.6329675 80.0852776,23.6808463 C80.524682,25.7201241 82.5453944,27.0303568 84.5951719,26.5862402 L84.5951719,26.5904726 C87.0526839,26.0731784 89.7174906,26.8276169 91.5204887,28.8158342 C93.3254061,30.8082838 93.8104648,33.5228154 93.0361258,35.9047715 L93.0402387,35.9047715 C92.3961443,37.8927157 93.488966,40.0307012 95.4873312,40.6748273 C97.4861077,41.3119906 99.6303469,40.2268879 100.275264,38.2336192 C101.854926,33.3652652 100.866438,27.8152406 97.1706412,23.7411906" id="路径" fill="#F7D11E"></path>
            <path d="M96.5784652,42.8571429 C95.9680081,42.8571429 95.361747,42.7621587 94.7763309,42.5758336 C91.6823555,41.5771517 89.9817384,38.2609393 90.9772843,35.1804333 C91.5292675,33.4700454 91.1273945,31.582237 89.9246179,30.2536744 C88.7371367,28.9431911 86.8543299,28.3464375 85.1160838,28.7116673 L82.5379513,29.255667 L82.5379513,28.6825245 C80.3727912,28.1683423 78.615189,26.439875 78.1326437,24.2005987 C77.8030509,22.6641235 78.0923075,21.0929736 78.9488424,19.7756093 C79.8040239,18.4587848 81.1222593,17.5537377 82.661667,17.2265553 C83.8200652,16.9810093 85.0010977,16.8571429 86.1853989,16.8571429 C90.9452048,16.8571429 95.4979155,18.8731257 98.6754058,22.3883458 C102.685744,26.8126606 104.031862,33.0986092 102.186549,38.7905025 C101.399452,41.2221757 99.145363,42.8571429 96.5784652,42.8571429 L96.5784652,42.8571429 Z M86.8097977,24.3646621 C89.2141325,24.5281858 91.4764785,25.6141614 93.0965586,27.4002396 C95.3172148,29.8556588 96.0612687,33.3375535 95.0405464,36.4887578 C94.7679386,37.3343049 95.2365423,38.2483916 96.0848207,38.5221455 C96.9025084,38.7820025 97.8536574,38.3093758 98.1205801,37.4825827 C99.498643,33.2315059 98.4960586,28.5416675 95.5036005,25.2400267 C92.5430865,21.9640207 87.8819554,20.4705852 83.5504169,21.3908782 C83.1314767,21.4792933 82.7654361,21.7311016 82.5338906,22.0901714 C82.2994819,22.44986 82.2188869,22.8879653 82.3100113,23.3071548 C82.4922009,24.156075 83.3557745,24.7285428 84.2205661,24.5442413 L86.8097977,23.9828369 L86.8097977,24.3646621 L86.8097977,24.3646621 Z" id="形状" fill="#885F44"></path>
            <path d="M52.4934255,53.485011 C43.5488433,51.1159223 33.4389842,55.6542375 29.5539187,63.6783975 C25.5970774,71.8623099 29.4230494,80.9469075 38.4601845,83.9165445 C47.8208503,86.9900275 58.8544851,82.2804214 62.6905758,73.4463727 C66.473914,64.8114997 61.7502054,55.9208578 52.4934255,53.485011 Z M45.663395,74.3845578 C43.8451206,77.3378487 39.9518252,78.6319396 37.0195424,77.2687554 C34.1292187,75.9289228 33.2761395,72.4992593 35.0945489,69.6193198 C36.890562,66.7517431 40.653123,65.474273 43.5635492,66.7167157 C46.508649,67.9944604 47.4487497,71.402146 45.663395,74.3845578 L45.663395,74.3845578 Z M51.6528935,66.5581996 C50.9954437,67.7020161 49.5422544,68.2528392 48.4035562,67.7757796 C47.2841511,67.3068245 46.9332324,66.0266072 47.5693654,64.9022963 C48.2242517,63.7836171 49.6207761,63.2374644 50.7376177,63.6886997 C51.8724032,64.111089 52.2802569,65.4055919 51.6528935,66.5581996 Z" id="形状" fill="#FF713C"></path>
            <path d="M43.9005713,86.8571429 L43.8991976,86.8571429 C41.5776241,86.8571429 39.3097628,86.5083312 37.1604528,85.8218678 C32.0389793,84.1839638 28.1637375,80.8143864 26.2486455,76.3326401 C24.4084208,72.0263203 24.6073344,67.2125022 26.8117301,62.7777087 C30.3596163,55.6471444 38.5279832,50.8571429 47.1393723,50.8571429 C49.0220446,50.8571429 50.8805398,51.0900015 52.6601838,51.5485058 C57.9848294,52.9124505 62.2849602,56.2504539 64.4526779,60.7056615 C66.5074765,64.9280106 66.5159935,69.7489057 64.476718,74.2788296 C61.1192282,81.7993062 52.849344,86.8571429 43.9005713,86.8571429 L43.9005713,86.8571429 Z M47.1393723,55.1521668 C40.140996,55.1521668 33.5349519,58.979568 30.7011211,64.6755543 C29.0626947,67.9731374 28.8989482,71.5180054 30.241065,74.6582626 C31.6579116,77.9725855 34.5877649,80.4857168 38.4913052,81.7342528 C40.210231,82.2829881 42.0293007,82.561983 43.8991976,82.561983 L43.9005713,82.561983 C51.0471711,82.561983 57.8790535,78.4395277 60.5138332,72.5358603 C62.028076,69.1726793 62.0393404,65.6352967 60.5477639,62.570572 C58.9347512,59.2555688 55.6633932,56.7535972 51.5722039,55.7056653 C50.1453292,55.3380726 48.6549889,55.1521668 47.1393723,55.1521668 Z M38.9315798,79.8762831 C37.6994975,79.8762831 36.5310179,79.6302232 35.4570498,79.1450444 C33.5180552,78.2698172 32.1293696,76.7088069 31.5478773,74.7486297 C30.9368502,72.6933222 31.3121484,70.3983512 32.5752766,68.4513754 C34.2928288,65.7815987 37.3678834,64.1191976 40.59542,64.1191976 C41.744118,64.1191976 42.8421261,64.333139 43.8596347,64.7559864 C44.1514903,64.87913 44.435667,65.0194213 44.7106492,65.1761118 C44.810963,64.7159263 44.9833425,64.2741258 45.2215328,63.8667413 C46.4309489,61.8519901 49.0375676,60.9187863 51.1261596,61.7408005 C52.1859784,62.1239081 53.0610331,62.9768158 53.4688881,64.059588 C53.8978983,65.1984314 53.7822317,66.4965061 53.152797,67.6213318 C52.1324037,69.3521886 50.0537025,70.3407831 48.1471274,70.0519894 C48.4463219,71.8409589 48.0511049,73.7598991 47.0110675,75.4515607 C45.3032686,78.1488287 42.1378239,79.8762831 38.9315798,79.8762831 L38.9315798,79.8762831 Z M40.59542,68.4142216 C38.8609711,68.4142216 37.1463036,69.3377626 36.2261913,70.7666245 C35.6306871,71.6844496 35.4485329,72.6659671 35.7067907,73.536295 C35.9311179,74.2927114 36.467415,74.880642 37.2563379,75.2363945 C37.7615892,75.4657146 38.3246738,75.5809871 38.9314425,75.5809871 C40.6814144,75.5809871 42.4045989,74.6435644 43.3232001,73.1929272 C43.8948017,72.2624453 44.0626693,71.2565667 43.7789977,70.3833809 C43.5362628,69.6311835 42.9801841,69.0530517 42.1716172,68.7118614 C41.6989228,68.5156122 41.1641367,68.4142216 40.59542,68.4142216 L40.59542,68.4142216 Z" id="形状" fill="#885F44"></path>
        </g>
    </g>
</svg>