<?xml version="1.0" standalone="no"?><!DOCTYPE svg PUBLIC "-//W3C//DTD SVG 1.1//EN" "http://www.w3.org/Graphics/SVG/1.1/DTD/svg11.dtd"><svg class="icon" width="128px" height="128.00px" viewBox="0 0 1024 1024" version="1.1" xmlns="http://www.w3.org/2000/svg"><path d="M77.495808 195.157333L769.873408 9.642667a102.4 102.4 0 0 1 125.405867 72.362666l123.682133 461.653334a102.4 102.4 0 0 1-72.413867 125.44l-692.360533 185.514666a102.4 102.4 0 0 1-125.422933-72.533333L5.081941 320.597333a102.4 102.4 0 0 1 72.413867-125.44z" fill="#FEC69D" /><path d="M51.230208 266.666667m102.4 0l716.8 0q102.4 0 102.4 102.4l0 546.133333q0 102.4-102.4 102.4l-716.8 0q-102.4 0-102.4-102.4l0-546.133333q0-102.4 102.4-102.4Z" fill="#FC9E15" /><path d="M119.496875 334.933333m68.266666 0l648.533334 0q68.266667 0 68.266666 68.266667l0 477.866667q0 68.266667-68.266666 68.266666l-648.533334 0q-68.266667 0-68.266666-68.266666l0-477.866667q0-68.266667 68.266666-68.266667Z" fill="#FFF5E6" /><path d="M513.378475 564.138667a6.519467 6.519467 0 0 0-1.706667 0.341333 69.3248 69.3248 0 0 0-63.146667-57.002667c-29.166933 0-50.5344 25.088-57.105066 57.002667a6.638933 6.638933 0 0 0-1.809067-0.341333 19.5072 19.5072 0 0 0 0 34.645333 6.4512 6.4512 0 0 0 1.809067-0.170667c6.570667 31.744 27.938133 60.586667 57.105066 60.586667s56.6272-28.842667 63.146667-60.586667a6.331733 6.331733 0 0 0 1.706667 0.170667 19.5072 19.5072 0 0 0 0-34.645333z" fill="#FFFFFF" /><path d="M286.989141 737.536l-29.9008-59.050667-35.191466 14.848a51.2 51.2 0 0 0-34.133334 34.133334v68.266666h221.866667v-68.266666a51.319467 51.319467 0 0 0-34.133333-34.133334l-31.624534-14.848-29.9008 59.050667" fill="#FF7058" /><path d="M251.473408 616.362667a3.9936 3.9936 0 0 0 1.416533-0.170667 49.493333 49.493333 0 0 0 46.574934 43.008 51.524267 51.524267 0 0 0 48.605866-43.008 3.9936 3.9936 0 0 0 1.416534 0.170667 12.049067 12.049067 0 0 0 8.328533-13.653334 14.779733 14.779733 0 0 0-5.853867-13.141333 60.142933 60.142933 0 0 0-2.833066-22.528 14.148267 14.148267 0 0 0-8.192-10.069333 24.968533 24.968533 0 0 0-16.0768-24.576 40.0896 40.0896 0 0 0-25.3952-5.973334 125.5936 125.5936 0 0 0-21.5552 7.850667 52.906667 52.906667 0 0 0-29.013334 48.64 36.608 36.608 0 0 0 0.392534 6.485333 14.6944 14.6944 0 0 0-6.109867 13.312 12.049067 12.049067 0 0 0 8.2944 13.653334z" fill="#FFFFFF" /><path d="M280.845141 507.477333a75.093333 75.093333 0 0 0-37.239466 75.946667s11.946667-11.264 18.619733-19.114667a68.676267 68.676267 0 0 1 37.239467-18.944c12.6976-0.853333-4.6592-11.946667 18.619733 0s32.802133 51.370667 37.239467 38.058667c9.045333-27.477333-16.196267-88.917333-74.478934-75.946667z" fill="#324A5E" /><path d="M580.296875 727.466667a42.120533 42.120533 0 0 0-34.133334-34.133334l-34.133333-17.066666s-14.353067 51.029333-51.2 51.2c-63.146667 0.341333-68.266667-51.2-68.266667-51.2l-34.133333 17.066666a42.120533 42.120533 0 0 0-34.133333 34.133334l-17.066667 102.4h290.133333z" fill="#37DCFF" /><path d="M495.304875 540.757333a11.383467 11.383467 0 0 0-6.826667-6.314666 13.8752 13.8752 0 0 0-9.540267 3.584 125.696 125.696 0 0 1-64.9728 14.848 15.240533 15.240533 0 0 0-9.096533 2.56 15.4624 15.4624 0 0 0-3.976533 11.946666l-0.546134 14.165334a16.469333 16.469333 0 0 1-11.537066-9.557334 36.488533 36.488533 0 0 1-2.525867-15.530666 66.833067 66.833067 0 0 1 36.727467-61.44 81.0496 81.0496 0 0 1 20.0704-5.12 72.789333 72.789333 0 0 1 39.253333 2.730666 31.761067 31.761067 0 0 1 20.343467 31.232 17.8688 17.8688 0 0 1 10.3424 12.629334 75.4176 75.4176 0 0 1 2.4576 37.546666 15.36 15.36 0 0 1-2.645334 6.826667 5.717333 5.717333 0 0 1-6.519466 1.877333 82.8928 82.8928 0 0 0-11.008-41.984z" fill="#324A5E" /><path d="M614.430208 488.533333m17.066667 0l136.533333 0q17.066667 0 17.066667 17.066667l0 0q0 17.066667-17.066667 17.066667l-136.533333 0q-17.066667 0-17.066667-17.066667l0 0q0-17.066667 17.066667-17.066667Z" fill="#FC9E15" /><path d="M614.430208 573.866667m17.066667 0l204.8 0q17.066667 0 17.066666 17.066666l0 0q0 17.066667-17.066666 17.066667l-204.8 0q-17.066667 0-17.066667-17.066667l0 0q0-17.066667 17.066667-17.066666Z" fill="#FC9E15" /></svg>