<?xml version="1.0" standalone="no"?><!DOCTYPE svg PUBLIC "-//W3C//DTD SVG 1.1//EN" "http://www.w3.org/Graphics/SVG/1.1/DTD/svg11.dtd"><svg class="icon" width="128px" height="127.88px" viewBox="0 0 1025 1024" version="1.1" xmlns="http://www.w3.org/2000/svg"><path d="M531.0144 753.121385a421.237385 421.237385 0 0 1-232.3188-129.179465 32.167218 32.167218 0 0 0-45.953169 0 31.146037 31.146037 0 0 0-9.190634 25.529539 30.124855 30.124855 0 0 0 13.27536 23.487175 417.663249 417.663249 0 0 1 128.668874 250.700068 135.817145 135.817145 0 1 0 145.518369-170.537317z m0 0" fill="#FB6500" /><path d="M942.55056 380.900714a135.817145 135.817145 0 0 0-153.17723 27.571902 136.327735 136.327735 0 0 0-38.804899 81.694523 415.620886 415.620886 0 0 1-128.158283 231.297618 32.677809 32.677809 0 0 0 0 44.931988 32.167218 32.167218 0 0 0 44.421397 3.063545 37.783717 37.783717 0 0 0 6.127089-6.63768A411.53616 411.53616 0 0 1 919.063385 634.664326a134.795963 134.795963 0 0 0 102.118154-119.47824 135.817145 135.817145 0 0 0-78.120388-134.285372z m0 0" fill="#0082EF" /><path d="M405.409071 39.82608a135.306554 135.306554 0 0 0 81.694523 230.276437 415.110296 415.110296 0 0 1 231.808209 129.179465 32.677809 32.677809 0 0 0 56.164985-18.381268 32.167218 32.167218 0 0 0-14.807132-31.146037 417.152659 417.152659 0 0 1-128.158283-248.147114A135.817145 135.817145 0 0 0 405.409071 39.82608z m0 0" fill="#2DBC00" /><path d="M353.839403 254.784794a415.620886 415.620886 0 0 1-255.295384 132.7536 135.817145 135.817145 0 0 0 71.482707 261.933065 136.838326 136.838326 0 0 0 99.05461-116.414696 415.110296 415.110296 0 0 1 128.158283-231.297618 33.494754 33.494754 0 0 0-43.400216-51.059077z m0 0" fill="#FFCC00" /></svg>