<?xml version="1.0" encoding="UTF-8"?>
<svg width="800px" height="800px" viewBox="0 0 800 800" version="1.1" xmlns="http://www.w3.org/2000/svg" xmlns:xlink="http://www.w3.org/1999/xlink">
    <title>开发手机应用程序xxhdpi/</title>
    <defs>
        <rect id="path-1" x="0" y="0" width="800" height="800"></rect>
    </defs>
    <g id="页面-1" stroke="none" stroke-width="1" fill="none" fill-rule="evenodd">
        <g id="开发手机应用程序">
            <mask id="mask-2" fill="white">
                <use xlink:href="#path-1"></use>
            </mask>
            <use id="蒙版" fill="#FFFFFF" fill-rule="nonzero" xlink:href="#path-1"></use>
            <g mask="url(#mask-2)">
                <g transform="translate(-27.000000, 260.000000)">
                    <g id="bg_2_">
                        <g id="Group" fill="#F3F9FF" fill-rule="nonzero">
                            <path d="M732.544961,15.732494 C715.620102,15.732494 700.424991,25.412005 692.749141,39.7780089 C690.176991,39.0865116 687.494648,38.729141 684.754309,38.729141 C676.050468,38.729141 668.028089,42.4408551 662.37342,48.4798356 C657.532153,45.9419238 652.094971,44.5603817 646.493949,44.5603817 C629.867773,44.5603817 615.961636,56.4669212 612.82837,72.2173727 C600.828872,73.8400672 591.547966,84.1689466 591.547966,96.6304272 C591.547966,110.213412 602.577471,121.264296 616.134176,121.264296 L768.492707,121.264296 C784.522967,121.264296 797.564954,108.197029 797.564954,92.1371467 C797.564954,79.2354902 789.149647,68.2659589 777.530027,64.4496487 C777.619922,63.2860153 777.66487,62.1151186 777.66487,60.9384107 C777.66487,36.0125441 757.424055,15.732494 732.544961,15.732494 Z" id="Path"></path>
                            <path d="M155.580241,34.8547218 C154.513104,32.2717754 151.772764,30.8030699 149.036774,31.3463893 L140.39093,33.0606056 C138.35235,33.4644633 136.244173,32.7540805 134.866754,31.1953059 C133.408139,29.5450095 131.86398,27.990593 130.237175,26.5393201 C128.687216,25.157778 127.984007,23.0542312 128.387083,21.0146045 L130.095083,12.3665287 C130.635902,9.62378266 129.170037,6.87958392 126.593538,5.81037784 L113.828486,0.512287399 C111.250536,-0.556918678 108.278211,0.343771225 106.725351,2.66667954 L101.830438,9.99132224 C100.677755,11.7171603 98.6913718,12.7079192 96.6237928,12.587343 C94.4503701,12.4609559 92.2609983,12.465314 90.0658269,12.5989648 C87.9895484,12.7253519 86.0002648,11.7360458 84.8432326,10.0043968 L79.9396197,2.66813226 C78.3867606,0.34522395 75.4144347,-0.556918678 72.8364855,0.513740126 L60.071433,5.81183056 C57.4934838,6.88103664 56.0276197,9.62523538 56.569888,12.3679814 L58.2807879,21.0305845 C58.6838643,23.0731167 57.9748557,25.1853798 56.4190967,26.5654692 C54.7719932,28.0269112 53.2205841,29.574064 51.7735687,31.2040222 C50.3932497,32.7569859 48.2952224,33.4615579 46.2595416,33.0577001 L37.628197,31.3463893 C34.8907572,30.8045226 32.1518675,32.2732282 31.08473,34.8547218 L25.7968897,47.6445183 C24.7297521,50.2274646 25.6286995,53.2055522 27.9471137,54.7614212 L35.2575858,59.665823 C36.9786349,60.8207399 37.968927,62.8109741 37.8485841,64.8825608 C37.7224415,67.0601967 37.7267911,69.2538123 37.8601833,71.4546916 C37.9863261,73.5364476 36.9989338,75.5281345 35.2706349,76.6874095 L27.9485636,81.6005276 C25.6301494,83.1563968 24.7297521,86.1344844 25.7983395,88.7174305 L31.0861799,101.507227 C32.1533175,104.090173 34.8936571,105.558879 37.6296468,105.01556 L46.2754906,103.301343 C48.3140713,102.897486 50.4222479,103.607868 51.7996673,105.166643 C53.2582819,106.816939 54.8024415,108.371356 56.4292462,109.822629 C57.9792055,111.204171 58.6824142,113.307718 58.2793378,115.347344 L56.5713378,123.993968 C56.0290696,126.736714 57.4949338,129.480912 60.0728828,130.550118 L72.8379355,135.846756 C75.4158845,136.917415 78.3896605,136.015272 79.9410696,133.692364 L84.835983,126.367721 C85.9886656,124.643336 87.9750493,123.651124 90.0426282,123.7717 C92.216051,123.898088 94.4054227,123.893729 96.6020442,123.760079 C98.6783226,123.633691 100.667606,124.622998 101.824638,126.354647 L106.728251,133.692364 C108.28111,136.015272 111.253436,136.917415 113.831385,135.846756 L126.596438,130.548666 C129.174387,129.47946 130.640251,126.733808 130.097983,123.992515 L128.387083,115.329912 C127.984007,113.28738 128.693015,111.175116 130.248774,109.795027 C131.895878,108.333585 133.447287,106.78498 134.894302,105.156474 C136.274621,103.60351 138.372649,102.898938 140.408329,103.302796 L149.039674,105.014107 C151.777114,105.557426 154.516003,104.088721 155.583141,101.505774 L160.870981,88.7159778 C161.938119,86.1330317 161.037722,83.1534914 158.720757,81.5990749 L151.410285,76.6946731 C149.687786,75.5383035 148.698944,73.549522 148.819287,71.4764826 C148.94543,69.2988469 148.94108,67.1052311 148.807688,64.9058045 C148.681545,62.8255014 149.668937,60.8323618 151.397236,59.6730868 L158.719307,54.7599685 C161.037722,53.2040995 161.938119,50.2260119 160.869531,47.6430655 L155.580241,34.8547218 Z M104.53018,95.2735815 C89.5960544,101.470909 72.4769066,94.3656279 66.2901189,79.4040064 C60.103331,64.4423849 67.1963158,47.2886006 82.1289915,41.0898202 C97.0616673,34.8910399 114.182265,41.9977738 120.369053,56.9593951 C126.55584,71.9210166 119.462856,89.0762538 104.53018,95.2735815 Z" id="Shape"></path>
                            <path d="M149.681986,496.013763 C43.554,496.013763 0.242135824,425.819512 0.242135824,347.691926 C0.242135824,269.564341 42.8261426,221.461689 97.7286282,221.461689 C152.631114,221.461689 137.034377,268.182799 201.271416,268.182799 C265.508455,268.182799 300.297718,157.801799 392.287583,157.801799 C484.277446,157.801799 437.752571,257.333843 519.150806,257.333843 C600.549039,257.333843 699.565192,186.795297 715.273572,267.19204 C735.752173,372.004743 1019.29032,499.392802 709.892937,499.392802 C587.459206,499.392802 149.681986,496.013763 149.681986,496.013763 Z" id="Path"></path>
                        </g>
                        <path d="M308.450591,495.913524 L797.937583,495.913524 C800.635875,495.913524 802.822347,498.104235 802.822347,500.807757 L802.822347,501.323474 C802.822347,504.026997 800.635875,506.217707 797.937583,506.217707 L33.4524415,506.217707 C30.7541494,506.217707 28.5676774,504.026997 28.5676774,501.323474 L28.5676774,501.323474 C28.5676774,498.62431 30.7483498,496.435053 33.443742,496.429242 L308.450591,495.913524 Z" id="Path" fill="#DAE7FF" fill-rule="nonzero"></path>
                    </g>
                    <g id="plant_26_" transform="translate(730.000000, 264.000000)">
                        <path d="M78.1821145,179.098896 C85.4931368,162.023596 96.3992428,137.829472 74.1094339,123.543847 C51.8181688,109.256768 72.1684674,100.797619 72.8921435,80.0909489 C73.6158197,59.3842787 50.8615185,54.06224 51.542968,44.2438708 C52.2229615,34.4255016 53.3528866,17.0638222 51.2532064,9.65570712 C47.7382077,-2.74154668 21.4354177,-8.37031858 18.7518459,26.536208 C17.0656949,48.4698109 14.7985646,61.713125 3.0814172,77.3594244 C-8.63573021,93.005724 17.1749017,109.54751 16.6973045,122.142469 C16.2197074,134.737427 3.50222688,132.872315 4.89279178,159.56537 C6.28335668,186.258426 23.8568937,206.444667 40.5669699,205.254076 C51.9142707,204.445813 71.507403,194.687046 78.1821145,179.098896 Z" id="Path" fill="#9E95E3" fill-rule="nonzero"></path>
                        <path d="M71.0831655,145.714405 C71.0967858,145.31318 70.7822707,144.975919 70.3803902,144.961382 C69.9945267,144.994817 69.6421532,145.2623 69.6275923,145.662071 C69.2082387,157.624665 52.9743034,166.33676 47.8226609,168.805161 C48.3963599,162.666137 48.6045806,156.857105 48.2027001,151.846161 C47.3246786,140.888082 44.6280019,129.286008 42.0216027,118.066261 C38.7075443,103.803895 35.5754971,90.2669311 36.4680796,79.5138253 C39.0803032,78.8480253 49.0996509,75.6963782 52.2855733,65.8751016 C52.409341,65.4927754 52.1996641,65.0828287 51.8181688,64.9592632 C51.4352175,64.8342441 51.0246005,65.046486 50.9008329,65.4259047 C48.1575614,73.8777847 39.6248805,77.0730433 36.622425,77.9539926 C36.6966856,77.3594244 36.7738583,76.7677638 36.8757845,76.192094 C39.2142633,62.9458725 37.6577042,45.9534357 36.7272634,35.8021667 C36.2977172,31.1095851 35.9584486,27.4069813 36.2074397,26.4257258 C36.3064538,26.0361312 36.0705674,25.6407215 35.6817916,25.5433228 C35.2973841,25.4401093 34.8955036,25.678518 34.7979457,26.0681128 C34.4994475,27.2354433 34.7586313,30.2548026 35.2784549,35.9344545 C36.2016154,46.0144917 37.7479818,62.8848166 35.4429931,75.9406017 C35.293016,76.7895694 35.1823532,77.6647039 35.0906196,78.551468 C34.9901495,78.7055616 34.9464668,78.8974516 34.9857812,79.0922488 C34.9945177,79.137314 35.017815,79.1736568 35.0338321,79.2143607 C34.5926371,84.2732775 35.014903,89.8962346 35.9395194,95.9073326 C35.9322389,95.9102402 35.9249585,95.9087865 35.9191341,95.9116939 C27.9921861,99.1578321 23.1404979,89.8337249 22.9381015,89.4368618 C22.7560905,89.0777949 22.3163516,88.9338775 21.9596098,89.1155914 C21.5999559,89.2973053 21.4572592,89.7348725 21.6378141,90.0924857 C21.685865,90.1855233 25.7585458,98.0530113 32.6341976,98.0530113 C33.7408251,98.0530113 34.9246254,97.8364081 36.1724936,97.3624981 C37.2689286,104.021952 38.9113967,111.114611 40.6033722,118.397707 C43.1325986,129.284554 45.7331733,140.529015 46.6694385,151.139657 C43.6480541,150.949221 32.7608773,149.655417 29.8851017,139.86903 C29.7729829,139.48525 29.3681902,139.264286 28.9808704,139.376221 C28.5935508,139.488157 28.3736814,139.892289 28.4872564,140.277523 C31.6935641,151.181815 43.7878386,152.461081 46.7844696,152.60936 C47.1310186,157.61885 46.8995005,163.392993 46.2966797,169.504397 C46.2908554,169.507305 46.2719262,169.514574 46.2690141,169.516028 C45.8991675,169.670121 45.7229807,170.094605 45.8773261,170.465301 C45.9384819,170.610671 46.0418641,170.721155 46.1656317,170.798201 C44.6323701,185.261179 41.1697907,201.356675 38.5954255,213.310548 C36.2889807,224.02295 35.1022683,229.695333 35.4808513,231.495028 C35.5536559,231.838103 35.8550662,232.072151 36.1928788,232.072151 C36.2423859,232.072151 36.293349,232.067791 36.3443121,232.05616 C36.737456,231.973298 36.9893595,231.588065 36.9063623,231.195563 C36.572918,229.615379 38.1702476,222.199995 40.0194804,213.615827 C42.6287918,201.504954 46.1467026,185.157966 47.6654032,170.490015 C51.9346559,168.563846 70.6046278,159.360397 71.0831655,145.714405 Z" id="Path" fill="#7266D5" fill-rule="nonzero"></path>
                    </g>
                    <g id="plant_25_" transform="translate(27.000000, 267.000000)">
                        <g id="Group" transform="translate(0.000000, 63.405719)" fill-rule="nonzero">
                            <path d="M7.3219185,127.814113 C2.12969612,115.663864 -5.61438965,98.4485933 10.2147074,88.2837176 C26.0438044,78.1188417 11.5929167,72.0988669 11.0793524,57.3653119 C10.5657881,42.631757 26.7227539,38.8453262 26.2396552,31.8587882 C25.7565565,24.8722503 24.9542936,12.5188204 26.4456613,7.24771403 C28.9409456,-1.57326184 47.6193092,-5.57883824 49.5255903,19.2586381 C50.7239069,34.8658731 52.3327852,44.2891368 60.654268,55.4220269 C68.9757509,66.5549169 50.6470174,78.3249259 50.9850414,87.2881288 C51.3230654,96.2513315 60.3554143,94.9233959 59.3674557,113.916504 C58.3794972,132.909612 45.9001744,147.273087 34.0345172,146.426981 C25.9756193,145.849365 12.0615079,138.904915 7.3219185,127.814113 Z" id="Path" fill="#8AE6B9"></path>
                            <path d="M47.3407658,63.5986273 C46.983882,63.420118 46.5472073,63.5637962 46.365864,63.9193637 C46.2265924,64.1951099 42.9304958,70.5517855 37.5540286,68.4749812 C38.1909065,64.2662234 38.4781542,60.3245041 38.1734975,56.7673779 C38.1807511,56.742706 38.1967094,56.7223878 38.2010617,56.6962645 C38.2344289,56.5308167 38.1981601,56.3711743 38.1270735,56.2318499 C38.06179,55.6019875 37.9819989,54.9808329 37.8760944,54.3756426 C36.2440044,45.1134727 37.3407689,33.1257695 37.9950556,25.965076 C38.3780528,21.7867954 38.5506917,19.7404683 38.3301782,18.8740446 C38.2315273,18.4836461 37.8296704,18.2470849 37.4495748,18.3501269 C37.0607747,18.4473637 36.8257537,18.8435675 36.9258553,19.2310635 C37.0941419,19.8943057 36.8417121,22.6459625 36.5515626,25.8315567 C35.8900221,33.0662663 34.7831025,45.1744272 36.4485597,54.628168 C36.5022373,54.9300375 36.5385059,55.2420661 36.5805776,55.5511921 C34.259383,54.8226417 28.7276858,52.5368507 26.8924912,46.8666381 C26.7706286,46.4863986 26.3629688,46.2774119 25.9785209,46.4007721 C25.5969744,46.5241323 25.3895177,46.9333977 25.5128312,47.3150885 C27.7513333,54.2305129 34.6626905,56.5627452 36.7488642,57.1200429 C37.3393181,64.7146738 35.1312816,74.2743593 32.7970302,84.3434494 C30.9444267,92.3342842 29.0279904,100.596511 28.4027186,108.408836 C28.1285273,111.830992 28.2547424,115.84963 28.6246828,120.136758 C24.6699473,118.194924 13.8894487,112.167693 13.6051024,104.018667 C13.5920457,103.61956 13.2380635,103.342363 12.8550664,103.319142 C12.4546603,103.333655 12.141299,103.668904 12.1558065,104.070913 C12.4938304,113.768472 25.4925206,120.321072 28.772659,121.821712 C29.8433101,132.591778 32.3472987,144.821848 34.1999023,153.876483 C35.518631,160.31443 36.6574671,165.874346 36.4282491,166.962817 C36.3455566,167.356118 36.5965357,167.740711 36.9882374,167.823436 C37.0390136,167.835045 37.0883389,167.8394 37.1391151,167.8394 C37.4742375,167.8394 37.7759928,167.605741 37.8485302,167.263234 C38.1270735,165.941105 37.276936,161.665587 35.6230848,153.586223 C33.7936933,144.652046 31.3303253,132.607743 30.2509699,122.001673 C30.3293102,121.932011 30.410552,121.860897 30.4540744,121.756404 C30.5962476,121.418252 30.4511728,121.043818 30.1436145,120.862406 C29.7461099,116.594145 29.5937816,112.598727 29.8157458,109.167864 C32.2747614,109.011124 40.564328,107.913945 42.8115346,100.254005 C42.9246929,99.8694119 42.7041794,99.4659517 42.3197315,99.3542019 C41.9352837,99.2439035 41.5334268,99.4615978 41.4188178,99.8461913 C39.4516052,106.55408 32.3269883,107.574341 29.9303548,107.719471 C30.6093042,100.249652 32.4343435,92.3371868 34.2115083,84.6728936 C35.3924161,79.5773942 36.5414074,74.6125112 37.3219092,69.9393387 C38.1314258,70.2179875 38.9104767,70.3515067 39.653259,70.3515067 C43.6065438,70.3515067 46.5239953,66.8364683 47.6628315,64.578252 C47.8412734,64.2154281 47.6976494,63.7785881 47.3407658,63.5986273 Z" id="Path" fill="#44D690"></path>
                        </g>
                        <g id="Group" transform="translate(69.185093, 0.000000)" fill-rule="nonzero">
                            <path d="M77.8799987,178.988311 C85.1641977,161.941391 96.0302904,137.787475 73.8222601,123.525591 C51.6127792,109.262256 71.8884147,100.817165 72.609436,80.144908 C73.330457,59.4726506 50.6596386,54.1594567 51.3385881,44.3574048 C52.0160868,34.5553529 53.1418661,17.2225272 51.0498895,9.82672385 C47.547787,-2.54992673 21.3414989,-8.16934406 18.6677728,26.6791708 C16.9878081,48.5763218 14.7289955,61.7976265 3.05483698,77.4179231 C-8.61932158,93.0382199 17.0966142,109.552515 16.6207693,122.126542 C16.1449242,134.700568 3.47410277,132.838556 4.85956585,159.487249 C6.24502893,186.135943 23.7540907,206.288637 40.4028596,205.100025 C51.7085285,204.293105 71.2297758,194.550555 77.8799987,178.988311 Z" id="Path" fill="#45D48F"></path>
                            <path d="M70.8085455,145.659303 C70.8221159,145.258745 70.5087547,144.922045 70.1083487,144.907532 C69.7239008,144.940912 69.37282,145.20795 69.3583125,145.607056 C68.9404975,157.549769 52.7661228,166.247385 47.6333811,168.711686 C48.2049752,162.582863 48.412432,156.783485 48.012026,151.780869 C47.1372257,140.841001 44.4504428,129.258209 41.8536063,118.057108 C38.5517068,103.818445 35.4311507,90.3039785 36.3204584,79.5687436 C38.9230979,78.90405 48.9056859,75.7576407 52.0799196,65.9526863 C52.2032331,65.5709955 51.9943255,65.1617301 51.6142299,65.0383699 C51.2326836,64.9135586 50.8235729,65.1254477 50.7002596,65.5042359 C47.9670527,73.9420696 39.4656771,77.1320179 36.4742375,78.0115032 C36.5482257,77.4179231 36.6251152,76.8272458 36.7266675,76.2525327 C39.0565666,63.0283253 37.5057184,46.0641288 36.5786913,35.9297301 C36.1507211,31.2449472 35.8126971,27.5484968 36.0607747,26.5688722 C36.1594256,26.179925 35.9244046,25.7851725 35.5370552,25.6879356 C35.154058,25.5848936 34.753652,25.8229061 34.656452,26.2118535 C34.3590489,27.3772439 34.6172817,30.3915853 35.1351983,36.0617981 C36.0549718,46.1250831 37.5956648,62.9673708 35.2991328,76.0014584 C35.1497058,76.8490151 35.039449,77.7226952 34.948052,78.6079856 C34.8479506,78.7618231 34.804428,78.9533942 34.8435983,79.1478677 C34.8523027,79.192858 34.8755147,79.2291403 34.891473,79.2697766 C34.4518967,84.3202859 34.8726133,89.9338981 35.7938374,95.9350063 C35.7865836,95.9379089 35.77933,95.9364576 35.7735268,95.9393602 C27.8756619,99.1801036 23.041774,89.8714924 22.8401202,89.4752887 C22.6587768,89.1168186 22.2206514,88.9731403 21.8652184,89.1545523 C21.506884,89.3359642 21.3647109,89.7728042 21.5446034,90.1298231 C21.592478,90.222706 25.6502166,98.0771189 32.5006425,98.0771189 C33.6032098,98.0771189 34.7826669,97.8608757 36.0259568,97.3877533 C37.118369,104.036139 38.7548113,111.117012 40.4405791,118.388004 C42.9605259,129.256758 45.5515595,140.482531 46.4843897,151.075539 C43.4740902,150.885419 32.6268574,149.593766 29.7616327,139.823643 C29.6499252,139.4405 29.2466176,139.219904 28.8607189,139.331653 C28.4748204,139.443403 28.2557575,139.846863 28.3689159,140.231457 C31.56346,151.117627 43.6133619,152.394767 46.5989986,152.542799 C46.9442763,157.543964 46.7136076,163.30851 46.1129985,169.409759 C46.1071955,169.412661 46.0883358,169.419917 46.0854343,169.421369 C45.7169447,169.575206 45.5414043,169.998984 45.6951834,170.369065 C45.7561149,170.514195 45.8591178,170.624493 45.9824313,170.701413 C44.4547951,185.140353 41.0049194,201.209102 38.4399993,213.143106 C36.1420165,223.837705 34.959658,229.500661 35.3368521,231.297365 C35.4093894,231.639872 35.709694,231.873529 36.0462673,231.873529 C36.0955926,231.873529 36.1463688,231.869176 36.197145,231.857565 C36.5888465,231.774842 36.8398256,231.390249 36.7571331,230.998398 C36.4249122,229.42084 38.0163813,222.017779 39.8588295,213.447878 C42.4585676,201.357134 45.9635716,185.037311 47.4767004,170.393737 C51.7288389,168.47077 70.3317636,159.282617 70.8085455,145.659303 Z" id="Path" fill="#1EAF69"></path>
                        </g>
                    </g>
                    <g id="woman_12_" transform="translate(95.000000, 312.000000)">
                        <path d="M142.794682,194.768047 C142.379488,197.509303 141.295049,213.502137 141.295049,213.502137 L128.547442,211.814093 L128.547442,194.205851 L142.794682,194.768047 Z" id="Path" fill="#F1B282" fill-rule="nonzero"></path>
                        <path d="M124.582778,211.051423 C124.582778,211.051423 120.600693,222.295363 122.628755,225.540708 C124.656816,228.786052 161.266444,226.448649 164.018917,226.214763 C176.577799,225.148477 179.578517,214.633796 166.408459,215.868594 C153.239851,217.103395 150.176709,206.928646 142.691609,207.320876 C137.953175,208.577465 133.153769,213.204333 130.110951,212.44021 C127.068133,211.676087 124.582778,211.051423 124.582778,211.051423 Z" id="Path" fill="#03193F" fill-rule="nonzero"></path>
                        <polygon id="Path" fill="#F1B282" fill-rule="nonzero" points="46.4552349 219.692115 32.2225123 217.919815 40.4755751 207.312159 50.3734435 207.312159"></polygon>
                        <path d="M77.5555629,139.402535 C77.5555629,139.402535 119.223005,122.661556 129.671078,127.021126 C144.822743,133.3433 146.792735,196.7292 143.793469,198.879204 C140.794203,201.029207 132.949075,201.104748 128.54599,198.038087 C124.142905,194.971425 120.854745,172.598309 120.854745,157.708077 C112.610393,165.031165 87.8816905,180.672446 87.8816905,180.672446 C87.8816905,180.672446 61.4341447,163.414304 77.5555629,139.402535 Z" id="Path" fill="#0B224E" fill-rule="nonzero"></path>
                        <path d="M23.4294073,176.410208 C23.4294073,187.607662 32.9353098,192.94926 38.9004523,196.90643 C44.7044532,200.756099 49.7811393,203.340462 47.6848469,205.685129 C43.4370963,210.435476 44.4373357,220.693029 44.4373357,220.693029 C44.4373357,220.693029 98.675274,228.444666 121.171221,226.69561 C143.667169,224.943647 141.416994,206.934456 130.420168,200.432146 C119.423343,193.92693 81.1805229,164.413765 81.1805229,164.413765 C63.4317198,159.410648 23.4294073,153.518474 23.4294073,176.410208 Z" id="Path" fill="#102B5E" fill-rule="nonzero"></path>
                        <g id="Group" transform="translate(14.517261, 0.000000)" fill-rule="nonzero">
                            <g id="Path" transform="translate(37.744879, 12.074350)">
                                <path d="M12.110299,1.02125197 C-8.95279479,4.84767828 4.91264109,24.6683922 4.91409282,33.6330379 C4.91554454,42.5976837 1.19477057,56.4681158 1.19477057,56.4681158 L22.8922688,58.0849771 C22.8922688,58.0849771 23.2740727,50.7691521 22.8400066,47.0124557 C22.4059404,43.2557592 25.0495337,41.2452148 29.706671,41.1507889 C34.3623565,41.0563631 33.935549,32.0060078 34.503174,30.2961735 C35.4322787,27.4982626 40.1213539,29.0177926 39.0703042,25.8116715 C38.0207063,22.6055503 34.4189738,21.6932514 33.1704894,13.1121199 C31.9220049,4.53098848 22.1068849,-0.794629913 12.110299,1.02125197 Z" id="路径" fill="#F1B282"></path>
                                <path d="M28.5162555,41.2219715 C26.3038251,41.436972 24.6517608,42.1749463 23.7023318,43.3981243 L21.0224455,38.984805 C23.5760317,40.3154832 27.1051779,41.2524783 28.5162555,41.2219715 Z" id="路径" fill="#CD916A"></path>
                            </g>
                            <path d="M40.6584926,12.1978296 C40.6584926,12.1978296 39.3040322,0.56892195 26.4954529,0.326320129 C9.47686791,0.00381950673 9.99513413,24.2843395 9.75559932,36.9286881 C9.29685387,61.1176875 -2.43309293,61.5491411 1.68835745,66.4389478 C4.60777861,69.9021979 27.3679402,54.3321002 29.4613293,37.1771007 C31.5547183,20.0206488 30.146544,11.9988089 39.0514317,16.205844 C42.622678,17.8924352 40.6584926,12.1978296 40.6584926,12.1978296 Z" id="Path" fill="#0B224E"></path>
                            <path d="M36.3889661,43.218903 C45.1980401,59.7405228 55.5270712,38.0225753 48.4832962,34.2658789 C43.0451303,31.3648261 45.0064122,23.2994051 59.1897762,28.710733 C63.992086,30.5425947 75.0295595,27.5282307 75.2589322,15.4068559 C75.3431323,10.9267122 68.088857,8.38593029 54.0361485,8.23775434 C30.9914486,7.99369981 29.3640637,30.0428641 36.3889661,43.218903 Z" id="Path" fill="#0B224E"></path>
                            <path d="M44.4591115,5.3018365 C48.0695543,7.10609675 39.3533908,22.1139974 34.2825117,20.0366285 C29.2101807,17.9592596 39.7511638,2.94845358 44.4591115,5.3018365 Z" id="Path" fill="#1B90FB"></path>
                        </g>
                        <path d="M77.8981702,126.463287 C78.0433428,124.879838 82.012362,123.53318 85.2700354,120.114964 C87.9731492,117.264755 90.1768695,112.987991 89.2390544,105.914767 C89.0938819,104.819427 89.2390544,105.914767 89.9387865,103.93473 C90.1362212,103.366722 90.3336559,102.774018 90.5325423,102.153713 C94.620603,89.6023371 98.7493121,65.7155005 68.1774124,59.1303865 C52.6802363,55.7789949 36.2568591,60.8300519 36.5820457,97.6401568 C37.1758017,164.867009 11.9288333,157.134258 19.1163291,169.275971 C22.7427409,175.399124 40.79931,179.174707 51.335938,173.921723 C61.8609522,168.66874 92.3399413,171.295231 91.4427747,166.794749 C90.6385183,162.769303 75.8933365,150.68134 77.8981702,126.463287 Z" id="Path" fill="#FFCB01" fill-rule="nonzero"></path>
                        <path d="M235.424968,76.8955221 L102.191355,86.218986 C98.9917503,86.4427027 96.2175018,84.0297589 95.9939359,80.8279959 L93.1587149,40.2510256 C92.935149,37.0492628 95.346466,34.2731425 98.5460703,34.0494258 L231.779683,24.7259619 C234.979288,24.5022452 237.753537,26.915189 237.977103,30.116952 L240.812324,70.6939223 C241.03589,73.8942324 238.624573,76.6718054 235.424968,76.8955221 Z" id="Path" fill="#1B90FB" fill-rule="nonzero"></path>
                        <path d="M108.17537,92.3784574 C108.17537,92.3784574 115.169786,96.3312691 124.482609,100.947967 C136.016573,96.9196148 156.416227,82.8734053 159.916339,77.1206915 C162.288459,73.2216299 166.83091,66.9357731 169.195773,68.2403028 C171.181733,69.3356427 167.109643,73.1257513 167.794856,75.8728174 C168.406033,78.3278897 184.151454,67.4151659 184.151454,75.120316 C184.151454,82.0468158 182.069679,87.7356106 170.818802,87.7356106 C167.385469,87.7356106 163.86213,88.0813545 157.505022,94.9032596 C153.981683,98.684652 138.028665,118.586717 119.282526,117.335938 C100.536387,116.085159 87.8816905,107.384905 87.8816905,107.384905 C87.8816905,107.384905 99.4272682,92.1285921 108.17537,92.3784574 Z" id="Path" fill="#F1B282" fill-rule="nonzero"></path>
                        <path d="M47.6848469,205.686582 C47.6848469,205.686582 82.0849483,205.686582 94.6307651,205.686582 C94.6307651,205.686582 54.5428009,202.047554 38.9004523,196.907883 C44.7044532,200.757552 49.7811393,203.341915 47.6848469,205.686582 Z" id="Path" fill="#0B224E" fill-rule="nonzero"></path>
                        <path d="M46.311514,204.935533 C46.311514,204.935533 47.0446356,196.403793 43.9858489,194.37727 C40.9270619,192.350746 9.90367539,208.931926 7.59397917,210.229192 C-2.94410051,216.147515 -1.39075359,226.516927 9.61187844,220.207827 C20.6159623,213.898727 27.3229368,221.561747 33.7018212,218.246674 C37.3383951,215.267174 39.6916431,209.322704 42.6517125,208.782297 C45.611782,208.240438 46.311514,204.935533 46.311514,204.935533 Z" id="Path" fill="#03193F" fill-rule="nonzero"></path>
                        <path d="M89.9402382,103.93473 C89.2405061,105.914767 89.0967852,104.819427 89.2405061,105.914767 C90.1768695,112.987991 87.9746011,117.264755 85.2700354,120.114964 C78.8475991,114.228601 64.9734529,98.4711043 64.0632206,81.1824561 C64.0632206,81.1824561 86.0888088,92.3479505 89.5177859,99.6594174 C89.8995897,100.477291 90.2436489,101.309691 90.5325423,102.153713 C90.3351076,102.774018 90.1376729,103.368175 89.9402382,103.93473 Z" id="Path" fill="#F0B701" fill-rule="nonzero"></path>
                        <path d="M109.139316,88.5651055 C103.596625,85.6001335 94.5654375,75.7624119 89.4568133,69.8963869 C86.6709509,66.6975294 83.0808324,64.2773221 79.0406787,62.9873195 C48.7533173,53.3123009 61.1379925,78.7230256 67.092973,88.7568625 C73.4428229,99.4545859 91.8870028,118.579454 93.6784328,110.51258 C95.4727663,102.445707 117.205106,92.8796408 109.139316,88.5651055 Z" id="Path" fill="#FFCB01" fill-rule="nonzero"></path>
                    </g>
                    <g id="coffee" transform="translate(249.000000, 428.000000)">
                        <path d="M0.626489487,48.6726864 L0.626489487,52.889051 C0.626489487,59.5089329 4.87091942,61.8482788 8.50484916,61.8482788 C9.05139218,61.8482788 9.57613164,61.7855656 10.0805211,61.7009759 C10.8785321,61.5536729 11.6140394,61.3421984 12.1809325,61.1526006 C12.8946363,60.8784129 13.3568721,60.6465202 13.4208293,60.6261019 C14.1984903,60.2469062 14.4921118,59.2974584 14.1141831,58.5186488 C13.7566044,57.8025523 12.9164399,57.464193 12.1809325,57.7383807 C12.1387789,57.758799 12.0762753,57.7806755 12.0123181,57.8010938 C11.9919681,57.8010938 11.15035,58.2225844 10.0790675,58.4763539 C9.57467807,58.6032387 9.02813504,58.6878284 8.50339558,58.6878284 C6.7387593,58.6878284 3.77637978,57.929437 3.77637978,52.8905094 L3.77637978,48.6741448 C3.77637978,43.6366755 6.7387593,42.8768257 8.50339558,42.8768257 C9.02813504,42.8768257 9.57467807,42.9614156 10.0790675,43.0883002 C11.15035,43.3406113 11.9905146,43.7635603 12.0123181,43.7635603 C12.0748217,43.7839786 12.1387789,43.8058552 12.1809325,43.8262735 C12.9164399,44.1004611 13.7566044,43.7635603 14.1141831,43.0460054 C14.4921118,42.2657372 14.1984903,41.317748 13.4208293,40.9385523 C13.3583257,40.918134 12.8960899,40.6862413 12.1809325,40.4120537 C11.6140394,40.2224558 10.8785321,40.0109813 10.0805211,39.8636782 C9.57613164,39.7790885 9.05139218,39.7163698 8.50484916,39.7163698 C4.87091942,39.7134584 0.626489487,42.0542628 0.626489487,48.6726864 Z" id="Path" fill="#FFCB01" fill-rule="nonzero"></path>
                        <path d="M10.0805211,39.8738874 L10.0805211,43.0985094 C11.1518036,43.3508204 11.9919681,43.7737694 12.0137717,43.7737694 C12.0762753,43.7941877 12.1402325,43.8160644 12.1823861,43.8364825 L12.1823861,40.4208043 C11.6140394,40.2326648 10.8785321,40.0211903 10.0805211,39.8738874 Z" id="Path" fill="#F0B701" fill-rule="nonzero"></path>
                        <path d="M10.0805211,58.4880214 L10.0805211,61.7126434 C10.8785321,61.5653405 11.6140394,61.353866 12.1809325,61.1642681 L12.1809325,57.7485897 C12.1387789,57.769008 12.0762753,57.7908848 12.0123181,57.8113029 C11.9919681,57.8127613 11.1518036,58.234252 10.0805211,58.4880214 Z" id="Path" fill="#F0B701" fill-rule="nonzero"></path>
                        <path d="M12.1823861,34.9705952 L12.1823861,63.4292333 C12.1823861,65.7481609 14.0734831,67.6455979 16.3846623,67.6455979 L37.3945906,67.6455979 C39.7057699,67.6455979 41.5968669,65.7481609 41.5968669,63.4292333 L41.5968669,34.9705952 C41.5968669,34.3799249 41.134631,33.9161395 40.5459345,33.9161395 L13.2333185,33.9161395 C12.6431683,33.9175979 12.1823861,34.3799249 12.1823861,34.9705952 Z" id="Path" fill="#FFCB01" fill-rule="nonzero"></path>
                        <path d="M24.2979078,0.988825737 C24.2979078,0.988825737 21.1480175,3.98593029 21.2570353,6.4375764 C21.3660533,8.88922251 24.35169,10.0341019 24.2979078,13.9018981 C24.2441257,17.7696944 20.280235,17.7157319 20.280235,20.9841072 C20.280235,24.2524825 27.0131801,26.4868204 27.0131801,29.3745416 C27.0131801,29.3745416 28.8592164,28.0663163 28.9129985,26.5962037 C28.9667807,25.1260912 26.415762,24.0905952 26.415762,21.9102198 C26.415762,19.7313029 34.7243789,19.0764611 34.7243789,14.065244 C34.7243789,9.05402681 24.4607079,7.63495979 24.2979078,0.988825737 Z" id="Path" fill="#DAE7FF" fill-rule="nonzero"></path>
                        <path d="M31.2590636,67.6455979 L37.393137,67.6455979 C39.7043163,67.6455979 41.5954134,65.7481609 41.5954134,63.4292333 L41.5954134,53.7743271 C41.5954134,53.7743271 41.2378347,64.3145094 31.2590636,67.6455979 Z" id="Path" fill="#F0B701" fill-rule="nonzero"></path>
                    </g>
                    <g id="paperplane_3_" transform="translate(130.000000, 41.000000)">
                        <polygon id="Path" fill="#FFE18D" fill-rule="nonzero" points="0.0708680791 25.8917749 30.6826247 41.2973298 122.522242 0.215849866"></polygon>
                        <polygon id="Path" fill="#FFCB01" fill-rule="nonzero" points="35.7848258 66.9717963 30.6826247 41.2973298 122.522242 0.215849866"></polygon>
                        <polygon id="Path" fill="#F0B701" fill-rule="nonzero" points="35.7848258 66.9717963 45.9892277 46.4325148 71.5002324 41.2973298"></polygon>
                        <polygon id="Path" fill="#FFE18D" fill-rule="nonzero" points="45.9892277 46.4325148 71.5002324 56.7028848 122.522242 0.215849866"></polygon>
                    </g>
                    <g id="mobile_phone" transform="translate(297.000000, 0.000000)">
                        <g id="Group" fill-rule="nonzero">
                            <path d="M266.376674,0.0641559641 L60.0714029,0.0641559641 C37.2843474,0.0641559641 18.8112193,18.5453367 18.8112193,41.3455677 L18.8112193,454.165492 C18.8112193,476.964272 37.2843474,495.446904 60.0714029,495.446904 L266.375224,495.446904 C289.162278,495.446904 307.635407,476.964272 307.635407,454.165492 L307.635407,41.3470195 C307.635407,18.5453367 289.163729,0.0641559641 266.376674,0.0641559641 Z" id="Path" fill="#183168"></path>
                            <path d="M248.238736,0.0641559641 L41.9334639,0.0641559641 C19.1464085,0.0641559641 0.673280295,18.5453367 0.673280295,41.3455677 L0.673280295,454.165492 C0.673280295,476.964272 19.1464085,495.446904 41.9334639,495.446904 L248.237285,495.446904 C271.02434,495.446904 289.497468,476.964272 289.497468,454.165492 L289.497468,41.3470195 C289.497468,18.5453367 271.02579,0.0641559641 248.238736,0.0641559641 Z" id="Path" fill="#224380"></path>
                            <path d="M268.868102,51.6662836 L268.868102,443.846229 C268.868102,460.978704 255.045541,474.808377 237.921876,474.808377 L53.9001506,474.808377 C36.7764851,474.808377 22.9539246,460.978704 22.9539246,443.846229 L22.9539246,51.6662836 C22.9539246,34.5338082 36.7764851,20.7041359 53.9001506,20.7041359 L67.7227112,20.7041359 C76.1807948,20.7041359 83.1950986,27.7220486 83.1950986,36.184484 C83.1950986,44.6469193 90.2094024,51.6648319 98.667486,51.6648319 L191.504713,51.6648319 C199.962796,51.6648319 206.977101,44.6469193 206.977101,36.184484 C206.977101,27.7220486 213.991405,20.7041359 222.449488,20.7041359 L237.921876,20.7041359 C255.046992,20.7041359 268.868102,34.5338082 268.868102,51.6662836 Z" id="Path" fill="#F3F9FF"></path>
                        </g>
                        <g id="Group" transform="translate(201.242846, 98.721154)" fill-rule="nonzero">
                            <ellipse id="Oval" fill="#2CCD7F" cx="24.697832" cy="24.8402619" rx="24.6675971" ry="24.6802884"></ellipse>
                            <path d="M22.1280488,34.7123773 C22.094675,34.7123773 22.058399,34.7123773 22.0250252,34.7123773 C21.3415877,34.6833416 20.7002303,34.3697568 20.2562135,33.850019 L12.8559344,25.211918 C11.9664498,24.1797013 12.0868857,22.619036 13.1229248,21.7319975 C14.161866,20.8551213 15.7144735,20.969812 16.5996049,22.0020288 L22.2804075,28.629412 L35.4050201,15.6766161 C36.3714095,14.7227955 37.9385275,14.7373133 38.8933086,15.7012963 C39.8495407,16.6754418 39.8393835,18.2361071 38.8686409,19.1957349 L23.8605848,34.0039078 C23.3977045,34.4568638 22.7766615,34.7123773 22.1280488,34.7123773 Z" id="Path" fill="#FFFFFF"></path>
                        </g>
                        <path d="M182.34723,148.282354 L48.8519993,148.282354 C45.6466628,148.282354 43.047859,145.682213 43.047859,142.475227 L43.047859,101.82534 C43.047859,98.6183546 45.6466628,96.0182138 48.8519993,96.0182138 L182.34723,96.0182138 C185.552567,96.0182138 188.151371,98.6183546 188.151371,101.82534 L188.151371,142.475227 C188.151371,145.683665 185.552567,148.282354 182.34723,148.282354 Z" id="Path" fill="#1B90FB" fill-rule="nonzero"></path>
                        <g id="Group" transform="translate(201.242846, 188.731618)" fill-rule="nonzero">
                            <ellipse id="Oval" fill="#AEC1E8" cx="24.697832" cy="25.0493186" rx="24.6675971" ry="24.6802884"></ellipse>
                            <path d="M22.1280488,34.9214338 C22.094675,34.9214338 22.058399,34.9214338 22.0250252,34.9214338 C21.3415877,34.8923983 20.7002303,34.5788134 20.2562135,34.0590756 L12.8559344,25.4209747 C11.9664498,24.3887578 12.0868857,22.8280926 13.1229248,21.941054 C14.161866,21.0641778 15.7144735,21.1788685 16.5996049,22.2110854 L22.2804075,28.8384687 L35.4050201,15.8856726 C36.3714095,14.931852 37.9385275,14.9463699 38.8933086,15.910353 C39.8495407,16.8844983 39.8393835,18.4451638 38.8686409,19.4047914 L23.8605848,34.2129643 C23.3977045,34.6659203 22.7766615,34.9214338 22.1280488,34.9214338 Z" id="Path" fill="#FFFFFF"></path>
                        </g>
                        <path d="M182.34723,238.501873 L48.8519993,238.501873 C45.6466628,238.501873 43.047859,235.901733 43.047859,232.694747 L43.047859,192.04486 C43.047859,188.837876 45.6466628,186.237734 48.8519993,186.237734 L182.34723,186.237734 C185.552567,186.237734 188.151371,188.837876 188.151371,192.04486 L188.151371,232.694747 C188.151371,235.901733 185.552567,238.501873 182.34723,238.501873 Z" id="Path" fill="#DAE7FF" fill-rule="nonzero"></path>
                        <path d="M172.915502,115.768252 L58.2837277,115.768252 C56.7993188,115.768252 55.5935085,114.563273 55.5935085,113.076648 C55.5935085,111.590024 56.7978677,110.385045 58.2837277,110.385045 L172.915502,110.385045 C174.399911,110.385045 175.605721,111.590024 175.605721,113.076648 C175.605721,114.563273 174.399911,115.768252 172.915502,115.768252 Z" id="Path" fill="#BADDFE" fill-rule="nonzero"></path>
                        <path d="M172.915502,133.915522 L58.2837277,133.915522 C56.7993188,133.915522 55.5935085,132.710544 55.5935085,131.223919 C55.5935085,129.737295 56.7978677,128.532316 58.2837277,128.532316 L172.915502,128.532316 C174.399911,128.532316 175.605721,129.737295 175.605721,131.223919 C175.605721,132.710544 174.399911,133.915522 172.915502,133.915522 Z" id="Path" fill="#BADDFE" fill-rule="nonzero"></path>
                    </g>
                    <g id="man_8_" transform="translate(558.000000, 160.000000)">
                        <path d="M99.7085218,21.0219495 C98.3504512,26.5066946 100.799336,28.5238718 100.767381,30.6703922 C100.735426,32.8183662 99.3090893,37.5662894 99.8813671,39.4381366 C100.453645,41.3099839 103.386206,40.6995989 104.906954,42.9115179 C106.427703,45.1248901 106.003578,48.737788 109.08284,50.6052753 C112.162101,52.4727627 120.201588,49.3815988 120.634428,51.9553888 C121.067267,54.5291787 119.409986,72.589308 119.409986,72.589308 L146.585921,64.9406027 C146.585921,64.9406027 136.377879,45.7192887 136.053975,39.776755 C135.730072,33.8342212 132.023338,12.7686726 124.05938,12.4983592 C116.09397,12.2265926 101.150836,15.1985862 99.7085218,21.0219495 Z" id="Path" fill="#F1B282" fill-rule="nonzero"></path>
                        <path d="M117.415728,1.96485834 C105.970171,4.65055228 100.365043,4.98190412 99.4035005,0.876338446 C95.7911782,1.72797083 90.8585497,9.24733254 92.5928131,16.6417106 C96.4244602,32.9825888 116.455637,20.9042325 118.582071,29.9757161 C118.599501,30.0018755 119.298144,42.0206464 116.865237,44.3590022 C114.43233,46.697358 107.429915,42.2648004 104.998461,42.7254958 C103.028895,43.0975399 99.3250665,63.7096596 113.735139,60.3263829 C128.146664,56.9445594 119.196471,29.448169 128.013036,27.3786732 C132.49249,26.3279391 132.382101,45.793407 138.536267,44.3488292 C144.187873,43.0219685 148.869222,33.9911772 145.399243,19.187888 C141.619886,3.0751777 127.568576,-0.418549704 117.415728,1.96485834 Z" id="Path" fill="#0B224E" fill-rule="nonzero"></path>
                        <ellipse id="Oval" fill="#2CCD7F" fill-rule="nonzero" cx="30.6691543" cy="103.941297" rx="30.2755317" ry="30.2925349"></ellipse>
                        <path d="M27.5143638,116.057439 C27.4722418,116.057439 27.4286673,116.057439 27.3865453,116.057439 C26.5470107,116.02256 25.7597657,115.637436 25.2165375,114.997985 L16.1341684,104.396179 C15.0433546,103.130357 15.1915077,101.213457 16.4624293,100.124937 C17.7362559,99.0480437 19.6433646,99.190467 20.7283685,100.456289 L27.7002813,108.591849 L43.8083052,92.6942267 C44.9935303,91.5228688 46.9180688,91.5403084 48.0887691,92.7232927 C49.2623746,93.9179033 49.2507546,95.8348028 48.0597195,97.0134271 L29.6407971,115.188367 C29.0714243,115.74498 28.3088713,116.057439 27.5143638,116.057439 Z" id="Path" fill="#FFFFFF" fill-rule="nonzero"></path>
                        <path d="M46.0001003,131.779212 C46.0001003,131.779212 41.2011002,130.889794 38.8916541,130.533736 C36.5822079,130.177678 25.0291673,129.170543 16.3200862,128.458427 C7.61100491,127.747765 2.93110839,131.125228 10.0410071,133.437425 C17.1494532,135.749621 22.3638631,142.209529 33.3823905,142.802474 C39.7936454,143.146906 55.0650395,142.802474 55.0650395,142.802474 L46.0001003,131.779212 Z" id="Path" fill="#F1B282" fill-rule="nonzero"></path>
                        <path d="M153.184546,246.720518 C150.975321,231.226912 142.975051,180.299006 131.315979,164.726922 L98.3519036,190.162535 C98.3519036,190.162535 121.818201,256.68578 129.918692,265.90986 C136.180341,273.039738 169.951996,319.674604 169.951996,319.674604 L186.398449,309.703528 C186.399901,309.702076 166.470397,266.722252 153.184546,246.720518 Z" id="Path" fill="#0B224E" fill-rule="nonzero"></path>
                        <polygon id="Path" fill="#F1B282" fill-rule="nonzero" points="103.166881 332.829854 100.726711 349.970046 86.3950731 348.589413 86.3950731 332.829854"></polygon>
                        <path d="M144.205303,155.553707 C144.173349,154.790726 144.118154,153.984146 143.685315,153.354868 C143.078177,152.47417 141.922002,152.199496 140.871857,151.991675 C133.695145,150.571803 126.249723,149.154838 119.135467,150.855196 C114.385851,151.990222 109.579588,154.500066 104.879357,153.179019 C103.04342,152.663098 100.967824,151.609458 99.3947856,152.687804 C99.3148992,152.741576 99.2408225,152.801162 99.1681984,152.8622 C98.4230753,153.507464 98.0904569,154.540759 97.8144855,155.507202 C90.9950831,179.395055 88.03783,214.957245 86.8613198,247.17976 C85.3783358,287.758736 85.5657059,330.315649 85.5657059,330.315649 L104.189428,330.4261 C104.189428,330.4261 115.110639,279.02151 115.992296,251.049892 C121.991046,235.140642 134.374906,202.265599 139.982938,187.157116 C143.696935,177.143897 144.64831,166.228179 144.205303,155.553707 Z" id="Path" fill="#102B5E" fill-rule="nonzero"></path>
                        <polygon id="Path" fill="#F1B282" fill-rule="nonzero" points="185.603941 312.251159 193.531587 323.303488 182.316974 334.902256 173.597726 321.244165"></polygon>
                        <path d="M190.706509,314.310482 C191.07544,318.426222 186.394092,319.745815 183.83046,321.529012 C181.26683,323.312208 172.037761,328.844912 170.547514,326.316173 C169.057268,323.787436 169.607759,321.244165 168.554709,319.272041 C167.50166,317.299915 164.144974,315.647516 165.768848,313.142031 C167.392724,310.636547 171.789387,310.466511 174.572341,309.373631 C176.607269,308.574316 182.687358,302.259739 184.128219,303.147703 C185.569081,304.035669 185.371544,306.994582 186.351968,308.439161 C187.810261,310.581321 190.421824,311.114681 190.706509,314.310482 Z" id="Path" fill="#355AA2" fill-rule="nonzero"></path>
                        <path d="M105.551856,336.579361 C103.803068,340.323056 99.0926693,339.109552 95.9814533,339.362426 C92.8702372,339.6153 82.111704,339.756269 82.0925213,336.820609 C82.0739396,333.884948 83.8270851,331.963689 83.9084241,329.729969 C83.9897631,327.496251 81.9170715,324.378928 84.5794708,323.028815 C87.24187,321.678702 91.1272589,323.743838 94.0830595,324.198719 C96.2443525,324.531524 104.671652,322.129223 105.47197,323.62176 C106.272287,325.114297 104.613553,327.571823 104.737014,329.314326 C104.920027,331.899743 106.908474,333.674219 105.551856,336.579361 Z" id="Path" fill="#355AA2" fill-rule="nonzero"></path>
                        <path d="M191.421131,320.80091 C192.652835,319.655711 195.63478,320.388172 199.399613,324.893396 C203.164446,329.398618 207.035311,332.466529 203.247239,336.035828 C200.868073,338.278266 185.805835,345.626139 176.247054,352.899893 C172.794503,355.527455 167.391271,356.41542 163.016395,355.59576 C162.12312,355.428632 161.396879,354.774647 161.168839,353.933188 C160.942252,353.091728 161.25744,352.222656 161.970608,351.722723 C169.9244,346.159499 170.595446,346.684139 173.741523,338.336397 C174.883172,335.306272 175.721254,332.642378 176.871621,331.683201 C179.109895,329.81862 181.889945,331.013232 185.434001,327.853762 C188.978057,324.694294 189.291793,322.783207 191.421131,320.80091 Z" id="Path" fill="#0B224E" fill-rule="nonzero"></path>
                        <path d="M102.689015,343.417126 C104.317247,343.284876 105.965814,345.803441 105.704367,351.879679 C105.44292,357.955915 106.500327,361.214209 101.460215,361.656011 C97.1260089,362.036775 68.4394924,361.273795 60.4915117,361.052892 C59.8800169,361.035454 59.307739,360.7259 58.9228314,360.204168 C58.5379237,359.682433 58.3766981,358.99793 58.4841817,358.329413 C58.9576909,355.376313 61.1320562,350.917595 69.8077302,350.071776 C76.1768633,348.942564 82.3702458,342.89394 85.1880606,342.829994 C88.0058755,342.766049 89.207078,345.527314 93.8027305,345.258454 C98.3983831,344.989594 99.8741046,343.645295 102.689015,343.417126 Z" id="Path" fill="#0B224E" fill-rule="nonzero"></path>
                        <path d="M156.191184,101.014355 C151.925244,141.914509 143.394818,160.407721 149.793001,175.700772 C156.191184,190.993823 134.864392,180.323711 122.778291,181.035828 C110.693642,181.74649 95.0533174,194.195436 85.1009117,186.370882 C80.1276139,182.462965 81.9083566,172.785457 85.3071641,161.727316 C88.7161391,150.648828 93.7489887,138.186801 95.2494025,128.7549 C95.6299527,126.361319 95.9248064,123.515762 96.2167553,120.365013 C98.2110129,98.6919858 100.097787,62.554288 129.88819,59.7581435 C137.326349,59.0620139 160.45567,60.1142013 156.191184,101.014355 Z" id="Path" fill="#1B90FB" fill-rule="nonzero"></path>
                        <path d="M141.009843,79.0245095 C141.009843,79.0245095 138.834025,129.28826 130.659457,144.937368 C122.914824,159.76391 100.036783,160.756513 85.3071641,161.727316 C88.7161391,150.648828 93.7489887,138.186801 95.2494025,128.7549 C95.6299527,126.361319 95.9248064,123.515762 96.2167553,120.365013 C97.8159379,119.102097 99.1449587,117.666239 100.090524,116.012386 C103.644748,109.787913 110.786601,88.3139878 119.366411,80.2089471 C127.946221,72.1039065 138.200743,79.0245095 141.009843,79.0245095 Z" id="Path" fill="#1277D7" fill-rule="nonzero"></path>
                        <path d="M142.630813,89.8123376 C142.630813,89.8123376 134.768529,141.277965 112.699519,148.851099 C90.6290577,156.424232 50.1396735,145.650937 45.8751868,145.29488 C41.6092476,144.938822 40.8989841,128.579051 45.8751868,129.291167 C50.8513896,130.001829 79.998343,132.812507 93.8608298,127.494891 C107.723317,122.177275 114.08664,86.3970882 116.965459,81.6331787 C121.905349,73.4511134 142.630813,54.9579015 142.630813,89.8123376 Z" id="Path" fill="#1B90FB" fill-rule="nonzero"></path>
                    </g>
                </g>
            </g>
        </g>
    </g>
</svg>