<?xml version="1.0" encoding="UTF-8"?>
<svg width="800px" height="800px" viewBox="0 0 800 800" version="1.1" xmlns="http://www.w3.org/2000/svg" xmlns:xlink="http://www.w3.org/1999/xlink">
    <title>编组 6xxhdpi/</title>
    <defs>
        <rect id="path-1" x="0" y="0" width="800" height="800"></rect>
        <linearGradient x1="51.7039795%" y1="30.366668%" x2="52.69182%" y2="67.4089298%" id="linearGradient-3">
            <stop stop-color="#FFFFFF" offset="0%"></stop>
            <stop stop-color="#027AFF" offset="100%"></stop>
        </linearGradient>
        <linearGradient x1="49.8887192%" y1="17.5474417%" x2="50.7641281%" y2="273.312515%" id="linearGradient-4">
            <stop stop-color="#010101" stop-opacity="0" offset="0%"></stop>
            <stop stop-color="#010101" offset="95%"></stop>
        </linearGradient>
        <linearGradient x1="53.0413955%" y1="40.8512538%" x2="22.8127233%" y2="131.765756%" id="linearGradient-5">
            <stop stop-color="#010101" stop-opacity="0" offset="0%"></stop>
            <stop stop-color="#010101" offset="95%"></stop>
        </linearGradient>
        <linearGradient x1="20.9951312%" y1="22.2072964%" x2="133.867712%" y2="130.354612%" id="linearGradient-6">
            <stop stop-color="#010101" stop-opacity="0" offset="0%"></stop>
            <stop stop-color="#010101" offset="95%"></stop>
        </linearGradient>
        <linearGradient x1="49.6294782%" y1="50.2047983%" x2="52.4633311%" y2="48.6285131%" id="linearGradient-7">
            <stop stop-color="#010101" stop-opacity="0" offset="0%"></stop>
            <stop stop-color="#010101" offset="95%"></stop>
        </linearGradient>
        <linearGradient x1="50.4660646%" y1="3.64980916%" x2="47.4754832%" y2="299.701813%" id="linearGradient-8">
            <stop stop-color="#010101" stop-opacity="0" offset="0%"></stop>
            <stop stop-color="#010101" offset="95%"></stop>
        </linearGradient>
        <linearGradient x1="46.8219875%" y1="56.4900108%" x2="75.6655621%" y2="-2.36870439%" id="linearGradient-9">
            <stop stop-color="#010101" stop-opacity="0" offset="0%"></stop>
            <stop stop-color="#010101" offset="95%"></stop>
        </linearGradient>
        <linearGradient x1="45.2562704%" y1="34.5227559%" x2="63.6677572%" y2="158.340708%" id="linearGradient-10">
            <stop stop-color="#010101" stop-opacity="0" offset="0%"></stop>
            <stop stop-color="#010101" offset="95%"></stop>
        </linearGradient>
        <linearGradient x1="-121%" y1="50.011274%" x2="222%" y2="50.011274%" id="linearGradient-11">
            <stop stop-color="#FFFFFF" stop-opacity="0" offset="0%"></stop>
            <stop stop-color="#FFFFFF" offset="95%"></stop>
        </linearGradient>
        <linearGradient x1="-121%" y1="50%" x2="221%" y2="50%" id="linearGradient-12">
            <stop stop-color="#FFFFFF" stop-opacity="0" offset="0%"></stop>
            <stop stop-color="#FFFFFF" offset="95%"></stop>
        </linearGradient>
        <linearGradient x1="-122%" y1="50%" x2="221%" y2="50%" id="linearGradient-13">
            <stop stop-color="#FFFFFF" stop-opacity="0" offset="0%"></stop>
            <stop stop-color="#FFFFFF" offset="95%"></stop>
        </linearGradient>
        <linearGradient x1="-121%" y1="50%" x2="222%" y2="50%" id="linearGradient-14">
            <stop stop-color="#FFFFFF" stop-opacity="0" offset="0%"></stop>
            <stop stop-color="#FFFFFF" offset="95%"></stop>
        </linearGradient>
        <linearGradient x1="-121%" y1="50%" x2="222%" y2="50%" id="linearGradient-15">
            <stop stop-color="#FFFFFF" stop-opacity="0" offset="0%"></stop>
            <stop stop-color="#FFFFFF" offset="95%"></stop>
        </linearGradient>
        <linearGradient x1="0%" y1="50%" x2="100%" y2="50%" id="linearGradient-16">
            <stop stop-color="#FFFFFF" stop-opacity="0" offset="0%"></stop>
            <stop stop-color="#FFFFFF" offset="95%"></stop>
        </linearGradient>
        <linearGradient x1="0%" y1="50%" x2="100%" y2="50%" id="linearGradient-17">
            <stop stop-color="#FFFFFF" stop-opacity="0" offset="0%"></stop>
            <stop stop-color="#FFFFFF" offset="95%"></stop>
        </linearGradient>
        <linearGradient x1="0%" y1="50%" x2="100%" y2="50%" id="linearGradient-18">
            <stop stop-color="#FFFFFF" stop-opacity="0" offset="0%"></stop>
            <stop stop-color="#FFFFFF" offset="95%"></stop>
        </linearGradient>
        <linearGradient x1="-134.25%" y1="49.9954698%" x2="233.75%" y2="49.9954698%" id="linearGradient-19">
            <stop stop-color="#FFFFFF" stop-opacity="0" offset="0%"></stop>
            <stop stop-color="#FFFFFF" offset="95%"></stop>
        </linearGradient>
        <linearGradient x1="-142.375%" y1="50%" x2="241.625%" y2="50%" id="linearGradient-20">
            <stop stop-color="#FFFFFF" stop-opacity="0" offset="0%"></stop>
            <stop stop-color="#FFFFFF" offset="95%"></stop>
        </linearGradient>
        <linearGradient x1="-138.5%" y1="49.9956609%" x2="237.5%" y2="49.9956609%" id="linearGradient-21">
            <stop stop-color="#FFFFFF" stop-opacity="0" offset="0%"></stop>
            <stop stop-color="#FFFFFF" offset="95%"></stop>
        </linearGradient>
        <linearGradient x1="-130%" y1="50%" x2="230%" y2="50%" id="linearGradient-22">
            <stop stop-color="#FFFFFF" stop-opacity="0" offset="0%"></stop>
            <stop stop-color="#FFFFFF" offset="95%"></stop>
        </linearGradient>
        <linearGradient x1="-121%" y1="49.9580607%" x2="223%" y2="49.9580607%" id="linearGradient-23">
            <stop stop-color="#FFFFFF" stop-opacity="0" offset="0%"></stop>
            <stop stop-color="#FFFFFF" offset="95%"></stop>
        </linearGradient>
        <linearGradient x1="-128.25%" y1="49.9754098%" x2="227.75%" y2="49.9754098%" id="linearGradient-24">
            <stop stop-color="#FFFFFF" stop-opacity="0" offset="0%"></stop>
            <stop stop-color="#FFFFFF" offset="95%"></stop>
        </linearGradient>
        <linearGradient x1="-136.375%" y1="49.9959602%" x2="235.625%" y2="49.9959602%" id="linearGradient-25">
            <stop stop-color="#FFFFFF" stop-opacity="0" offset="0%"></stop>
            <stop stop-color="#FFFFFF" offset="95%"></stop>
        </linearGradient>
        <linearGradient x1="-143.5%" y1="50%" x2="243.5%" y2="50%" id="linearGradient-26">
            <stop stop-color="#FFFFFF" stop-opacity="0" offset="0%"></stop>
            <stop stop-color="#FFFFFF" offset="95%"></stop>
        </linearGradient>
        <linearGradient x1="0%" y1="50%" x2="100%" y2="50%" id="linearGradient-27">
            <stop stop-color="#FFFFFF" stop-opacity="0" offset="0%"></stop>
            <stop stop-color="#FFFFFF" offset="95%"></stop>
        </linearGradient>
        <linearGradient x1="0%" y1="50%" x2="100%" y2="50%" id="linearGradient-28">
            <stop stop-color="#FFFFFF" stop-opacity="0" offset="0%"></stop>
            <stop stop-color="#FFFFFF" offset="95%"></stop>
        </linearGradient>
        <linearGradient x1="51.576202%" y1="49.6807415%" x2="40.4537005%" y2="51.8915208%" id="linearGradient-29">
            <stop stop-color="#010101" stop-opacity="0" offset="0%"></stop>
            <stop stop-color="#010101" offset="95%"></stop>
        </linearGradient>
        <linearGradient x1="29.4526707%" y1="31.0482408%" x2="102.472622%" y2="98.3949946%" id="linearGradient-30">
            <stop stop-color="#FFFFFF" stop-opacity="0" offset="0%"></stop>
            <stop stop-color="#FFFFFF" offset="95%"></stop>
        </linearGradient>
        <linearGradient x1="50.1555049%" y1="47.0957434%" x2="49.4920174%" y2="59.8760948%" id="linearGradient-31">
            <stop stop-color="#010101" stop-opacity="0" offset="0%"></stop>
            <stop stop-color="#010101" offset="95%"></stop>
        </linearGradient>
        <linearGradient x1="50.1555049%" y1="47.0957434%" x2="49.4920174%" y2="59.8777173%" id="linearGradient-32">
            <stop stop-color="#010101" stop-opacity="0" offset="0%"></stop>
            <stop stop-color="#010101" offset="95%"></stop>
        </linearGradient>
        <linearGradient x1="15.6643428%" y1="-54.4752909%" x2="114.753677%" y2="247.747955%" id="linearGradient-33">
            <stop stop-color="#FFFFFF" stop-opacity="0" offset="0%"></stop>
            <stop stop-color="#FFFFFF" offset="95%"></stop>
        </linearGradient>
        <linearGradient x1="51.6425513%" y1="41.3020697%" x2="38.7637764%" y2="109.529735%" id="linearGradient-34">
            <stop stop-color="#010101" stop-opacity="0" offset="0%"></stop>
            <stop stop-color="#010101" offset="95%"></stop>
        </linearGradient>
        <linearGradient x1="27.9851759%" y1="-44.3797655%" x2="95.0418663%" y2="243.084365%" id="linearGradient-35">
            <stop stop-color="#FFFFFF" stop-opacity="0" offset="0%"></stop>
            <stop stop-color="#FFFFFF" offset="95%"></stop>
        </linearGradient>
        <linearGradient x1="57.9996563%" y1="49.9627226%" x2="-24.4028184%" y2="50.3248459%" id="linearGradient-36">
            <stop stop-color="#FFFFFF" stop-opacity="0" offset="0%"></stop>
            <stop stop-color="#FFFFFF" offset="95%"></stop>
        </linearGradient>
        <linearGradient x1="49.8571882%" y1="47.0404542%" x2="50.3649635%" y2="56.8345504%" id="linearGradient-37">
            <stop stop-color="#010101" stop-opacity="0" offset="0%"></stop>
            <stop stop-color="#010101" offset="95%"></stop>
        </linearGradient>
        <linearGradient x1="49.8571882%" y1="47.0433744%" x2="50.3649635%" y2="56.8345504%" id="linearGradient-38">
            <stop stop-color="#010101" stop-opacity="0" offset="0%"></stop>
            <stop stop-color="#010101" offset="95%"></stop>
        </linearGradient>
        <linearGradient x1="49.8571882%" y1="47.0404542%" x2="50.3649635%" y2="56.8316303%" id="linearGradient-39">
            <stop stop-color="#010101" stop-opacity="0" offset="0%"></stop>
            <stop stop-color="#010101" offset="95%"></stop>
        </linearGradient>
        <linearGradient x1="-0.0494071146%" y1="50%" x2="99.9505929%" y2="50%" id="linearGradient-40">
            <stop stop-color="#010101" stop-opacity="0" offset="0%"></stop>
            <stop stop-color="#010101" offset="95%"></stop>
        </linearGradient>
        <linearGradient x1="49.6975425%" y1="-22.605364%" x2="50.4347826%" y2="291.800766%" id="linearGradient-41">
            <stop stop-color="#010101" stop-opacity="0" offset="0%"></stop>
            <stop stop-color="#010101" offset="95%"></stop>
        </linearGradient>
        <linearGradient x1="49.707806%" y1="-22.605364%" x2="50.4430038%" y2="291.800766%" id="linearGradient-42">
            <stop stop-color="#010101" stop-opacity="0" offset="0%"></stop>
            <stop stop-color="#010101" offset="95%"></stop>
        </linearGradient>
        <linearGradient x1="49.7164461%" y1="-22.605364%" x2="50.4536862%" y2="291.800766%" id="linearGradient-43">
            <stop stop-color="#010101" stop-opacity="0" offset="0%"></stop>
            <stop stop-color="#010101" offset="95%"></stop>
        </linearGradient>
        <linearGradient x1="72.1430528%" y1="27.8332224%" x2="24.0611476%" y2="75.9813706%" id="linearGradient-44">
            <stop stop-color="#FFFFFF" stop-opacity="0" offset="0%"></stop>
            <stop stop-color="#FFFFFF" offset="95%"></stop>
        </linearGradient>
        <linearGradient x1="50.0713849%" y1="46.901551%" x2="49.7246584%" y2="64.9140275%" id="linearGradient-45">
            <stop stop-color="#010101" stop-opacity="0" offset="0%"></stop>
            <stop stop-color="#010101" offset="95%"></stop>
        </linearGradient>
        <linearGradient x1="50.0713849%" y1="46.901551%" x2="49.7246584%" y2="64.9160214%" id="linearGradient-46">
            <stop stop-color="#010101" stop-opacity="0" offset="0%"></stop>
            <stop stop-color="#010101" offset="95%"></stop>
        </linearGradient>
        <linearGradient x1="49.9586387%" y1="-37.0839445%" x2="49.9586387%" y2="50.8517578%" id="linearGradient-47">
            <stop stop-color="#010101" stop-opacity="0" offset="0%"></stop>
            <stop stop-color="#010101" offset="95%"></stop>
        </linearGradient>
        <linearGradient x1="51.8568535%" y1="42.70174%" x2="49.0344362%" y2="59.0144525%" id="linearGradient-48">
            <stop stop-color="#FFFFFF" stop-opacity="0" offset="0%"></stop>
            <stop stop-color="#FFFFFF" offset="95%"></stop>
        </linearGradient>
        <linearGradient x1="50.6414585%" y1="47.4952702%" x2="47.2248481%" y2="64.4348172%" id="linearGradient-49">
            <stop stop-color="#010101" stop-opacity="0" offset="0%"></stop>
            <stop stop-color="#010101" offset="95%"></stop>
        </linearGradient>
        <linearGradient x1="54.797478%" y1="47.0343902%" x2="45.3785202%" y2="54.9893695%" id="linearGradient-50">
            <stop stop-color="#010101" stop-opacity="0" offset="0%"></stop>
            <stop stop-color="#010101" offset="95%"></stop>
        </linearGradient>
        <linearGradient x1="0%" y1="50%" x2="100%" y2="50%" id="linearGradient-51">
            <stop stop-color="#010101" stop-opacity="0" offset="0%"></stop>
            <stop stop-color="#010101" offset="95%"></stop>
        </linearGradient>
        <linearGradient x1="0%" y1="50%" x2="100%" y2="50%" id="linearGradient-52">
            <stop stop-color="#010101" stop-opacity="0" offset="0%"></stop>
            <stop stop-color="#010101" offset="95%"></stop>
        </linearGradient>
        <linearGradient x1="0%" y1="50%" x2="99.9266862%" y2="50%" id="linearGradient-53">
            <stop stop-color="#010101" stop-opacity="0" offset="0%"></stop>
            <stop stop-color="#010101" offset="95%"></stop>
        </linearGradient>
        <linearGradient x1="2.77418418e-13%" y1="50.0363573%" x2="99.560087%" y2="50.0363573%" id="linearGradient-54">
            <stop stop-color="#FFFFFF" stop-opacity="0" offset="0%"></stop>
            <stop stop-color="#FFFFFF" offset="95%"></stop>
        </linearGradient>
        <linearGradient x1="145.452952%" y1="-60.7388547%" x2="-587.743619%" y2="780.786434%" id="linearGradient-55">
            <stop stop-color="#FFFFFF" stop-opacity="0" offset="0%"></stop>
            <stop stop-color="#FFFFFF" offset="95%"></stop>
        </linearGradient>
        <linearGradient x1="-0.297815965%" y1="49.9090144%" x2="99.837046%" y2="49.9090144%" id="linearGradient-56">
            <stop stop-color="#FFFFFF" stop-opacity="0" offset="0%"></stop>
            <stop stop-color="#FFFFFF" offset="95%"></stop>
        </linearGradient>
        <linearGradient x1="50.6669203%" y1="12.4777822%" x2="47.3340477%" y2="210.132438%" id="linearGradient-57">
            <stop stop-color="#010101" stop-opacity="0" offset="0%"></stop>
            <stop stop-color="#010101" offset="95%"></stop>
        </linearGradient>
        <linearGradient x1="51.2977716%" y1="10.3381491%" x2="47.9593226%" y2="206.985844%" id="linearGradient-58">
            <stop stop-color="#010101" stop-opacity="0" offset="0%"></stop>
            <stop stop-color="#010101" offset="95%"></stop>
        </linearGradient>
        <linearGradient x1="197.859691%" y1="-157.657807%" x2="-534.720571%" y2="858.896414%" id="linearGradient-59">
            <stop stop-color="#FFFFFF" stop-opacity="0" offset="0%"></stop>
            <stop stop-color="#FFFFFF" offset="95%"></stop>
        </linearGradient>
    </defs>
    <g id="页面2" stroke="none" stroke-width="1" fill="none" fill-rule="evenodd">
        <g id="编组-6">
            <mask id="mask-2" fill="white">
                <use xlink:href="#path-1"></use>
            </mask>
            <use id="蒙版" fill="#FFFFFF" xlink:href="#path-1"></use>
            <g mask="url(#mask-2)">
                <g transform="translate(-262.000000, -394.000000)">
                    <path d="M1168.46498,605.328513 C1159.44441,660.335381 1142.18584,710.76477 1118.26047,752.025626 C1104.07268,776.281057 1087.85806,797.142724 1072.15015,818.570018 C1070.63003,820.732711 1069.02884,822.895404 1067.48845,825.224457 C1054.57756,843.124899 1042.01123,861.823873 1031.32985,883.350984 C1011.81151,922.445814 998.900616,969.525972 981.26722,1011.11622 C942.372405,1103.44656 883.006636,1164.76722 822.039673,1210.94903 C738.939756,1273.73366 646.313752,1313.2943 557.011745,1284.34749 C528.413213,1274.998 500.706484,1258.92753 473.080829,1242.85706 C402.047291,1201.44427 330.939436,1160.05366 259.757264,1118.68523 C213.140238,1091.46857 165.753017,1063.75283 123.95984,1018.96846 C82.1666623,974.184079 45.6229674,909.636019 30.7257873,829.516571 C30.1785439,826.688434 29.6921054,823.827025 29.2056669,820.8658 C29.063789,820.167083 29.0029842,819.368551 28.8611063,818.703107 C19.3552866,759.977681 21.3010407,697.292863 25.3141586,636.670922 C25.5168413,633.942602 25.6587192,631.081193 25.8816702,628.352873 C29.4083496,578.644212 35.1037341,528.037202 51.7034491,486.879495 C79.6939331,417.373877 131.195613,390.123949 172.867181,344.407951 C262.574554,245.922251 312.35343,53.775318 426.990778,37.6715751 C555.917258,19.671317 683.465495,-43.9118498 808.723418,50.4480984 C849.563986,81.3579686 886.046876,126.37525 925.853763,160.678884 C968.619818,197.477933 1014.79094,221.766636 1057.59753,258.366052 C1100.40412,294.965468 1141.20416,346.703733 1161.53323,420.335103 C1177.54517,478.128907 1178.51805,543.77495 1168.46498,605.328513 Z" id="路径" stroke="none" fill="url(#linearGradient-3)" fill-rule="nonzero" opacity="0.24"></path>
                    <path d="M1169,913.667915 L1169,929.80726 C1161.15655,958.87282 1146.15011,985.519646 1125.34684,1007.32183 C1113.01046,1020.13837 1098.91174,1031.16165 1085.25361,1042.4838 C1083.93185,1043.62657 1082.5396,1044.76933 1081.20023,1046 L1069.25156,1046 L1069.25156,1043.71447 L178.265376,1043.71447 C178.142012,1043.34527 178.089142,1042.92333 177.965778,1042.57171 C169.700404,1011.54127 171.39225,978.418688 174.881683,946.386131 C175.057917,944.94449 175.181281,943.432525 175.375138,941.990884 L198.97287,941.990884 L198.97287,905.475175 L230.360143,905.475175 L230.360143,941.973303 L244.934694,941.973303 L244.934694,910.591242 L264.496667,910.591242 L264.496667,941.973303 L268.70866,941.973303 L268.70866,869.02979 L307.832606,869.02979 L307.832606,941.973303 L975.195481,941.973303 L975.195481,830 L1030.74443,830 L1030.74443,870.717565 L1103.29997,870.717565 L1103.29997,913.667915 L1118.03313,913.667915 L1118.03313,833.516197 L1150.88315,833.516197 L1150.88315,913.738239 L1169,913.667915 Z" id="路径" stroke="none" fill="#027AFF" fill-rule="nonzero" opacity="0.24"></path>
                    <polygon id="路径" stroke="none" fill="#027AFF" fill-rule="nonzero" points="603 1050 443 1050 443 804.169517 539.777314 727 603 727"></polygon>
                    <polygon id="路径" stroke="none" fill="url(#linearGradient-4)" fill-rule="nonzero" points="603 1050 458 1050 458 827.012431 545.706289 757 603 757"></polygon>
                    <rect id="矩形" stroke="none" fill="url(#linearGradient-5)" fill-rule="nonzero" x="454" y="804" width="31" height="237"></rect>
                    <polygon id="路径" stroke="none" fill="url(#linearGradient-6)" fill-rule="nonzero" points="602.507897 766.217181 551.0304 766.217181 472.364209 829 455 829 545.687567 756 603 756"></polygon>
                    <path d="M1107,1042 C1094.13306,1052.58519 1081.53682,1063.27623 1070.90761,1076.01375 C1070.85176,1076.099 1070.79153,1076.18143 1070.72715,1076.26073 C1053.34867,1096.99007 1041.85324,1121.95347 1026.15305,1144.00595 C1003.09002,1176.5907 972.014472,1201.90695 937.726704,1222.33637 C920.513316,1232.56838 902.694521,1241.79368 884.36411,1249.96371 C810.374716,1283.25414 727.903611,1304.23046 648.392082,1288.88193 C622.928903,1283.92453 598.259756,1275.40345 573.662795,1266.88238 C530.881285,1252.01606 488.057668,1237.16739 445.191942,1222.33637 L383.834884,1201.06013 C342.166223,1186.62899 299.974222,1171.93322 262.762971,1148.1871 C234.195847,1129.92765 208.407836,1105.58171 191.967754,1076.01375 C186.877892,1067.04603 182.753318,1057.58635 179.66025,1047.78657 C179.046679,1045.91652 178.487247,1043.9759 178,1042.05293 L1107,1042 Z" id="路径" stroke="none" fill="#027AFF" fill-rule="nonzero" opacity="0.5"></path>
                    <path d="M341.220984,1045.49712 C333.300681,1045.31546 325.418543,1046.64011 318,1049.39958 C372.323351,1065.14942 430.543313,1052.49705 487.070629,1055.71702 C490.826187,1055.92702 494.581745,1056.20701 498.284407,1056.78451 C500.876271,1057.16951 503.41524,1057.712 506.007104,1058.1145 C512.523079,1058.98985 519.091088,1059.42834 525.666479,1059.42698 C629.41156,1061.76029 733.18015,1061.49779 836.972249,1058.63949 C893.74641,1057.08201 952.512955,1056.88951 1008,1045.09463 C868.709358,1044.34214 728.889763,1058.167 590.392549,1043.34465 C561.864415,1040.29968 533.406807,1036.01222 504.719988,1035.17223 C485.430879,1034.59473 466.141769,1035.57472 446.870292,1036.55471 L362.590637,1040.84217 C355.679,1041.20967 348.203148,1045.65462 341.220984,1045.49712 Z" id="路径" stroke="none" fill="url(#linearGradient-7)" fill-rule="nonzero"></path>
                    <rect id="矩形" stroke="none" fill="#027AFF" fill-rule="nonzero" x="342" y="794" width="127" height="256"></rect>
                    <rect id="矩形" stroke="none" fill="#027AFF" fill-rule="nonzero" x="612" y="902" width="97" height="148"></rect>
                    <rect id="矩形" stroke="none" fill="url(#linearGradient-8)" fill-rule="nonzero" x="612" y="902" width="97" height="148"></rect>
                    <rect id="矩形" stroke="none" fill="#027AFF" fill-rule="nonzero" x="622" y="912" width="9" height="70"></rect>
                    <rect id="矩形" stroke="none" fill="#027AFF" fill-rule="nonzero" x="641" y="912" width="9" height="70"></rect>
                    <rect id="矩形" stroke="none" fill="#027AFF" fill-rule="nonzero" x="659" y="912" width="9" height="70"></rect>
                    <rect id="矩形" stroke="none" fill="#027AFF" fill-rule="nonzero" x="678" y="911" width="9" height="139"></rect>
                    <rect id="矩形" stroke="none" fill="url(#linearGradient-9)" fill-rule="nonzero" x="698" y="902" width="23" height="147"></rect>
                    <rect id="矩形" stroke="none" fill="#FFFFFF" fill-rule="nonzero" x="560" y="970" width="122" height="80"></rect>
                    <polygon id="路径" stroke="none" fill="#027AFF" fill-rule="nonzero" points="763 754 860 790.436137 860 839 763 839"></polygon>
                    <polygon id="路径" stroke="none" fill="url(#linearGradient-10)" fill-rule="nonzero" points="763 754 860 790.436137 860 839 763 839"></polygon>
                    <line x1="775" y1="758" x2="775" y2="836" id="路径" stroke="url(#linearGradient-11)" stroke-width="3.43" fill="none"></line>
                    <line x1="792" y1="763" x2="792" y2="836" id="路径" stroke="url(#linearGradient-12)" stroke-width="3.43" fill="none"></line>
                    <line x1="810" y1="770" x2="810" y2="836" id="路径" stroke="url(#linearGradient-13)" stroke-width="3.43" fill="none"></line>
                    <line x1="827" y1="777" x2="827" y2="836" id="路径" stroke="url(#linearGradient-14)" stroke-width="3.43" fill="none"></line>
                    <line x1="844" y1="782" x2="844" y2="836" id="路径" stroke="url(#linearGradient-15)" stroke-width="3.43" fill="none"></line>
                    <line x1="763" y1="821" x2="858" y2="821" id="路径" stroke="url(#linearGradient-16)" stroke-width="3.43" fill="none"></line>
                    <line x1="763" y1="804" x2="858" y2="804" id="路径" stroke="url(#linearGradient-16)" stroke-width="3.43" fill="none"></line>
                    <line x1="763" y1="787" x2="850" y2="787" id="路径" stroke="url(#linearGradient-17)" stroke-width="3.43" fill="none"></line>
                    <line x1="763" y1="770" x2="807" y2="770" id="路径" stroke="url(#linearGradient-18)" stroke-width="3.43" fill="none"></line>
                    <polygon id="路径" stroke="none" fill="#027AFF" fill-rule="nonzero" points="873 1050 873 807 708 844.922514 708 1050"></polygon>
                    <path d="M723.255,842 C722.575,906.860016 722.575,969.944731 723.255,1036" id="路径" stroke="url(#linearGradient-19)" stroke-width="3.43" fill="none"></path>
                    <path d="M740.4125,837 C739.3125,902.251684 739.3125,969.831266 740.4125,1036" id="路径" stroke="url(#linearGradient-20)" stroke-width="3.43" fill="none"></path>
                    <path d="M757.67,833 C758.55,900.102925 758.55,967.522954 757.67,1036" id="路径" stroke="url(#linearGradient-21)" stroke-width="3.43" fill="none"></path>
                    <path d="M774.82,830 C775.3,898.426451 775.3,965.71041 774.82,1036" id="路径" stroke="url(#linearGradient-22)" stroke-width="3.43" fill="none"></path>
                    <path d="M792,826 C792,896.228988 792,965.771012 792,1036" id="路径" stroke="url(#linearGradient-23)" stroke-width="3.43" fill="none"></path>
                    <path d="M810.135,821 C809.775,893.677049 809.775,963.234836 810.135,1036" id="路径" stroke="url(#linearGradient-24)" stroke-width="3.43" fill="none"></path>
                    <path d="M827.2925,818 C826.5125,889.809485 826.5125,963.556435 827.2925,1036" id="路径" stroke="url(#linearGradient-25)" stroke-width="3.43" fill="none"></path>
                    <path d="M844.55,814 C845.75,887.664919 845.75,961.506196 844.55,1036" id="路径" stroke="url(#linearGradient-26)" stroke-width="3.43" fill="none"></path>
                    <line x1="708" y1="1040" x2="865" y2="1040" id="路径" stroke="url(#linearGradient-27)" stroke-width="3.43" fill="none"></line>
                    <line x1="708" y1="1023" x2="865" y2="1023" id="路径" stroke="url(#linearGradient-27)" stroke-width="3.43" fill="none"></line>
                    <line x1="708" y1="1006" x2="865" y2="1006" id="路径" stroke="url(#linearGradient-27)" stroke-width="3.43" fill="none"></line>
                    <line x1="708" y1="989" x2="865" y2="989" id="路径" stroke="url(#linearGradient-27)" stroke-width="3.43" fill="none"></line>
                    <line x1="708" y1="973" x2="865" y2="973" id="路径" stroke="url(#linearGradient-27)" stroke-width="3.43" fill="none"></line>
                    <line x1="708" y1="956" x2="865" y2="956" id="路径" stroke="url(#linearGradient-27)" stroke-width="3.43" fill="none"></line>
                    <line x1="708" y1="939" x2="865" y2="939" id="路径" stroke="url(#linearGradient-27)" stroke-width="3.43" fill="none"></line>
                    <line x1="708" y1="922" x2="865" y2="922" id="路径" stroke="url(#linearGradient-27)" stroke-width="3.43" fill="none"></line>
                    <line x1="708" y1="905" x2="865" y2="905" id="路径" stroke="url(#linearGradient-27)" stroke-width="3.43" fill="none"></line>
                    <line x1="708" y1="888" x2="865" y2="888" id="路径" stroke="url(#linearGradient-27)" stroke-width="3.43" fill="none"></line>
                    <line x1="708" y1="871" x2="865" y2="871" id="路径" stroke="url(#linearGradient-27)" stroke-width="3.43" fill="none"></line>
                    <line x1="708" y1="854" x2="865" y2="854" id="路径" stroke="url(#linearGradient-27)" stroke-width="3.43" fill="none"></line>
                    <line x1="741" y1="838" x2="865" y2="838" id="路径" stroke="url(#linearGradient-28)" stroke-width="3.43" fill="none"></line>
                    <rect id="矩形" stroke="none" fill="#027AFF" fill-rule="nonzero" x="858" y="717" width="98" height="333"></rect>
                    <rect id="矩形" stroke="none" fill="#027AFF" fill-rule="nonzero" x="858" y="717" width="98" height="37"></rect>
                    <path d="M869.15,717 C868.75,821.380729 868.75,927.860716 869.15,1033" id="路径" stroke="#FFFFFF" stroke-width="1.71" fill="none"></path>
                    <path d="M881.15,717 C880.75,821.380729 880.75,927.860716 881.15,1033" id="路径" stroke="#FFFFFF" stroke-width="1.71" fill="none"></path>
                    <path d="M894.15,717 C893.75,821.380729 893.75,927.860716 894.15,1033" id="路径" stroke="#FFFFFF" stroke-width="1.71" fill="none"></path>
                    <path d="M907.15,717 C906.75,821.380729 906.75,927.860716 907.15,1033" id="路径" stroke="#FFFFFF" stroke-width="1.71" fill="none"></path>
                    <path d="M919.15,1033 C918.75,927.860716 918.75,821.310166 919.15,717" id="路径" stroke="#FFFFFF" stroke-width="1.71" fill="none"></path>
                    <path d="M932.1425,717 C931.7625,821.380729 931.7625,927.860716 932.1425,1033" id="路径" stroke="#FFFFFF" stroke-width="1.71" fill="none"></path>
                    <path d="M945.15,717 C944.75,821.380729 944.75,927.860716 945.15,1033" id="路径" stroke="#FFFFFF" stroke-width="1.71" fill="none"></path>
                    <line x1="858" y1="730" x2="956" y2="730" id="路径" stroke="#FFFFFF" stroke-width="1.71" fill="none"></line>
                    <line x1="858" y1="742" x2="956" y2="742" id="路径" stroke="#FFFFFF" stroke-width="1.71" fill="none"></line>
                    <line x1="858" y1="754" x2="956" y2="754" id="路径" stroke="#FFFFFF" stroke-width="1.71" fill="none"></line>
                    <line x1="858" y1="766" x2="956" y2="766" id="路径" stroke="#FFFFFF" stroke-width="1.71" fill="none"></line>
                    <line x1="956" y1="778" x2="858" y2="778" id="路径" stroke="#FFFFFF" stroke-width="1.71" fill="none"></line>
                    <line x1="858" y1="790" x2="956" y2="790" id="路径" stroke="#FFFFFF" stroke-width="1.71" fill="none"></line>
                    <line x1="858" y1="802" x2="956" y2="802" id="路径" stroke="#FFFFFF" stroke-width="1.71" fill="none"></line>
                    <line x1="858" y1="814" x2="956" y2="814" id="路径" stroke="#FFFFFF" stroke-width="1.71" fill="none"></line>
                    <line x1="858" y1="827" x2="956" y2="827" id="路径" stroke="#FFFFFF" stroke-width="1.71" fill="none"></line>
                    <line x1="858" y1="839" x2="956" y2="839" id="路径" stroke="#FFFFFF" stroke-width="1.71" fill="none"></line>
                    <line x1="858" y1="851" x2="956" y2="851" id="路径" stroke="#FFFFFF" stroke-width="1.71" fill="none"></line>
                    <line x1="858" y1="863" x2="956" y2="863" id="路径" stroke="#FFFFFF" stroke-width="1.71" fill="none"></line>
                    <line x1="858" y1="875" x2="956" y2="875" id="路径" stroke="#FFFFFF" stroke-width="1.71" fill="none"></line>
                    <line x1="858" y1="887" x2="956" y2="887" id="路径" stroke="#FFFFFF" stroke-width="1.71" fill="none"></line>
                    <line x1="858" y1="899" x2="956" y2="899" id="路径" stroke="#FFFFFF" stroke-width="1.71" fill="none"></line>
                    <line x1="858" y1="911" x2="956" y2="911" id="路径" stroke="#FFFFFF" stroke-width="1.71" fill="none"></line>
                    <line x1="858" y1="924" x2="956" y2="924" id="路径" stroke="#FFFFFF" stroke-width="1.71" fill="none"></line>
                    <line x1="858" y1="936" x2="956" y2="936" id="路径" stroke="#FFFFFF" stroke-width="1.71" fill="none"></line>
                    <line x1="858" y1="948" x2="956" y2="948" id="路径" stroke="#FFFFFF" stroke-width="1.71" fill="none"></line>
                    <line x1="858" y1="960" x2="956" y2="960" id="路径" stroke="#FFFFFF" stroke-width="1.71" fill="none"></line>
                    <line x1="858" y1="972" x2="956" y2="972" id="路径" stroke="#FFFFFF" stroke-width="1.71" fill="none"></line>
                    <line x1="858" y1="984" x2="956" y2="984" id="路径" stroke="#FFFFFF" stroke-width="1.71" fill="none"></line>
                    <line x1="858" y1="996" x2="956" y2="996" id="路径" stroke="#FFFFFF" stroke-width="1.71" fill="none"></line>
                    <line x1="858" y1="1008" x2="956" y2="1008" id="路径" stroke="#FFFFFF" stroke-width="1.71" fill="none"></line>
                    <line x1="858" y1="1020" x2="956" y2="1020" id="路径" stroke="#FFFFFF" stroke-width="1.71" fill="none"></line>
                    <line x1="858" y1="1033" x2="956" y2="1033" id="路径" stroke="#FFFFFF" stroke-width="1.71" fill="none"></line>
                    <rect id="矩形" stroke="none" fill="url(#linearGradient-29)" fill-rule="nonzero" x="343" y="793" width="33" height="257"></rect>
                    <polygon id="路径" stroke="none" fill="url(#linearGradient-30)" fill-rule="nonzero" points="423.490594 794 374 886.179906 374 988 469 794"></polygon>
                    <rect id="矩形" stroke="none" fill="url(#linearGradient-31)" fill-rule="nonzero" x="384" y="839" width="85" height="7"></rect>
                    <rect id="矩形" stroke="none" fill="url(#linearGradient-31)" fill-rule="nonzero" x="384" y="857" width="85" height="7"></rect>
                    <rect id="矩形" stroke="none" fill="url(#linearGradient-31)" fill-rule="nonzero" x="384" y="874" width="85" height="7"></rect>
                    <rect id="矩形" stroke="none" fill="url(#linearGradient-31)" fill-rule="nonzero" x="384" y="891" width="85" height="7"></rect>
                    <rect id="矩形" stroke="none" fill="url(#linearGradient-32)" fill-rule="nonzero" x="384" y="908" width="85" height="7"></rect>
                    <rect id="矩形" stroke="none" fill="url(#linearGradient-31)" fill-rule="nonzero" x="384" y="925" width="85" height="7"></rect>
                    <rect id="矩形" stroke="none" fill="url(#linearGradient-31)" fill-rule="nonzero" x="384" y="943" width="85" height="7"></rect>
                    <rect id="矩形" stroke="none" fill="url(#linearGradient-31)" fill-rule="nonzero" x="384" y="960" width="85" height="7"></rect>
                    <rect id="矩形" stroke="none" fill="url(#linearGradient-31)" fill-rule="nonzero" x="384" y="977" width="85" height="7"></rect>
                    <rect id="矩形" stroke="none" fill="url(#linearGradient-32)" fill-rule="nonzero" x="384" y="994" width="85" height="7"></rect>
                    <polygon id="路径" stroke="none" fill="url(#linearGradient-33)" fill-rule="nonzero" points="858.280651 808.653035 915.515913 716 955 716.757862 858 869"></polygon>
                    <polygon id="路径" stroke="none" fill="url(#linearGradient-34)" fill-rule="nonzero" points="858 781 870 787.695048 870 1050 858.06867 1050"></polygon>
                    <polygon id="路径" stroke="none" fill="url(#linearGradient-35)" fill-rule="nonzero" points="858.280651 944.644175 955 790 955 852.753136 858 1005"></polygon>
                    <polygon id="路径" stroke="none" fill="#027AFF" fill-rule="nonzero" points="756.424815 745 756 772.806897 859 809 858.43358 781.069517"></polygon>
                    <polygon id="路径" stroke="none" fill="url(#linearGradient-36)" fill-rule="nonzero" points="756.424815 745 756 772.806897 859 809 858.43358 781.069517"></polygon>
                    <rect id="矩形" stroke="none" fill="url(#linearGradient-37)" fill-rule="nonzero" x="548" y="798" width="56" height="5"></rect>
                    <rect id="矩形" stroke="none" fill="url(#linearGradient-38)" fill-rule="nonzero" x="515" y="807" width="56" height="5"></rect>
                    <rect id="矩形" stroke="none" fill="url(#linearGradient-37)" fill-rule="nonzero" x="548" y="817" width="56" height="5"></rect>
                    <rect id="矩形" stroke="none" fill="url(#linearGradient-38)" fill-rule="nonzero" x="515" y="826" width="56" height="5"></rect>
                    <rect id="矩形" stroke="none" fill="url(#linearGradient-37)" fill-rule="nonzero" x="548" y="836" width="56" height="5"></rect>
                    <rect id="矩形" stroke="none" fill="url(#linearGradient-38)" fill-rule="nonzero" x="515" y="845" width="56" height="5"></rect>
                    <rect id="矩形" stroke="none" fill="url(#linearGradient-38)" fill-rule="nonzero" x="548" y="855" width="56" height="5"></rect>
                    <rect id="矩形" stroke="none" fill="url(#linearGradient-39)" fill-rule="nonzero" x="515" y="864" width="56" height="5"></rect>
                    <rect id="矩形" stroke="none" fill="url(#linearGradient-38)" fill-rule="nonzero" x="548" y="874" width="56" height="5"></rect>
                    <rect id="矩形" stroke="none" fill="url(#linearGradient-37)" fill-rule="nonzero" x="515" y="883" width="56" height="5"></rect>
                    <rect id="矩形" stroke="none" fill="url(#linearGradient-38)" fill-rule="nonzero" x="548" y="893" width="56" height="5"></rect>
                    <rect id="矩形" stroke="none" fill="url(#linearGradient-37)" fill-rule="nonzero" x="515" y="902" width="56" height="5"></rect>
                    <rect id="矩形" stroke="none" fill="url(#linearGradient-38)" fill-rule="nonzero" x="548" y="912" width="56" height="5"></rect>
                    <rect id="矩形" stroke="none" fill="url(#linearGradient-37)" fill-rule="nonzero" x="515" y="921" width="56" height="5"></rect>
                    <rect id="矩形" stroke="none" fill="url(#linearGradient-38)" fill-rule="nonzero" x="548" y="931" width="56" height="5"></rect>
                    <rect id="矩形" stroke="none" fill="url(#linearGradient-37)" fill-rule="nonzero" x="515" y="940" width="56" height="5"></rect>
                    <path d="M1202,1076 C1201.92361,1076.08507 1201.84124,1076.16732 1201.75319,1076.24644 C1177.98517,1096.93007 1162.26324,1121.83844 1140.79058,1143.8423 C1109.24798,1176.3552 1066.74693,1201.61563 1019.85261,1222 L346.252808,1222 L262.336667,1200.77068 C205.421778,1186.37135 147.71709,1171.70798 96.8244184,1148.01423 C57.7540502,1129.79503 22.4845896,1105.50277 0,1076 L1202,1076 Z" id="路径" stroke="none" fill="#027AFF" fill-rule="nonzero"></path>
                    <path d="M594,1188.5 C594,1192.61176 518.536957,1196 425.51581,1196 C409.745059,1196 394.736561,1195.87647 380.332609,1195.7 C362.774506,1191.46471 345.295257,1187.10588 328,1182.39412 C355.546245,1181.54706 389.137945,1181 425.51581,1181 C518.405534,1181 594,1184.33529 594,1188.5 Z" id="路径" stroke="none" fill="url(#linearGradient-40)" fill-rule="nonzero"></path>
                    <path d="M317.441488,1008.18505 C319.450834,1002.17577 321.940289,996.272229 322.953853,990.03386 C324.056325,983.284439 323.362834,976.394037 323.842943,969.591748 C324.323053,962.789459 326.172362,955.63472 331.222399,951 C333.995085,956.220776 336.160559,961.736717 337.677199,967.441802 C340.273345,979.072659 337.446035,991.478906 340.682327,1002.95116 C342.275081,1007.72411 344.200142,1012.38177 346.443636,1016.89057 C348.714235,1021.4174 349.929617,1026.39196 350,1031.44676 C349.555455,1043.43007 335.774544,1049.7213 325.621125,1043.65916 C313.15607,1036.2577 313.476143,1019.99213 317.441488,1008.18505 Z" id="路径" stroke="none" fill="#027AFF" fill-rule="nonzero"></path>
                    <polygon id="路径" stroke="none" fill="#027AFF" fill-rule="nonzero" points="336 1051 330 1051 331.783333 1028 334.533333 1028"></polygon>
                    <polygon id="路径" stroke="none" fill="url(#linearGradient-41)" fill-rule="nonzero" points="336 1051 330 1051 331.783333 1028 334.533333 1028"></polygon>
                    <path d="M279.429904,1008.18505 C281.439964,1002.17577 283.930305,996.272229 284.944229,990.03386 C286.029306,983.284439 285.353357,976.394037 285.815848,969.591748 C286.27834,962.789459 288.146096,955.63472 293.215717,951 C295.991328,956.217904 298.151961,961.734754 299.655026,967.441802 C302.269884,979.072659 299.441569,991.478906 302.679011,1002.95116 C304.272332,1007.72411 306.198078,1012.38177 308.442371,1016.89057 C310.713778,1021.4174 311.929592,1026.39196 312,1031.44676 C311.555296,1043.43007 297.769483,1049.7213 287.612451,1043.65916 C275.160749,1036.2577 275.480935,1019.99213 279.429904,1008.18505 Z" id="路径" stroke="none" fill="#027AFF" fill-rule="nonzero"></path>
                    <polygon id="路径" stroke="none" fill="#027AFF" fill-rule="nonzero" points="298 1051 292 1051 293.778393 1028 296.537396 1028"></polygon>
                    <polygon id="路径" stroke="none" fill="url(#linearGradient-42)" fill-rule="nonzero" points="298 1051 292 1051 293.778393 1028 296.537396 1028"></polygon>
                    <path d="M241.429904,1008.18505 C243.422176,1002.17577 245.930305,996.272229 246.944229,990.03386 C248.029306,983.284439 247.353357,976.394037 247.815848,969.591748 C248.27834,962.789459 250.146096,955.63472 255.215717,951 C257.983816,956.221292 260.144108,961.737272 261.655026,967.441802 C264.269884,979.072659 261.441569,991.478906 264.661223,1002.95116 C266.260641,1007.72446 268.192326,1012.3821 270.442371,1016.89057 C272.713778,1021.4174 273.929592,1026.39196 274,1031.44676 C273.537508,1043.43007 259.769483,1049.7213 249.612451,1043.65916 C237.160749,1036.2577 237.480935,1019.99213 241.429904,1008.18505 Z" id="路径" stroke="none" fill="#027AFF" fill-rule="nonzero"></path>
                    <path d="M1016.44149,1008.18505 C1018.43305,1002.17577 1020.94029,996.272229 1021.95385,990.03386 C1023.03854,983.284439 1022.36283,976.394037 1022.82516,969.591748 C1023.28749,962.789459 1025.15458,955.63472 1030.2224,951 C1032.98951,956.221292 1035.14904,961.737272 1036.65942,967.441802 C1039.27334,979.072659 1036.44604,991.478906 1039.66454,1002.95116 C1041.26339,1007.72446 1043.19439,1012.3821 1045.44364,1016.89057 C1047.71424,1021.4174 1048.92962,1026.39196 1049,1031.44676 C1048.53767,1043.43007 1034.77454,1049.7213 1024.62113,1043.65916 C1012.15607,1036.2577 1012.47614,1019.99213 1016.44149,1008.18505 Z" id="路径" stroke="none" fill="#027AFF" fill-rule="nonzero"></path>
                    <polygon id="路径" stroke="none" fill="#027AFF" fill-rule="nonzero" points="1036 1051 1030 1051 1031.77839 1028 1034.5374 1028"></polygon>
                    <polygon id="路径" stroke="none" fill="url(#linearGradient-42)" fill-rule="nonzero" points="1036 1051 1030 1051 1031.77839 1028 1034.5374 1028"></polygon>
                    <path d="M979.430749,1008.18505 C981.422969,1002.17577 983.931033,996.272229 984.944931,990.03386 C986.02998,983.284439 985.354048,976.394037 985.816528,969.591748 C986.279007,962.789459 988.146714,955.63472 993.216205,951 C995.984231,956.221292 998.144468,961.737272 999.655347,967.441802 C1002.27014,979.072659 999.441894,991.478906 1002.66147,1002.95116 C1004.26084,1007.72446 1006.19248,1012.3821 1008.44246,1016.89057 C1010.70528,1021.42048 1011.92059,1026.39309 1012,1031.44676 C1011.53752,1043.43007 997.769852,1049.7213 987.595296,1043.65916 C975.161704,1036.2577 975.481883,1019.99213 979.430749,1008.18505 Z" id="路径" stroke="none" fill="#027AFF" fill-rule="nonzero"></path>
                    <polygon id="路径" stroke="none" fill="#027AFF" fill-rule="nonzero" points="998 1051 992 1051 993.783333 1028 996.55 1028"></polygon>
                    <polygon id="路径" stroke="none" fill="url(#linearGradient-43)" fill-rule="nonzero" points="998 1051 992 1051 993.783333 1028 996.55 1028"></polygon>
                    <path d="M941.417086,1008.18505 C943.42684,1002.17577 945.934586,996.272229 946.948356,990.03386 C948.033267,983.284439 947.357421,976.394037 947.819842,969.591748 C948.282264,962.789459 950.149734,955.63472 955.218583,951 C957.978652,956.224717 960.138274,961.739827 961.656909,967.441802 C964.271368,979.072659 961.443484,991.478906 964.662648,1002.95116 C966.261822,1007.72446 968.193212,1012.3821 970.442913,1016.89057 C972.705444,1021.42048 973.920597,1026.39309 974,1031.44676 C973.537579,1043.43007 959.771653,1049.7213 949.598386,1043.65916 C937.166368,1036.2577 937.486506,1019.99213 941.417086,1008.18505 Z" id="路径" stroke="none" fill="#027AFF" fill-rule="nonzero"></path>
                    <polygon id="路径" stroke="none" fill="#027AFF" fill-rule="nonzero" points="960 1051 954 1051 955.783333 1028 958.55 1028"></polygon>
                    <polygon id="路径" stroke="none" fill="url(#linearGradient-43)" fill-rule="nonzero" points="960 1051 954 1051 955.783333 1028 958.55 1028"></polygon>
                    <rect id="矩形" stroke="none" fill="#027AFF" fill-rule="nonzero" x="560" y="971" width="19" height="79"></rect>
                    <rect id="矩形" stroke="none" fill="url(#linearGradient-44)" fill-rule="nonzero" x="560" y="971" width="19" height="79"></rect>
                    <rect id="矩形" stroke="none" fill="url(#linearGradient-45)" fill-rule="nonzero" x="594" y="987" width="86" height="8"></rect>
                    <rect id="矩形" stroke="none" fill="url(#linearGradient-46)" fill-rule="nonzero" x="594" y="1001" width="86" height="8"></rect>
                    <rect id="矩形" stroke="none" fill="url(#linearGradient-46)" fill-rule="nonzero" x="594" y="1015" width="86" height="8"></rect>
                    <rect id="矩形" stroke="none" fill="url(#linearGradient-45)" fill-rule="nonzero" x="594" y="1029" width="86" height="8"></rect>
                    <g id="Clipped" stroke="none" stroke-width="1" fill="none" fill-rule="evenodd" transform="translate(328.000000, 1098.000000)">
                        <g id="编组" transform="translate(3.520958, 0.030303)" fill-rule="nonzero">
                            <path d="M96.2982036,71.6230303 C87.4958084,72.3787879 78.5701796,73.5212121 69.891018,72.2206061 C64.7260997,71.3150681 59.6446247,69.9865403 54.6980838,68.2484848 C48.9589222,66.4030303 43.0261078,64.4521212 38.6249102,60.3218182 C35.7902663,57.3582915 33.4165887,53.9873035 31.582994,50.3212121 C31.0829249,49.5874453 30.7965009,48.7295904 30.7555689,47.8430303 C30.937406,46.7714556 31.5809349,45.8334528 32.5160479,45.2769697 C35.2447904,43.4315152 38.7305389,43.3084848 42.0226347,43.2909091 C50.7898204,43.2206061 59.5452695,43.3846465 68.288982,43.7830303 C72.9623314,43.8842623 77.6196001,44.3662676 82.2143713,45.2242424 C88.111976,46.489697 93.7102994,48.8624242 99.5198802,50.4969697 C109.62503,53.4672727 120.223114,54.3284848 130.750778,55.1721212 C142.053054,56.0684848 153.637006,56.929697 164.622395,54.1878788 C171.259401,52.5357576 177.491497,49.5830303 183.987665,47.3860606 C201.363593,41.5333333 222.031617,41.7618182 236.520359,53.010303 C239.226888,54.9064765 241.383009,57.4834917 242.77006,60.48 C244.280855,64.9807698 244.080336,69.8791365 242.206707,74.2418182 C240.657485,78.0206061 238.298443,78.1084848 234.531018,77.9151515 C223.351976,77.3 212.172934,76.1575758 201.081916,75.050303 C178.794251,73.0115152 156.471377,70.9375758 134.183713,70.4806061 C121.5439,70.202667 108.898172,70.5839945 96.2982036,71.6230303 L96.2982036,71.6230303 Z" id="路径" fill="#027AFF"></path>
                            <path d="M96.2982036,71.6230303 C87.4958084,72.3787879 78.5701796,73.5212121 69.891018,72.2206061 C64.7260997,71.3150681 59.6446247,69.9865403 54.6980838,68.2484848 C48.9589222,66.4030303 43.0261078,64.4521212 38.6249102,60.3218182 C35.7902663,57.3582915 33.4165887,53.9873035 31.582994,50.3212121 C31.0829249,49.5874453 30.7965009,48.7295904 30.7555689,47.8430303 C30.937406,46.7714556 31.5809349,45.8334528 32.5160479,45.2769697 C35.2447904,43.4315152 38.7305389,43.3084848 42.0226347,43.2909091 C50.7898204,43.2206061 59.5452695,43.3846465 68.288982,43.7830303 C72.9623314,43.8842623 77.6196001,44.3662676 82.2143713,45.2242424 C88.111976,46.489697 93.7102994,48.8624242 99.5198802,50.4969697 C109.62503,53.4672727 120.223114,54.3284848 130.750778,55.1721212 C142.053054,56.0684848 153.637006,56.929697 164.622395,54.1878788 C171.259401,52.5357576 177.491497,49.5830303 183.987665,47.3860606 C201.363593,41.5333333 222.031617,41.7618182 236.520359,53.010303 C239.226888,54.9064765 241.383009,57.4834917 242.77006,60.48 C244.280855,64.9807698 244.080336,69.8791365 242.206707,74.2418182 C240.657485,78.0206061 238.298443,78.1084848 234.531018,77.9151515 C223.351976,77.3 212.172934,76.1575758 201.081916,75.050303 C178.794251,73.0115152 156.471377,70.9375758 134.183713,70.4806061 C121.5439,70.202667 108.898172,70.5839945 96.2982036,71.6230303 L96.2982036,71.6230303 Z" id="路径" fill="url(#linearGradient-47)"></path>
                            <path d="M23.097485,6.31151515 C23.097485,6.31151515 13.0099401,16.7690909 9.89389222,28.4042424 L7.18275449,31.1109091 C5.51406192,38.0498617 4.33749205,45.097639 3.66179641,52.2018182 L1.24994012,55.7169697 C0.715734269,57.7180536 0.379630762,59.7666699 0.246467066,61.8333333 C0.321625442,63.9880258 0.52739114,66.1361986 0.862634731,68.2660606 C0.699982166,68.8032617 0.493916169,69.3263939 0.246467066,69.830303 L4.78850299,72.5369697 L30.5619162,75.6127273 C30.2568577,71.0519346 30.6066253,66.471025 31.6005988,62.0090909 C33.2378443,55.26 39.645988,51.4636364 43.0789222,50.3212121 C46.5118563,49.1787879 58.3950898,46.9993939 65.8067066,52.6412121 C73.2183234,58.2830303 74.1865868,65.7878788 74.7675449,73.24 L194.902635,75.5072727 C194.902635,75.5072727 194.673772,64.3993939 199.497485,57.9315152 C204.321198,51.4636364 211.503952,49.6709091 218.44024,49.8993939 C225.376527,50.1278788 231.133293,52.3424242 235.675329,59.0915152 C240.217365,65.8406061 238.351257,78.3721212 238.351257,78.3721212 L259.089701,76.7375758 C259.089701,76.7375758 260.85018,75.5248485 260.85018,74.98 C260.85018,74.4351515 258.75521,72.589697 258.75521,72.589697 L259.741078,67.1236364 L260.85018,66.1921212 C260.798527,62.749501 260.569361,59.311819 260.163593,55.8927273 C259.895356,55.4191633 259.582953,54.971928 259.230539,54.5569697 L255.199042,44.5036364 C253.435772,42.5829512 251.272505,41.0711616 248.861317,40.0745455 C236.387066,35.6886622 223.45166,32.7402435 210.306826,31.2866667 L205.958443,30.7945455 C205.958443,30.7945455 182.808144,13.3418182 164.64,6.31151515 C162.675125,5.47980826 160.643339,4.81542243 158.566347,4.32545455 C155.151018,3.5169697 133.620359,1.65393939 133.620359,1.65393939 C100.145191,-0.236188304 66.5897793,-0.236188304 33.1146108,1.65393939 C28.8620132,2.27412612 24.6432889,3.10709398 20.4743713,4.14969697 L20.5976048,5.53818182 L23.097485,6.31151515 Z" id="路径" fill="#027AFF"></path>
                            <path d="M260.85018,74.9448485 C260.85018,75.489697 259.089701,76.7024242 259.089701,76.7024242 L238.351257,78.3721212 C238.351257,78.3721212 240.111737,65.9109091 235.569701,59.1618182 C231.027665,52.4127273 225.270898,50.1981818 218.334611,49.9521212 C211.398323,49.7060606 204.250778,51.4636364 199.391856,57.9666667 C194.532934,64.469697 194.814611,75.5424242 194.814611,75.5424242 L74.679521,73.2575758 C74.0633533,65.8581818 73.0950898,58.3357576 65.6834731,52.6763636 C58.2718563,47.0169697 46.3182036,49.1612121 42.9556886,50.3739394 C39.5931737,51.5866667 33.1146108,55.3127273 31.4949701,62.0618182 C30.5000619,66.5237474 30.1326981,71.102307 30.4034731,75.6654545 L4.64766467,72.6072727 L0.123233533,69.8830303 C0.384186098,69.385171 0.590762607,68.8607427 0.739401198,68.3187879 C0.387844537,66.1910138 0.181978133,64.0417897 0.123233533,61.8860606 C0.258890769,59.8056118 0.606922336,57.7444226 1.16191617,55.7345455 L3.50335329,52.2193939 C3.50335329,51.7272727 3.50335329,51.1824242 3.62658683,50.6551515 C4.39917085,44.0631051 5.57502027,37.5244249 7.14754491,31.0757576 L9.85868263,28.3690909 C13.0099401,16.8569697 23.1150898,6.31151515 23.1150898,6.31151515 L20.58,5.52060606 L20.4567665,4.13212121 C24.6362815,3.07936202 28.8669465,2.24049064 33.1322156,1.61878788 C66.5959259,-0.261149788 100.139044,-0.261149788 133.602754,1.61878788 C133.602754,1.61878788 155.133413,3.48181818 158.566347,4.32545455 C160.639312,4.78896062 162.661792,5.45415965 164.60479,6.31151515 C182.808144,13.3418182 205.976048,30.7593939 205.976048,30.7593939 L210.324431,31.2339394 C223.464413,32.682292 236.39458,35.6308628 248.861317,40.0218182 C251.270148,40.9971012 253.42968,42.4984734 255.181437,44.4157576 L259.230539,54.4690909 L259.230539,54.5921212 C259.60134,54.9473207 259.889766,55.3792474 260.075569,55.8575758 C260.323961,56.8161616 260.448208,57.8025891 260.445269,58.7927273 C260.691737,61.8684848 260.797365,66.1393939 260.797365,66.1393939 L259.723473,67.0533333 L258.68479,72.5369697 C258.68479,72.5369697 260.85018,74.470303 260.85018,74.9448485 Z" id="路径" fill="url(#linearGradient-48)"></path>
                            <path d="M260.85018,74.9448485 C260.85018,75.489697 259.089701,76.7024242 259.089701,76.7024242 L238.351257,78.3721212 C238.351257,78.3721212 240.111737,65.9109091 235.569701,59.1618182 C231.027665,52.4127273 225.270898,50.1981818 218.334611,49.9521212 C211.398323,49.7060606 204.250778,51.4636364 199.391856,57.9666667 C194.532934,64.469697 194.814611,75.5424242 194.814611,75.5424242 L74.679521,73.2575758 C74.0633533,65.8581818 73.0950898,58.3357576 65.6834731,52.6763636 C58.2718563,47.0169697 46.3182036,49.1612121 42.9556886,50.3739394 C39.5931737,51.5866667 33.1146108,55.3127273 31.4949701,62.0618182 C30.5000619,66.5237474 30.1326981,71.102307 30.4034731,75.6654545 L4.64766467,72.6072727 L0.123233533,69.8830303 C0.384186098,69.385171 0.590762607,68.8607427 0.739401198,68.3187879 C0.387844537,66.1910138 0.181978133,64.0417897 0.123233533,61.8860606 C0.258890769,59.8056118 0.606922336,57.7444226 1.16191617,55.7345455 L3.50335329,52.2193939 C3.50335329,51.7272727 3.50335329,51.1824242 3.62658683,50.6551515 L4.64766467,49.1963636 L34.8046707,47.5793939 C41.6557772,39.8260542 52.2159369,36.4512961 62.3033533,38.7915152 C79.5560479,42.7636364 82.0911377,54.8733333 82.0911377,54.8733333 L188.776168,55.1721212 C196.176203,48.7285414 205.646005,45.1489229 215.46503,45.0836364 C232.171976,44.8375758 240.111737,54.7151515 240.111737,54.7151515 L259.230539,54.5393939 L259.230539,54.6624242 L260.445269,58.8630303 C260.691737,61.9387879 260.797365,66.209697 260.797365,66.209697 L259.723473,67.1236364 L258.68479,72.6072727 C258.68479,72.6072727 260.85018,74.470303 260.85018,74.9448485 Z" id="路径" fill="url(#linearGradient-49)"></path>
                            <path d="M24.5410778,27.4024242 C23.9318232,27.370532 23.3749043,27.0486931 23.0437604,26.5371365 C22.7126165,26.0255799 22.647475,25.3864497 22.8686228,24.8187879 C24.665271,20.1350393 27.0936571,15.7179348 30.0865868,11.689697 C34.9102994,5.80181818 41.8994012,4.65939394 46.5646707,4.41333333 C51.2299401,4.16727273 75.3837126,3.16545455 75.3837126,3.16545455 C75.3837126,3.16545455 123.07509,3.39393939 133.708383,4.32545455 C133.708383,4.32545455 155.467904,5.48545455 162.844311,8.82484848 C170.220719,12.1642424 190.501437,25.6448485 190.501437,25.6448485 L202.595928,34.9072727 C202.878092,35.1046064 202.991208,35.4672573 202.871151,35.7896365 C202.751094,36.1120157 202.428147,36.3128075 202.085389,36.2781818 L24.5410778,27.4024242 Z" id="路径" fill="#027AFF"></path>
                            <path d="M24.5410778,27.4024242 C23.9318232,27.370532 23.3749043,27.0486931 23.0437604,26.5371365 C22.7126165,26.0255799 22.647475,25.3864497 22.8686228,24.8187879 C24.665271,20.1350393 27.0936571,15.7179348 30.0865868,11.689697 C34.9102994,5.80181818 41.8994012,4.65939394 46.5646707,4.41333333 C51.2299401,4.16727273 75.3837126,3.16545455 75.3837126,3.16545455 C75.3837126,3.16545455 123.07509,3.39393939 133.708383,4.32545455 C133.708383,4.32545455 155.467904,5.48545455 162.844311,8.82484848 C170.220719,12.1642424 190.501437,25.6448485 190.501437,25.6448485 L202.595928,34.9072727 C202.878092,35.1046064 202.991208,35.4672573 202.871151,35.7896365 C202.751094,36.1120157 202.428147,36.3128075 202.085389,36.2781818 L24.5410778,27.4024242 Z" id="路径" fill="url(#linearGradient-50)"></path>
                            <path d="M9.48898204,30.4078788 L17.2702994,30.4078788 C17.5750774,30.4113103 17.8604467,30.5578141 18.0405426,30.8033087 C18.2206385,31.0488034 18.2744362,31.3646293 18.1857485,31.6557576 C16.7831001,35.969584 15.954447,40.4487497 15.7210778,44.9781818 C15.7114723,45.5343019 15.2571216,45.9800827 14.7,45.98 C13.3831215,45.9128048 12.0661216,46.110029 10.8269461,46.56 C9.7354491,47.2454545 6.54898204,49.3018182 4.70047904,49.1963636 C4.70047904,49.2139394 5.58071856,35.4521212 9.48898204,30.4078788 Z" id="路径" fill="#027AFF"></path>
                            <path d="M240.833533,43.6951515 L244.354491,51.0066667 C244.354491,51.0066667 251.290778,53.5727273 252.329461,53.2212121 C252.996213,52.9750577 253.568837,52.5263196 253.966707,51.9381818 L255.533533,51.9381818 C255.533533,51.9381818 253.315329,44.9078788 252.558323,44.310303 C249.302373,42.3433757 245.458711,41.5783988 241.696168,42.1484848 C241.350712,42.1958438 241.047678,42.4026406 240.878041,42.7067912 C240.708405,43.0109418 240.691919,43.3770307 240.833533,43.6951515 L240.833533,43.6951515 Z" id="路径" fill="#027AFF"></path>
                            <path d="M259.899521,66.5084848 C259.899521,66.5084848 260.603713,64.9090909 259.12491,64.8387879 C257.646108,64.7684848 254.512455,70.6563636 254.93497,71.6933333 C255.357485,72.730303 258.455928,72.7830303 258.455928,72.7830303 L259.617844,66.8951515 L259.899521,66.5084848 Z" id="路径" fill="#027AFF"></path>
                            <ellipse id="椭圆形" fill="#027AFF" cx="52.4622754" cy="72.8181818" rx="19.2244311" ry="19.1927273"></ellipse>
                            <ellipse id="椭圆形" fill="url(#linearGradient-51)" cx="52.6735329" cy="72.8181818" rx="19.2244311" ry="19.1927273"></ellipse>
                            <ellipse id="椭圆形" fill="url(#linearGradient-52)" cx="52.4622754" cy="72.8181818" rx="12.0064671" ry="11.9866667"></ellipse>
                            <ellipse id="椭圆形" fill="#027AFF" cx="216.433293" cy="72.8181818" rx="19.2244311" ry="19.1927273"></ellipse>
                            <ellipse id="椭圆形" fill="url(#linearGradient-51)" cx="216.433293" cy="72.8181818" rx="19.2244311" ry="19.1927273"></ellipse>
                            <ellipse id="椭圆形" fill="url(#linearGradient-53)" cx="216.433293" cy="72.8181818" rx="12.0064671" ry="11.9866667"></ellipse>
                            <polygon id="路径" fill="#027AFF" points="75.3837126 3.1830303 72.074012 30.1969697 72.8134132 30.1969697 76.1583234 2.70848485"></polygon>
                            <polygon id="路径" fill="#027AFF" points="132.616886 4.25515152 132.616886 33.1848485 135.803353 33.1848485 134.641437 4.25515152"></polygon>
                            <path d="M189.057844,31.2339394 C189.057844,31.2339394 189.867665,25.5042424 188.001557,24.3969697 C186.135449,23.289697 184.973533,22.6393939 180.431497,23.0436364 C179.564567,23.2458828 178.965197,24.0363376 179.005509,24.9242424 C178.864671,26.6818182 178.248503,30.1969697 179.005509,31.0933333 C179.762515,31.989697 185.536886,33.6769697 188.688144,33.8 C188.688144,33.8 190.307784,33.1848485 190.360599,32.5521212 C190.413413,31.9193939 189.057844,31.2339394 189.057844,31.2339394 Z" id="路径" fill="#027AFF"></path>
                            <path d="M119.835808,36.8581818 C119.835808,36.8581818 117.688024,36.8581818 117.740838,37.8424242 C117.793653,38.8266667 119.765389,38.8090909 119.765389,38.8090909 C120.716429,39.720373 121.969141,40.2518974 123.286347,40.3030303 C124.422551,40.4329222 125.566162,40.1318081 126.490419,39.4593939 C126.490419,39.4593939 130.874012,39.8812121 130.944431,38.5806061 C131.01485,37.28 126.772096,37.0515152 126.772096,37.0515152 C126.772096,37.0515152 126.243952,35.9266667 122.934251,35.8036364 C121.794437,35.6654105 120.6537,36.053657 119.835808,36.8581818 Z" id="路径" fill="#027AFF"></path>
                            <path d="M148.566826,38.3521212 C148.566826,38.3521212 150.697006,38.7036364 150.503353,39.6175758 C150.309701,40.5315152 148.373174,40.3030303 148.373174,40.3030303 C147.30299,41.0716929 145.987621,41.4218793 144.676168,41.2872727 C143.532392,41.2554401 142.443564,40.7904668 141.630539,39.9866667 C141.630539,39.9866667 137.211737,39.7757576 137.33497,38.4751515 C137.458204,37.1745455 141.683353,37.5612121 141.683353,37.5612121 C141.683353,37.5612121 142.36994,36.5066667 145.662036,36.8757576 C146.809076,36.8840407 147.885264,37.4310151 148.566826,38.3521212 L148.566826,38.3521212 Z" id="路径" fill="#027AFF"></path>
                            <polygon id="路径" fill="#027AFF" points="189.621198 23.9224242 189.621198 37.5787879 204.426826 36.7878788 204.426826 33.7824242"></polygon>
                            <path d="M9.48898204,30.4078788 L17.2702994,30.4078788 C17.5750774,30.4113103 17.8604467,30.5578141 18.0405426,30.8033087 C18.2206385,31.0488034 18.2744362,31.3646293 18.1857485,31.6557576 C16.7831001,35.969584 15.954447,40.4487497 15.7210778,44.9781818 C15.7114723,45.5343019 15.2571216,45.9800827 14.7,45.98 C13.3831215,45.9128048 12.0661216,46.110029 10.8269461,46.56 C9.7354491,47.2454545 6.54898204,49.3018182 4.70047904,49.1963636 C4.70047904,49.2139394 5.58071856,35.4521212 9.48898204,30.4078788 Z" id="路径" fill="url(#linearGradient-54)"></path>
                            <path d="M240.833533,43.6951515 L244.354491,51.0066667 C244.354491,51.0066667 251.290778,53.5727273 252.329461,53.2212121 C252.996213,52.9750577 253.568837,52.5263196 253.966707,51.9381818 L255.533533,51.9381818 C255.533533,51.9381818 253.315329,44.9078788 252.558323,44.310303 C249.302373,42.3433757 245.458711,41.5783988 241.696168,42.1484848 C241.350712,42.1958438 241.047678,42.4026406 240.878041,42.7067912 C240.708405,43.0109418 240.691919,43.3770307 240.833533,43.6951515 L240.833533,43.6951515 Z" id="路径" fill="url(#linearGradient-55)"></path>
                            <path d="M189.057844,31.2339394 C189.057844,31.2339394 189.867665,25.5042424 188.001557,24.3969697 C186.135449,23.289697 184.973533,22.6393939 180.431497,23.0436364 C179.564567,23.2458828 178.965197,24.0363376 179.005509,24.9242424 C178.864671,26.6818182 178.248503,30.1969697 179.005509,31.0933333 C179.762515,31.989697 185.536886,33.6769697 188.688144,33.8 C188.688144,33.8 190.307784,33.1848485 190.360599,32.5521212 C190.413413,31.9193939 189.057844,31.2339394 189.057844,31.2339394 Z" id="路径" fill="url(#linearGradient-56)"></path>
                            <path d="M119.835808,36.8581818 C119.835808,36.8581818 117.688024,36.8581818 117.740838,37.8424242 C117.793653,38.8266667 119.765389,38.8090909 119.765389,38.8090909 C120.716429,39.720373 121.969141,40.2518974 123.286347,40.3030303 C124.422551,40.4329222 125.566162,40.1318081 126.490419,39.4593939 C126.490419,39.4593939 130.874012,39.8812121 130.944431,38.5806061 C131.01485,37.28 126.772096,37.0515152 126.772096,37.0515152 C126.772096,37.0515152 126.243952,35.9266667 122.934251,35.8036364 C121.794437,35.6654105 120.6537,36.053657 119.835808,36.8581818 Z" id="路径" fill="url(#linearGradient-57)"></path>
                            <path d="M148.566826,38.3521212 C148.566826,38.3521212 150.697006,38.7036364 150.503353,39.6175758 C150.309701,40.5315152 148.373174,40.3030303 148.373174,40.3030303 C147.30299,41.0716929 145.987621,41.4218793 144.676168,41.2872727 C143.532392,41.2554401 142.443564,40.7904668 141.630539,39.9866667 C141.630539,39.9866667 137.211737,39.7757576 137.33497,38.4751515 C137.458204,37.1745455 141.683353,37.5612121 141.683353,37.5612121 C141.683353,37.5612121 142.36994,36.5066667 145.662036,36.8757576 C146.809076,36.8840407 147.885264,37.4310151 148.566826,38.3521212 L148.566826,38.3521212 Z" id="路径" fill="url(#linearGradient-58)"></path>
                            <polygon id="路径" fill="url(#linearGradient-59)" points="189.621198 23.9224242 189.621198 37.5787879 204.426826 36.7878788 204.426826 33.7824242"></polygon>
                        </g>
                    </g>
                </g>
            </g>
        </g>
    </g>
</svg>